 0 
SECTION
 2 
HEADER
 9 
$ACADVER
 1 
AC1004
 9 
$EXTMIN
 10 
0.0
 20 
0.0
 9 
$EXTMAX
 10 
3.007
 20 
2.1
 9 
$LIMMIN
 10 
0.0
 20 
0.0
 9 
$LIMMAX
 10 
3.007
 20 
2.1
 9 
$INSBASE
 10 
0.0
 20 
0.0
 9 
$VIEWCTR
 10 
1.504
 20 
1.05
 9 
$VIEWSIZE
 40 
2.1
 9 
$ORTHOMODE
 70 
 0 
 9 
$REGENMODE
 70 
 1 
 9 
$FILLMODE
 70 
 1 
 9 
$QTEXTMODE
 70 
 0 
 9 
$DRAGMODE
 70 
 2 
 9 
$LTSCALE
 40 
1.0
 9 
$OSMODE
 70 
 0 
 9 
$ATTMODE
 70 
 1 
 9 
$TEXTSIZE
 40 
0.2
 9 
$TRACEWID
 40 
0.05
 9 
$TEXTSTYLE
 7 
STANDARD
 9 
$CLAYER
 8 
0
 9 
$CELTYPE
 6 
BYLAYER
 9 
$CECOLOR
 62 
 256 
 9 
$DIMSCALE
 40 
1.0
 9 
$DIMLFAC
 40 
1.0
 9 
$LUNITS
 70 
 2 
 9 
$LUPREC
 70 
 4 
 9 
$AXISMODE
 70 
 0 
 9 
$AXISUNIT
 10 
0.0
 20 
0.0
 9 
$SKETCHINC
 40 
0.1
 9 
$MENU
 1 
acad
 9 
$ELEVATION
 40 
0.0
 9 
$THICKNESS
 40 
0.0
 9 
$VIEWDIR
 10 
0.0
 20 
0.0
 30 
1.0
 9 
$LIMCHECK
 70 
 0 
 9 
$BLIPMODE
 70 
 1 
 9 
$FASTZOOM
 70 
 1 
 9 
$SKPOLY
 70 
 0 
 9 
$ANGBASE
 50 
0.0
 9 
$ANGDIR
 70 
 0 
 9 
$PDMODE
 70 
 0 
 9 
$PDSIZE
 40 
0.0
 9 
$PLINEWID
 40 
0.0
 9 
$COORDS
 70 
 0 
 9 
$ATTDIA
 70 
 0 
 9 
$ATTREQ
 70 
 1 
 0 
ENDSEC
 0 
SECTION
 2 
TABLES
 0 
TABLE
 2 
LTYPE
 70 
 10 
 0 
LTYPE
 2 
CONTINUOUS
 70 
 64 
 3 
Solid line
 72 
 65 
 73 
 0 
 40 
0.0
 0 
ENDTAB
 0 
TABLE
 2 
LAYER
 70 
 153 
 0 
LAYER
 2 
0
 70 
 64 
 62 
 7 
 6 
CONTINUOUS
 0 
ENDTAB
 0 
ENDSEC
 0 
SECTION
 2 
BLOCKS
 0 
ENDSEC
 0 
SECTION
 2 
ENTITIES
 0 
LINE
 8 
0
 62 
 7 
 10 
0.0
 20 
2.1
 11 
2.6
 21 
2.1
 0 
LINE
 8 
0
 62 
 7 
 10 
2.6
 20 
2.1
 11 
2.6
 21 
1.6
 0 
LINE
 8 
0
 62 
 7 
 10 
2.6
 20 
0.0
 11 
0.0
 21 
0.0
 0 
LINE
 8 
0
 62 
 7 
 10 
0.0
 20 
0.0
 11 
0.0
 21 
2.1
 0 
LINE
 8 
0
 62 
 7 
 10 
2.6
 20 
1.6
 11 
2.7
 21 
1.5
 0 
LINE
 8 
0
 62 
 7 
 10 
2.7
 20 
1.5
 11 
2.7
 21 
0.2
 0 
LINE
 8 
0
 62 
 7 
 10 
2.6
 20 
0.1
 11 
2.6
 21 
0.0
 0 
LINE
 8 
0
 62 
 7 
 10 
2.7
 20 
0.2
 11 
2.6
 21 
0.1
 0 
CIRCLE
 8 
0
 62 
 7 
 10 
2.6
 20 
1.4
 40 
0.075
 0 
CIRCLE
 8 
0
 62 
 7 
 10 
2.6
 20 
1.4
 40 
0.062
 0 
CIRCLE
 8 
0
 62 
 7 
 10 
2.6
 20 
0.3
 40 
0.075
 0 
CIRCLE
 8 
0
 62 
 7 
 10 
2.6
 20 
0.3
 40 
0.062
 0 
CIRCLE
 8 
0
 62 
 7 
 10 
0.6
 20 
2.0
 40 
0.075
 0 
CIRCLE
 8 
0
 62 
 7 
 10 
0.6
 20 
2.0
 40 
0.062
 0 
LINE
 8 
0
 62 
 7 
 10 
1.268
 20 
0.132
 11 
1.333
 21 
0.132
 0 
LINE
 8 
0
 62 
 7 
 10 
1.333
 20 
0.132
 11 
1.333
 21 
0.067
 0 
LINE
 8 
0
 62 
 7 
 10 
1.333
 20 
0.067
 11 
1.268
 21 
0.067
 0 
LINE
 8 
0
 62 
 7 
 10 
1.268
 20 
0.067
 11 
1.268
 21 
0.132
 0 
CIRCLE
 8 
0
 62 
 7 
 10 
1.3
 20 
0.1
 40 
0.018
 0 
CIRCLE
 8 
0
 62 
 7 
 10 
1.4
 20 
0.1
 40 
0.032
 0 
CIRCLE
 8 
0
 62 
 7 
 10 
1.4
 20 
0.1
 40 
0.018
 0 
CIRCLE
 8 
0
 62 
 7 
 10 
1.6
 20 
0.1
 40 
0.032
 0 
CIRCLE
 8 
0
 62 
 7 
 10 
1.6
 20 
0.1
 40 
0.018
 0 
CIRCLE
 8 
0
 62 
 7 
 10 
1.5
 20 
0.1
 40 
0.032
 0 
CIRCLE
 8 
0
 62 
 7 
 10 
1.5
 20 
0.1
 40 
0.018
 0 
CIRCLE
 8 
0
 62 
 7 
 10 
1.7
 20 
0.1
 40 
0.032
 0 
CIRCLE
 8 
0
 62 
 7 
 10 
1.7
 20 
0.1
 40 
0.018
 0 
CIRCLE
 8 
0
 62 
 7 
 10 
1.8
 20 
0.1
 40 
0.032
 0 
CIRCLE
 8 
0
 62 
 7 
 10 
1.8
 20 
0.1
 40 
0.018
 0 
LINE
 8 
0
 62 
 7 
 10 
2.444
 20 
2.032
 11 
2.509
 21 
2.032
 0 
LINE
 8 
0
 62 
 7 
 10 
2.509
 20 
2.032
 11 
2.509
 21 
1.967
 0 
LINE
 8 
0
 62 
 7 
 10 
2.509
 20 
1.967
 11 
2.444
 21 
1.967
 0 
LINE
 8 
0
 62 
 7 
 10 
2.444
 20 
1.967
 11 
2.444
 21 
2.032
 0 
CIRCLE
 8 
0
 62 
 7 
 10 
2.476
 20 
2.0
 40 
0.018
 0 
LINE
 8 
0
 62 
 7 
 10 
1.968
 20 
0.132
 11 
2.033
 21 
0.132
 0 
LINE
 8 
0
 62 
 7 
 10 
2.033
 20 
0.132
 11 
2.033
 21 
0.067
 0 
LINE
 8 
0
 62 
 7 
 10 
2.033
 20 
0.067
 11 
1.968
 21 
0.067
 0 
LINE
 8 
0
 62 
 7 
 10 
1.968
 20 
0.067
 11 
1.968
 21 
0.132
 0 
CIRCLE
 8 
0
 62 
 7 
 10 
2.0
 20 
0.1
 40 
0.018
 0 
CIRCLE
 8 
0
 62 
 7 
 10 
2.1
 20 
0.1
 40 
0.032
 0 
CIRCLE
 8 
0
 62 
 7 
 10 
2.1
 20 
0.1
 40 
0.018
 0 
CIRCLE
 8 
0
 62 
 7 
 10 
2.3
 20 
0.1
 40 
0.032
 0 
CIRCLE
 8 
0
 62 
 7 
 10 
2.3
 20 
0.1
 40 
0.018
 0 
CIRCLE
 8 
0
 62 
 7 
 10 
2.2
 20 
0.1
 40 
0.032
 0 
CIRCLE
 8 
0
 62 
 7 
 10 
2.2
 20 
0.1
 40 
0.018
 0 
CIRCLE
 8 
0
 62 
 7 
 10 
2.4
 20 
0.1
 40 
0.032
 0 
CIRCLE
 8 
0
 62 
 7 
 10 
2.4
 20 
0.1
 40 
0.018
 0 
CIRCLE
 8 
0
 62 
 7 
 10 
2.5
 20 
0.1
 40 
0.032
 0 
CIRCLE
 8 
0
 62 
 7 
 10 
2.5
 20 
0.1
 40 
0.018
 0 
CIRCLE
 8 
0
 62 
 7 
 10 
2.376
 20 
2.0
 40 
0.032
 0 
CIRCLE
 8 
0
 62 
 7 
 10 
2.376
 20 
2.0
 40 
0.018
 0 
CIRCLE
 8 
0
 62 
 7 
 10 
2.176
 20 
2.0
 40 
0.032
 0 
CIRCLE
 8 
0
 62 
 7 
 10 
2.176
 20 
2.0
 40 
0.018
 0 
CIRCLE
 8 
0
 62 
 7 
 10 
2.276
 20 
2.0
 40 
0.032
 0 
CIRCLE
 8 
0
 62 
 7 
 10 
2.276
 20 
2.0
 40 
0.018
 0 
CIRCLE
 8 
0
 62 
 7 
 10 
2.076
 20 
2.0
 40 
0.032
 0 
CIRCLE
 8 
0
 62 
 7 
 10 
2.076
 20 
2.0
 40 
0.018
 0 
CIRCLE
 8 
0
 62 
 7 
 10 
1.976
 20 
2.0
 40 
0.032
 0 
CIRCLE
 8 
0
 62 
 7 
 10 
1.976
 20 
2.0
 40 
0.018
 0 
CIRCLE
 8 
0
 62 
 7 
 10 
1.876
 20 
2.0
 40 
0.032
 0 
CIRCLE
 8 
0
 62 
 7 
 10 
1.876
 20 
2.0
 40 
0.018
 0 
CIRCLE
 8 
0
 62 
 7 
 10 
1.776
 20 
2.0
 40 
0.032
 0 
CIRCLE
 8 
0
 62 
 7 
 10 
1.776
 20 
2.0
 40 
0.018
 0 
LINE
 8 
0
 62 
 7 
 10 
1.592
 20 
2.032
 11 
1.657
 21 
2.032
 0 
LINE
 8 
0
 62 
 7 
 10 
1.657
 20 
2.032
 11 
1.657
 21 
1.967
 0 
LINE
 8 
0
 62 
 7 
 10 
1.657
 20 
1.967
 11 
1.592
 21 
1.967
 0 
LINE
 8 
0
 62 
 7 
 10 
1.592
 20 
1.967
 11 
1.592
 21 
2.032
 0 
CIRCLE
 8 
0
 62 
 7 
 10 
1.625
 20 
2.0
 40 
0.018
 0 
CIRCLE
 8 
0
 62 
 7 
 10 
1.525
 20 
2.0
 40 
0.032
 0 
CIRCLE
 8 
0
 62 
 7 
 10 
1.525
 20 
2.0
 40 
0.018
 0 
CIRCLE
 8 
0
 62 
 7 
 10 
1.325
 20 
2.0
 40 
0.032
 0 
CIRCLE
 8 
0
 62 
 7 
 10 
1.325
 20 
2.0
 40 
0.018
 0 
CIRCLE
 8 
0
 62 
 7 
 10 
1.425
 20 
2.0
 40 
0.032
 0 
CIRCLE
 8 
0
 62 
 7 
 10 
1.425
 20 
2.0
 40 
0.018
 0 
CIRCLE
 8 
0
 62 
 7 
 10 
1.225
 20 
2.0
 40 
0.032
 0 
CIRCLE
 8 
0
 62 
 7 
 10 
1.225
 20 
2.0
 40 
0.018
 0 
CIRCLE
 8 
0
 62 
 7 
 10 
1.125
 20 
2.0
 40 
0.032
 0 
CIRCLE
 8 
0
 62 
 7 
 10 
1.125
 20 
2.0
 40 
0.018
 0 
CIRCLE
 8 
0
 62 
 7 
 10 
1.025
 20 
2.0
 40 
0.032
 0 
CIRCLE
 8 
0
 62 
 7 
 10 
1.025
 20 
2.0
 40 
0.018
 0 
CIRCLE
 8 
0
 62 
 7 
 10 
0.925
 20 
2.0
 40 
0.032
 0 
CIRCLE
 8 
0
 62 
 7 
 10 
0.925
 20 
2.0
 40 
0.018
 0 
CIRCLE
 8 
0
 62 
 7 
 10 
0.55
 20 
0.1
 40 
0.075
 0 
CIRCLE
 8 
0
 62 
 7 
 10 
0.55
 20 
0.1
 40 
0.062
 0 
CIRCLE
 8 
0
 62 
 7 
 10 
0.2
 20 
1.95
 40 
0.13
 0 
CIRCLE
 8 
0
 62 
 7 
 10 
0.2
 20 
1.95
 40 
0.096
 0 
LINE
 8 
0
 62 
 7 
 10 
2.319
 20 
0.731
 11 
2.381
 21 
0.731
 0 
LINE
 8 
0
 62 
 7 
 10 
2.381
 20 
0.731
 11 
2.381
 21 
0.669
 0 
LINE
 8 
0
 62 
 7 
 10 
2.381
 20 
0.669
 11 
2.319
 21 
0.669
 0 
LINE
 8 
0
 62 
 7 
 10 
2.319
 20 
0.669
 11 
2.319
 21 
0.731
 0 
CIRCLE
 8 
0
 62 
 7 
 10 
2.35
 20 
0.7
 40 
0.014
 0 
CIRCLE
 8 
0
 62 
 7 
 10 
2.25
 20 
0.75
 40 
0.031
 0 
CIRCLE
 8 
0
 62 
 7 
 10 
2.25
 20 
0.75
 40 
0.014
 0 
CIRCLE
 8 
0
 62 
 7 
 10 
2.35
 20 
0.8
 40 
0.031
 0 
CIRCLE
 8 
0
 62 
 7 
 10 
2.35
 20 
0.8
 40 
0.014
 0 
CIRCLE
 8 
0
 62 
 7 
 10 
2.25
 20 
0.85
 40 
0.031
 0 
CIRCLE
 8 
0
 62 
 7 
 10 
2.25
 20 
0.85
 40 
0.014
 0 
CIRCLE
 8 
0
 62 
 7 
 10 
2.35
 20 
0.9
 40 
0.031
 0 
CIRCLE
 8 
0
 62 
 7 
 10 
2.35
 20 
0.9
 40 
0.014
 0 
CIRCLE
 8 
0
 62 
 7 
 10 
2.25
 20 
0.95
 40 
0.031
 0 
CIRCLE
 8 
0
 62 
 7 
 10 
2.25
 20 
0.95
 40 
0.014
 0 
CIRCLE
 8 
0
 62 
 7 
 10 
2.35
 20 
1.0
 40 
0.031
 0 
CIRCLE
 8 
0
 62 
 7 
 10 
2.35
 20 
1.0
 40 
0.014
 0 
CIRCLE
 8 
0
 62 
 7 
 10 
2.25
 20 
1.05
 40 
0.031
 0 
CIRCLE
 8 
0
 62 
 7 
 10 
2.25
 20 
1.05
 40 
0.014
 0 
CIRCLE
 8 
0
 62 
 7 
 10 
2.6
 20 
0.65
 40 
0.08
 0 
CIRCLE
 8 
0
 62 
 7 
 10 
2.6
 20 
0.65
 40 
0.062
 0 
CIRCLE
 8 
0
 62 
 7 
 10 
2.6
 20 
1.1
 40 
0.08
 0 
CIRCLE
 8 
0
 62 
 7 
 10 
2.6
 20 
1.1
 40 
0.062
 0 
CIRCLE
 8 
0
 62 
 7 
 10 
2.0
 20 
1.35
 40 
0.028
 0 
CIRCLE
 8 
0
 62 
 7 
 10 
2.0
 20 
1.35
 40 
0.014
 0 
CIRCLE
 8 
0
 62 
 7 
 10 
2.0
 20 
1.75
 40 
0.028
 0 
CIRCLE
 8 
0
 62 
 7 
 10 
2.0
 20 
1.75
 40 
0.014
 0 
LINE
 8 
0
 62 
 7 
 10 
1.66
 20 
1.715
 11 
1.74
 21 
1.715
 0 
LINE
 8 
0
 62 
 7 
 10 
1.74
 20 
1.715
 11 
1.74
 21 
1.635
 0 
LINE
 8 
0
 62 
 7 
 10 
1.74
 20 
1.635
 11 
1.66
 21 
1.635
 0 
LINE
 8 
0
 62 
 7 
 10 
1.66
 20 
1.635
 11 
1.66
 21 
1.715
 0 
CIRCLE
 8 
0
 62 
 7 
 10 
1.7
 20 
1.675
 40 
0.018
 0 
CIRCLE
 8 
0
 62 
 7 
 10 
1.7
 20 
1.475
 40 
0.04
 0 
CIRCLE
 8 
0
 62 
 7 
 10 
1.7
 20 
1.475
 40 
0.018
 0 
CIRCLE
 8 
0
 62 
 7 
 10 
2.175
 20 
1.35
 40 
0.028
 0 
CIRCLE
 8 
0
 62 
 7 
 10 
2.175
 20 
1.35
 40 
0.014
 0 
CIRCLE
 8 
0
 62 
 7 
 10 
2.175
 20 
1.75
 40 
0.028
 0 
CIRCLE
 8 
0
 62 
 7 
 10 
2.175
 20 
1.75
 40 
0.014
 0 
CIRCLE
 8 
0
 62 
 7 
 10 
1.1
 20 
1.1
 40 
0.028
 0 
CIRCLE
 8 
0
 62 
 7 
 10 
1.1
 20 
1.1
 40 
0.014
 0 
CIRCLE
 8 
0
 62 
 7 
 10 
1.2
 20 
1.1
 40 
0.028
 0 
CIRCLE
 8 
0
 62 
 7 
 10 
1.2
 20 
1.1
 40 
0.014
 0 
CIRCLE
 8 
0
 62 
 7 
 10 
1.3
 20 
1.1
 40 
0.028
 0 
CIRCLE
 8 
0
 62 
 7 
 10 
1.3
 20 
1.1
 40 
0.014
 0 
CIRCLE
 8 
0
 62 
 7 
 10 
1.1
 20 
0.8
 40 
0.028
 0 
CIRCLE
 8 
0
 62 
 7 
 10 
1.1
 20 
0.8
 40 
0.014
 0 
CIRCLE
 8 
0
 62 
 7 
 10 
1.2
 20 
0.8
 40 
0.028
 0 
CIRCLE
 8 
0
 62 
 7 
 10 
1.2
 20 
0.8
 40 
0.014
 0 
CIRCLE
 8 
0
 62 
 7 
 10 
1.3
 20 
0.8
 40 
0.028
 0 
CIRCLE
 8 
0
 62 
 7 
 10 
1.3
 20 
0.8
 40 
0.014
 0 
CIRCLE
 8 
0
 62 
 7 
 10 
1.7
 20 
0.9
 40 
0.028
 0 
CIRCLE
 8 
0
 62 
 7 
 10 
1.7
 20 
0.9
 40 
0.014
 0 
CIRCLE
 8 
0
 62 
 7 
 10 
1.7
 20 
1.3
 40 
0.028
 0 
CIRCLE
 8 
0
 62 
 7 
 10 
1.7
 20 
1.3
 40 
0.014
 0 
CIRCLE
 8 
0
 62 
 7 
 10 
1.9
 20 
0.9
 40 
0.028
 0 
CIRCLE
 8 
0
 62 
 7 
 10 
1.9
 20 
0.9
 40 
0.014
 0 
CIRCLE
 8 
0
 62 
 7 
 10 
1.9
 20 
1.3
 40 
0.028
 0 
CIRCLE
 8 
0
 62 
 7 
 10 
1.9
 20 
1.3
 40 
0.014
 0 
CIRCLE
 8 
0
 62 
 7 
 10 
1.7
 20 
0.4
 40 
0.028
 0 
CIRCLE
 8 
0
 62 
 7 
 10 
1.7
 20 
0.4
 40 
0.014
 0 
CIRCLE
 8 
0
 62 
 7 
 10 
1.7
 20 
0.8
 40 
0.028
 0 
CIRCLE
 8 
0
 62 
 7 
 10 
1.7
 20 
0.8
 40 
0.014
 0 
CIRCLE
 8 
0
 62 
 7 
 10 
1.9
 20 
0.4
 40 
0.028
 0 
CIRCLE
 8 
0
 62 
 7 
 10 
1.9
 20 
0.4
 40 
0.014
 0 
CIRCLE
 8 
0
 62 
 7 
 10 
1.9
 20 
0.8
 40 
0.028
 0 
CIRCLE
 8 
0
 62 
 7 
 10 
1.9
 20 
0.8
 40 
0.014
 0 
CIRCLE
 8 
0
 62 
 7 
 10 
1.5
 20 
0.5
 40 
0.028
 0 
CIRCLE
 8 
0
 62 
 7 
 10 
1.5
 20 
0.5
 40 
0.014
 0 
CIRCLE
 8 
0
 62 
 7 
 10 
1.5
 20 
0.9
 40 
0.028
 0 
CIRCLE
 8 
0
 62 
 7 
 10 
1.5
 20 
0.9
 40 
0.014
 0 
CIRCLE
 8 
0
 62 
 7 
 10 
1.375
 20 
1.25
 40 
0.028
 0 
CIRCLE
 8 
0
 62 
 7 
 10 
1.375
 20 
1.25
 40 
0.014
 0 
CIRCLE
 8 
0
 62 
 7 
 10 
0.975
 20 
1.25
 40 
0.028
 0 
CIRCLE
 8 
0
 62 
 7 
 10 
0.975
 20 
1.25
 40 
0.014
 0 
CIRCLE
 8 
0
 62 
 7 
 10 
1.375
 20 
0.55
 40 
0.028
 0 
CIRCLE
 8 
0
 62 
 7 
 10 
1.375
 20 
0.55
 40 
0.014
 0 
CIRCLE
 8 
0
 62 
 7 
 10 
0.975
 20 
0.55
 40 
0.028
 0 
CIRCLE
 8 
0
 62 
 7 
 10 
0.975
 20 
0.55
 40 
0.014
 0 
CIRCLE
 8 
0
 62 
 7 
 10 
2.1
 20 
0.95
 40 
0.028
 0 
CIRCLE
 8 
0
 62 
 7 
 10 
2.1
 20 
0.95
 40 
0.014
 0 
CIRCLE
 8 
0
 62 
 7 
 10 
2.1
 20 
1.15
 40 
0.028
 0 
CIRCLE
 8 
0
 62 
 7 
 10 
2.1
 20 
1.15
 40 
0.014
 0 
CIRCLE
 8 
0
 62 
 7 
 10 
2.1
 20 
0.825
 40 
0.028
 0 
CIRCLE
 8 
0
 62 
 7 
 10 
2.1
 20 
0.825
 40 
0.014
 0 
CIRCLE
 8 
0
 62 
 7 
 10 
2.1
 20 
0.625
 40 
0.028
 0 
CIRCLE
 8 
0
 62 
 7 
 10 
2.1
 20 
0.625
 40 
0.014
 0 
CIRCLE
 8 
0
 62 
 7 
 10 
2.531
 20 
1.547
 40 
0.044
 0 
CIRCLE
 8 
0
 62 
 7 
 10 
2.531
 20 
1.547
 40 
0.02
 0 
CIRCLE
 8 
0
 62 
 7 
 10 
2.275
 20 
1.547
 40 
0.044
 0 
CIRCLE
 8 
0
 62 
 7 
 10 
2.275
 20 
1.547
 40 
0.02
 0 
CIRCLE
 8 
0
 62 
 7 
 10 
2.531
 20 
1.724
 40 
0.044
 0 
CIRCLE
 8 
0
 62 
 7 
 10 
2.531
 20 
1.724
 40 
0.02
 0 
CIRCLE
 8 
0
 62 
 7 
 10 
2.275
 20 
1.724
 40 
0.044
 0 
CIRCLE
 8 
0
 62 
 7 
 10 
2.275
 20 
1.724
 40 
0.02
 0 
ENDSEC
 0 
EOF
