 0 
SECTION
 2 
HEADER
 9 
$ACADVER
 1 
AC1004
 9 
$EXTMIN
 10 
0.0
 20 
0.0
 9 
$EXTMAX
 10 
3.007
 20 
2.1
 9 
$LIMMIN
 10 
0.0
 20 
0.0
 9 
$LIMMAX
 10 
3.007
 20 
2.1
 9 
$INSBASE
 10 
0.0
 20 
0.0
 9 
$VIEWCTR
 10 
1.504
 20 
1.05
 9 
$VIEWSIZE
 40 
2.1
 9 
$ORTHOMODE
 70 
 0 
 9 
$REGENMODE
 70 
 1 
 9 
$FILLMODE
 70 
 1 
 9 
$QTEXTMODE
 70 
 0 
 9 
$DRAGMODE
 70 
 2 
 9 
$LTSCALE
 40 
1.0
 9 
$OSMODE
 70 
 0 
 9 
$ATTMODE
 70 
 1 
 9 
$TEXTSIZE
 40 
0.2
 9 
$TRACEWID
 40 
0.05
 9 
$TEXTSTYLE
 7 
STANDARD
 9 
$CLAYER
 8 
0
 9 
$CELTYPE
 6 
BYLAYER
 9 
$CECOLOR
 62 
 256 
 9 
$DIMSCALE
 40 
1.0
 9 
$DIMLFAC
 40 
1.0
 9 
$LUNITS
 70 
 2 
 9 
$LUPREC
 70 
 4 
 9 
$AXISMODE
 70 
 0 
 9 
$AXISUNIT
 10 
0.0
 20 
0.0
 9 
$SKETCHINC
 40 
0.1
 9 
$MENU
 1 
acad
 9 
$ELEVATION
 40 
0.0
 9 
$THICKNESS
 40 
0.0
 9 
$VIEWDIR
 10 
0.0
 20 
0.0
 30 
1.0
 9 
$LIMCHECK
 70 
 0 
 9 
$BLIPMODE
 70 
 1 
 9 
$FASTZOOM
 70 
 1 
 9 
$SKPOLY
 70 
 0 
 9 
$ANGBASE
 50 
0.0
 9 
$ANGDIR
 70 
 0 
 9 
$PDMODE
 70 
 0 
 9 
$PDSIZE
 40 
0.0
 9 
$PLINEWID
 40 
0.0
 9 
$COORDS
 70 
 0 
 9 
$ATTDIA
 70 
 0 
 9 
$ATTREQ
 70 
 1 
 0 
ENDSEC
 0 
SECTION
 2 
TABLES
 0 
TABLE
 2 
LTYPE
 70 
 10 
 0 
LTYPE
 2 
CONTINUOUS
 70 
 64 
 3 
Solid line
 72 
 65 
 73 
 0 
 40 
0.0
 0 
ENDTAB
 0 
TABLE
 2 
LAYER
 70 
 153 
 0 
LAYER
 2 
0
 70 
 64 
 62 
 7 
 6 
CONTINUOUS
 0 
ENDTAB
 0 
ENDSEC
 0 
SECTION
 2 
BLOCKS
 0 
ENDSEC
 0 
SECTION
 2 
ENTITIES
 0 
LINE
 8 
0
 62 
 7 
 10 
0.0
 20 
2.1
 11 
2.6
 21 
2.1
 0 
LINE
 8 
0
 62 
 7 
 10 
2.6
 20 
2.1
 11 
2.6
 21 
1.6
 0 
LINE
 8 
0
 62 
 7 
 10 
2.6
 20 
0.0
 11 
0.0
 21 
0.0
 0 
LINE
 8 
0
 62 
 7 
 10 
0.0
 20 
0.0
 11 
0.0
 21 
2.1
 0 
LINE
 8 
0
 62 
 7 
 10 
2.6
 20 
1.6
 11 
2.7
 21 
1.5
 0 
LINE
 8 
0
 62 
 7 
 10 
2.7
 20 
1.5
 11 
2.7
 21 
0.2
 0 
LINE
 8 
0
 62 
 7 
 10 
2.6
 20 
0.1
 11 
2.6
 21 
0.0
 0 
LINE
 8 
0
 62 
 7 
 10 
2.7
 20 
0.2
 11 
2.6
 21 
0.1
 0 
CIRCLE
 8 
0
 62 
 7 
 10 
2.6
 20 
1.4
 40 
0.075
 0 
CIRCLE
 8 
0
 62 
 7 
 10 
2.6
 20 
1.4
 40 
0.062
 0 
CIRCLE
 8 
0
 62 
 7 
 10 
2.6
 20 
0.3
 40 
0.075
 0 
CIRCLE
 8 
0
 62 
 7 
 10 
2.6
 20 
0.3
 40 
0.062
 0 
CIRCLE
 8 
0
 62 
 7 
 10 
0.6
 20 
2.0
 40 
0.075
 0 
CIRCLE
 8 
0
 62 
 7 
 10 
0.6
 20 
2.0
 40 
0.062
 0 
LINE
 8 
0
 62 
 7 
 10 
1.268
 20 
0.132
 11 
1.333
 21 
0.132
 0 
LINE
 8 
0
 62 
 7 
 10 
1.333
 20 
0.132
 11 
1.333
 21 
0.067
 0 
LINE
 8 
0
 62 
 7 
 10 
1.333
 20 
0.067
 11 
1.268
 21 
0.067
 0 
LINE
 8 
0
 62 
 7 
 10 
1.268
 20 
0.067
 11 
1.268
 21 
0.132
 0 
CIRCLE
 8 
0
 62 
 7 
 10 
1.3
 20 
0.1
 40 
0.018
 0 
CIRCLE
 8 
0
 62 
 7 
 10 
1.4
 20 
0.1
 40 
0.032
 0 
CIRCLE
 8 
0
 62 
 7 
 10 
1.4
 20 
0.1
 40 
0.018
 0 
CIRCLE
 8 
0
 62 
 7 
 10 
1.6
 20 
0.1
 40 
0.032
 0 
CIRCLE
 8 
0
 62 
 7 
 10 
1.6
 20 
0.1
 40 
0.018
 0 
CIRCLE
 8 
0
 62 
 7 
 10 
1.5
 20 
0.1
 40 
0.032
 0 
CIRCLE
 8 
0
 62 
 7 
 10 
1.5
 20 
0.1
 40 
0.018
 0 
CIRCLE
 8 
0
 62 
 7 
 10 
1.7
 20 
0.1
 40 
0.032
 0 
CIRCLE
 8 
0
 62 
 7 
 10 
1.7
 20 
0.1
 40 
0.018
 0 
CIRCLE
 8 
0
 62 
 7 
 10 
1.8
 20 
0.1
 40 
0.032
 0 
CIRCLE
 8 
0
 62 
 7 
 10 
1.8
 20 
0.1
 40 
0.018
 0 
LINE
 8 
0
 62 
 7 
 10 
1.225
 20 
0.05
 11 
1.225
 21 
0.15
 0 
LINE
 8 
0
 62 
 7 
 10 
1.85
 20 
0.15
 11 
1.225
 21 
0.15
 0 
LINE
 8 
0
 62 
 7 
 10 
1.85
 20 
0.15
 11 
1.85
 21 
0.05
 0 
LINE
 8 
0
 62 
 7 
 10 
1.225
 20 
0.05
 11 
1.85
 21 
0.05
 0 
LINE
 8 
0
 62 
 7 
 10 
1.181
 20 
0.225
 11 
1.2
 21 
0.225
 0 
LINE
 8 
0
 62 
 7 
 10 
1.2
 20 
0.225
 11 
1.2
 21 
0.193
 0 
LINE
 8 
0
 62 
 7 
 10 
1.2
 20 
0.193
 11 
1.194
 21 
0.187
 0 
LINE
 8 
0
 62 
 7 
 10 
1.194
 20 
0.187
 11 
1.181
 21 
0.187
 0 
LINE
 8 
0
 62 
 7 
 10 
1.181
 20 
0.187
 11 
1.175
 21 
0.193
 0 
LINE
 8 
0
 62 
 7 
 10 
1.238
 20 
0.2
 11 
1.213
 21 
0.2
 0 
LINE
 8 
0
 62 
 7 
 10 
1.213
 20 
0.2
 11 
1.213
 21 
0.206
 0 
LINE
 8 
0
 62 
 7 
 10 
1.213
 20 
0.206
 11 
1.232
 21 
0.225
 0 
LINE
 8 
0
 62 
 7 
 10 
1.232
 20 
0.225
 11 
1.232
 21 
0.187
 0 
LINE
 8 
0
 62 
 7 
 10 
2.444
 20 
2.032
 11 
2.509
 21 
2.032
 0 
LINE
 8 
0
 62 
 7 
 10 
2.509
 20 
2.032
 11 
2.509
 21 
1.967
 0 
LINE
 8 
0
 62 
 7 
 10 
2.509
 20 
1.967
 11 
2.444
 21 
1.967
 0 
LINE
 8 
0
 62 
 7 
 10 
2.444
 20 
1.967
 11 
2.444
 21 
2.032
 0 
CIRCLE
 8 
0
 62 
 7 
 10 
2.476
 20 
2.0
 40 
0.018
 0 
LINE
 8 
0
 62 
 7 
 10 
1.968
 20 
0.132
 11 
2.033
 21 
0.132
 0 
LINE
 8 
0
 62 
 7 
 10 
2.033
 20 
0.132
 11 
2.033
 21 
0.067
 0 
LINE
 8 
0
 62 
 7 
 10 
2.033
 20 
0.067
 11 
1.968
 21 
0.067
 0 
LINE
 8 
0
 62 
 7 
 10 
1.968
 20 
0.067
 11 
1.968
 21 
0.132
 0 
CIRCLE
 8 
0
 62 
 7 
 10 
2.0
 20 
0.1
 40 
0.018
 0 
CIRCLE
 8 
0
 62 
 7 
 10 
2.1
 20 
0.1
 40 
0.032
 0 
CIRCLE
 8 
0
 62 
 7 
 10 
2.1
 20 
0.1
 40 
0.018
 0 
CIRCLE
 8 
0
 62 
 7 
 10 
2.3
 20 
0.1
 40 
0.032
 0 
CIRCLE
 8 
0
 62 
 7 
 10 
2.3
 20 
0.1
 40 
0.018
 0 
CIRCLE
 8 
0
 62 
 7 
 10 
2.2
 20 
0.1
 40 
0.032
 0 
CIRCLE
 8 
0
 62 
 7 
 10 
2.2
 20 
0.1
 40 
0.018
 0 
LINE
 8 
0
 62 
 7 
 10 
1.925
 20 
0.05
 11 
1.925
 21 
0.15
 0 
LINE
 8 
0
 62 
 7 
 10 
2.55
 20 
0.15
 11 
1.925
 21 
0.15
 0 
LINE
 8 
0
 62 
 7 
 10 
2.55
 20 
0.15
 11 
2.55
 21 
0.05
 0 
LINE
 8 
0
 62 
 7 
 10 
1.925
 20 
0.05
 11 
2.55
 21 
0.05
 0 
CIRCLE
 8 
0
 62 
 7 
 10 
2.4
 20 
0.1
 40 
0.032
 0 
CIRCLE
 8 
0
 62 
 7 
 10 
2.4
 20 
0.1
 40 
0.018
 0 
CIRCLE
 8 
0
 62 
 7 
 10 
2.5
 20 
0.1
 40 
0.032
 0 
CIRCLE
 8 
0
 62 
 7 
 10 
2.5
 20 
0.1
 40 
0.018
 0 
LINE
 8 
0
 62 
 7 
 10 
1.906
 20 
0.3
 11 
1.925
 21 
0.3
 0 
LINE
 8 
0
 62 
 7 
 10 
1.925
 20 
0.3
 11 
1.925
 21 
0.268
 0 
LINE
 8 
0
 62 
 7 
 10 
1.925
 20 
0.268
 11 
1.919
 21 
0.262
 0 
LINE
 8 
0
 62 
 7 
 10 
1.919
 20 
0.262
 11 
1.906
 21 
0.262
 0 
LINE
 8 
0
 62 
 7 
 10 
1.906
 20 
0.262
 11 
1.9
 21 
0.268
 0 
LINE
 8 
0
 62 
 7 
 10 
1.938
 20 
0.294
 11 
1.944
 21 
0.3
 0 
LINE
 8 
0
 62 
 7 
 10 
1.944
 20 
0.3
 11 
1.957
 21 
0.3
 0 
LINE
 8 
0
 62 
 7 
 10 
1.957
 20 
0.3
 11 
1.963
 21 
0.294
 0 
LINE
 8 
0
 62 
 7 
 10 
1.963
 20 
0.294
 11 
1.963
 21 
0.287
 0 
LINE
 8 
0
 62 
 7 
 10 
1.963
 20 
0.287
 11 
1.957
 21 
0.281
 0 
LINE
 8 
0
 62 
 7 
 10 
1.957
 20 
0.281
 11 
1.951
 21 
0.281
 0 
LINE
 8 
0
 62 
 7 
 10 
1.957
 20 
0.281
 11 
1.963
 21 
0.275
 0 
LINE
 8 
0
 62 
 7 
 10 
1.963
 20 
0.275
 11 
1.963
 21 
0.268
 0 
LINE
 8 
0
 62 
 7 
 10 
1.963
 20 
0.268
 11 
1.957
 21 
0.262
 0 
LINE
 8 
0
 62 
 7 
 10 
1.957
 20 
0.262
 11 
1.944
 21 
0.262
 0 
LINE
 8 
0
 62 
 7 
 10 
1.944
 20 
0.262
 11 
1.938
 21 
0.268
 0 
CIRCLE
 8 
0
 62 
 7 
 10 
2.376
 20 
2.0
 40 
0.032
 0 
CIRCLE
 8 
0
 62 
 7 
 10 
2.376
 20 
2.0
 40 
0.018
 0 
CIRCLE
 8 
0
 62 
 7 
 10 
2.176
 20 
2.0
 40 
0.032
 0 
CIRCLE
 8 
0
 62 
 7 
 10 
2.176
 20 
2.0
 40 
0.018
 0 
CIRCLE
 8 
0
 62 
 7 
 10 
2.276
 20 
2.0
 40 
0.032
 0 
CIRCLE
 8 
0
 62 
 7 
 10 
2.276
 20 
2.0
 40 
0.018
 0 
LINE
 8 
0
 62 
 7 
 10 
2.551
 20 
2.05
 11 
2.551
 21 
1.95
 0 
LINE
 8 
0
 62 
 7 
 10 
1.726
 20 
1.95
 11 
2.551
 21 
1.95
 0 
LINE
 8 
0
 62 
 7 
 10 
1.726
 20 
1.95
 11 
1.726
 21 
2.05
 0 
LINE
 8 
0
 62 
 7 
 10 
2.551
 20 
2.05
 11 
1.726
 21 
2.05
 0 
CIRCLE
 8 
0
 62 
 7 
 10 
2.076
 20 
2.0
 40 
0.032
 0 
CIRCLE
 8 
0
 62 
 7 
 10 
2.076
 20 
2.0
 40 
0.018
 0 
CIRCLE
 8 
0
 62 
 7 
 10 
1.976
 20 
2.0
 40 
0.032
 0 
CIRCLE
 8 
0
 62 
 7 
 10 
1.976
 20 
2.0
 40 
0.018
 0 
CIRCLE
 8 
0
 62 
 7 
 10 
1.876
 20 
2.0
 40 
0.032
 0 
CIRCLE
 8 
0
 62 
 7 
 10 
1.876
 20 
2.0
 40 
0.018
 0 
CIRCLE
 8 
0
 62 
 7 
 10 
1.776
 20 
2.0
 40 
0.032
 0 
CIRCLE
 8 
0
 62 
 7 
 10 
1.776
 20 
2.0
 40 
0.018
 0 
LINE
 8 
0
 62 
 7 
 10 
2.506
 20 
1.9
 11 
2.525
 21 
1.9
 0 
LINE
 8 
0
 62 
 7 
 10 
2.525
 20 
1.9
 11 
2.525
 21 
1.868
 0 
LINE
 8 
0
 62 
 7 
 10 
2.525
 20 
1.868
 11 
2.519
 21 
1.862
 0 
LINE
 8 
0
 62 
 7 
 10 
2.519
 20 
1.862
 11 
2.506
 21 
1.862
 0 
LINE
 8 
0
 62 
 7 
 10 
2.506
 20 
1.862
 11 
2.5
 21 
1.868
 0 
LINE
 8 
0
 62 
 7 
 10 
2.544
 20 
1.894
 11 
2.551
 21 
1.9
 0 
LINE
 8 
0
 62 
 7 
 10 
2.551
 20 
1.9
 11 
2.551
 21 
1.862
 0 
LINE
 8 
0
 62 
 7 
 10 
2.544
 20 
1.862
 11 
2.557
 21 
1.862
 0 
LINE
 8 
0
 62 
 7 
 10 
1.592
 20 
2.032
 11 
1.657
 21 
2.032
 0 
LINE
 8 
0
 62 
 7 
 10 
1.657
 20 
2.032
 11 
1.657
 21 
1.967
 0 
LINE
 8 
0
 62 
 7 
 10 
1.657
 20 
1.967
 11 
1.592
 21 
1.967
 0 
LINE
 8 
0
 62 
 7 
 10 
1.592
 20 
1.967
 11 
1.592
 21 
2.032
 0 
CIRCLE
 8 
0
 62 
 7 
 10 
1.625
 20 
2.0
 40 
0.018
 0 
CIRCLE
 8 
0
 62 
 7 
 10 
1.525
 20 
2.0
 40 
0.032
 0 
CIRCLE
 8 
0
 62 
 7 
 10 
1.525
 20 
2.0
 40 
0.018
 0 
CIRCLE
 8 
0
 62 
 7 
 10 
1.325
 20 
2.0
 40 
0.032
 0 
CIRCLE
 8 
0
 62 
 7 
 10 
1.325
 20 
2.0
 40 
0.018
 0 
CIRCLE
 8 
0
 62 
 7 
 10 
1.425
 20 
2.0
 40 
0.032
 0 
CIRCLE
 8 
0
 62 
 7 
 10 
1.425
 20 
2.0
 40 
0.018
 0 
CIRCLE
 8 
0
 62 
 7 
 10 
1.225
 20 
2.0
 40 
0.032
 0 
CIRCLE
 8 
0
 62 
 7 
 10 
1.225
 20 
2.0
 40 
0.018
 0 
CIRCLE
 8 
0
 62 
 7 
 10 
1.125
 20 
2.0
 40 
0.032
 0 
CIRCLE
 8 
0
 62 
 7 
 10 
1.125
 20 
2.0
 40 
0.018
 0 
CIRCLE
 8 
0
 62 
 7 
 10 
1.025
 20 
2.0
 40 
0.032
 0 
CIRCLE
 8 
0
 62 
 7 
 10 
1.025
 20 
2.0
 40 
0.018
 0 
CIRCLE
 8 
0
 62 
 7 
 10 
0.925
 20 
2.0
 40 
0.032
 0 
CIRCLE
 8 
0
 62 
 7 
 10 
0.925
 20 
2.0
 40 
0.018
 0 
LINE
 8 
0
 62 
 7 
 10 
1.7
 20 
2.05
 11 
1.7
 21 
1.95
 0 
LINE
 8 
0
 62 
 7 
 10 
0.875
 20 
1.95
 11 
1.7
 21 
1.95
 0 
LINE
 8 
0
 62 
 7 
 10 
0.875
 20 
1.95
 11 
0.875
 21 
2.05
 0 
LINE
 8 
0
 62 
 7 
 10 
1.7
 20 
2.05
 11 
0.875
 21 
2.05
 0 
LINE
 8 
0
 62 
 7 
 10 
1.606
 20 
1.85
 11 
1.625
 21 
1.85
 0 
LINE
 8 
0
 62 
 7 
 10 
1.625
 20 
1.85
 11 
1.625
 21 
1.818
 0 
LINE
 8 
0
 62 
 7 
 10 
1.625
 20 
1.818
 11 
1.619
 21 
1.812
 0 
LINE
 8 
0
 62 
 7 
 10 
1.619
 20 
1.812
 11 
1.606
 21 
1.812
 0 
LINE
 8 
0
 62 
 7 
 10 
1.606
 20 
1.812
 11 
1.6
 21 
1.818
 0 
LINE
 8 
0
 62 
 7 
 10 
1.638
 20 
1.844
 11 
1.644
 21 
1.85
 0 
LINE
 8 
0
 62 
 7 
 10 
1.644
 20 
1.85
 11 
1.657
 21 
1.85
 0 
LINE
 8 
0
 62 
 7 
 10 
1.657
 20 
1.85
 11 
1.663
 21 
1.844
 0 
LINE
 8 
0
 62 
 7 
 10 
1.663
 20 
1.844
 11 
1.663
 21 
1.837
 0 
LINE
 8 
0
 62 
 7 
 10 
1.663
 20 
1.837
 11 
1.657
 21 
1.831
 0 
LINE
 8 
0
 62 
 7 
 10 
1.657
 20 
1.831
 11 
1.644
 21 
1.831
 0 
LINE
 8 
0
 62 
 7 
 10 
1.644
 20 
1.831
 11 
1.638
 21 
1.825
 0 
LINE
 8 
0
 62 
 7 
 10 
1.638
 20 
1.825
 11 
1.638
 21 
1.812
 0 
LINE
 8 
0
 62 
 7 
 10 
1.638
 20 
1.812
 11 
1.663
 21 
1.812
 0 
LINE
 8 
0
 62 
 7 
 10 
1.11
 20 
1.915
 11 
1.12
 21 
1.925
 0 
LINE
 8 
0
 62 
 7 
 10 
1.12
 20 
1.925
 11 
1.12
 21 
1.865
 0 
LINE
 8 
0
 62 
 7 
 10 
1.11
 20 
1.865
 11 
1.13
 21 
1.865
 0 
LINE
 8 
0
 62 
 7 
 10 
0.96
 20 
1.7
 11 
0.92
 21 
1.7
 0 
LINE
 8 
0
 62 
 7 
 10 
0.92
 20 
1.7
 11 
0.9
 21 
1.72
 0 
LINE
 8 
0
 62 
 7 
 10 
0.9
 20 
1.72
 11 
0.92
 21 
1.74
 0 
LINE
 8 
0
 62 
 7 
 10 
0.92
 20 
1.74
 11 
0.96
 21 
1.74
 0 
LINE
 8 
0
 62 
 7 
 10 
0.94
 20 
1.7
 11 
0.94
 21 
1.74
 0 
LINE
 8 
0
 62 
 7 
 10 
0.96
 20 
1.76
 11 
0.9
 21 
1.76
 0 
LINE
 8 
0
 62 
 7 
 10 
0.9
 20 
1.76
 11 
0.9
 21 
1.79
 0 
LINE
 8 
0
 62 
 7 
 10 
0.9
 20 
1.79
 11 
0.91
 21 
1.8
 0 
LINE
 8 
0
 62 
 7 
 10 
0.91
 20 
1.8
 11 
0.92
 21 
1.8
 0 
LINE
 8 
0
 62 
 7 
 10 
0.92
 20 
1.8
 11 
0.93
 21 
1.79
 0 
LINE
 8 
0
 62 
 7 
 10 
0.93
 20 
1.79
 11 
0.93
 21 
1.76
 0 
LINE
 8 
0
 62 
 7 
 10 
0.93
 20 
1.77
 11 
0.96
 21 
1.8
 0 
LINE
 8 
0
 62 
 7 
 10 
0.9
 20 
1.86
 11 
0.9
 21 
1.82
 0 
LINE
 8 
0
 62 
 7 
 10 
0.9
 20 
1.82
 11 
0.96
 21 
1.82
 0 
LINE
 8 
0
 62 
 7 
 10 
0.96
 20 
1.82
 11 
0.96
 21 
1.86
 0 
LINE
 8 
0
 62 
 7 
 10 
0.93
 20 
1.82
 11 
0.93
 21 
1.85
 0 
LINE
 8 
0
 62 
 7 
 10 
0.9
 20 
1.92
 11 
0.9
 21 
1.88
 0 
LINE
 8 
0
 62 
 7 
 10 
0.9
 20 
1.88
 11 
0.96
 21 
1.88
 0 
LINE
 8 
0
 62 
 7 
 10 
0.93
 20 
1.88
 11 
0.93
 21 
1.91
 0 
LINE
 8 
0
 62 
 7 
 10 
1.01
 20 
1.79
 11 
1.0
 21 
1.78
 0 
LINE
 8 
0
 62 
 7 
 10 
1.0
 20 
1.78
 11 
1.0
 21 
1.76
 0 
LINE
 8 
0
 62 
 7 
 10 
1.0
 20 
1.76
 11 
1.01
 21 
1.75
 0 
LINE
 8 
0
 62 
 7 
 10 
1.01
 20 
1.75
 11 
1.05
 21 
1.75
 0 
LINE
 8 
0
 62 
 7 
 10 
1.05
 20 
1.75
 11 
1.06
 21 
1.76
 0 
LINE
 8 
0
 62 
 7 
 10 
1.06
 20 
1.76
 11 
1.06
 21 
1.79
 0 
LINE
 8 
0
 62 
 7 
 10 
1.06
 20 
1.79
 11 
1.04
 21 
1.79
 0 
LINE
 8 
0
 62 
 7 
 10 
1.04
 20 
1.79
 11 
1.04
 21 
1.78
 0 
LINE
 8 
0
 62 
 7 
 10 
1.06
 20 
1.81
 11 
1.0
 21 
1.81
 0 
LINE
 8 
0
 62 
 7 
 10 
1.0
 20 
1.81
 11 
1.04
 21 
1.85
 0 
LINE
 8 
0
 62 
 7 
 10 
1.0
 20 
1.85
 11 
1.06
 21 
1.85
 0 
LINE
 8 
0
 62 
 7 
 10 
1.0
 20 
1.87
 11 
1.0
 21 
1.9
 0 
LINE
 8 
0
 62 
 7 
 10 
1.0
 20 
1.9
 11 
1.01
 21 
1.91
 0 
LINE
 8 
0
 62 
 7 
 10 
1.01
 20 
1.91
 11 
1.05
 21 
1.91
 0 
LINE
 8 
0
 62 
 7 
 10 
1.05
 20 
1.91
 11 
1.06
 21 
1.9
 0 
LINE
 8 
0
 62 
 7 
 10 
1.06
 20 
1.9
 11 
1.06
 21 
1.87
 0 
LINE
 8 
0
 62 
 7 
 10 
1.0
 20 
1.88
 11 
1.06
 21 
1.88
 0 
LINE
 8 
0
 62 
 7 
 10 
1.21
 20 
1.915
 11 
1.22
 21 
1.925
 0 
LINE
 8 
0
 62 
 7 
 10 
1.22
 20 
1.925
 11 
1.22
 21 
1.865
 0 
LINE
 8 
0
 62 
 7 
 10 
1.21
 20 
1.865
 11 
1.23
 21 
1.865
 0 
LINE
 8 
0
 62 
 7 
 10 
1.31
 20 
1.915
 11 
1.32
 21 
1.925
 0 
LINE
 8 
0
 62 
 7 
 10 
1.32
 20 
1.925
 11 
1.32
 21 
1.865
 0 
LINE
 8 
0
 62 
 7 
 10 
1.31
 20 
1.865
 11 
1.33
 21 
1.865
 0 
LINE
 8 
0
 62 
 7 
 10 
1.41
 20 
1.915
 11 
1.42
 21 
1.925
 0 
LINE
 8 
0
 62 
 7 
 10 
1.42
 20 
1.925
 11 
1.42
 21 
1.865
 0 
LINE
 8 
0
 62 
 7 
 10 
1.41
 20 
1.865
 11 
1.43
 21 
1.865
 0 
LINE
 8 
0
 62 
 7 
 10 
1.31
 20 
1.815
 11 
1.32
 21 
1.825
 0 
LINE
 8 
0
 62 
 7 
 10 
1.32
 20 
1.825
 11 
1.32
 21 
1.765
 0 
LINE
 8 
0
 62 
 7 
 10 
1.31
 20 
1.765
 11 
1.33
 21 
1.765
 0 
LINE
 8 
0
 62 
 7 
 10 
1.1
 20 
1.815
 11 
1.11
 21 
1.825
 0 
LINE
 8 
0
 62 
 7 
 10 
1.11
 20 
1.825
 11 
1.13
 21 
1.825
 0 
LINE
 8 
0
 62 
 7 
 10 
1.13
 20 
1.825
 11 
1.14
 21 
1.815
 0 
LINE
 8 
0
 62 
 7 
 10 
1.14
 20 
1.815
 11 
1.14
 21 
1.805
 0 
LINE
 8 
0
 62 
 7 
 10 
1.14
 20 
1.805
 11 
1.13
 21 
1.795
 0 
LINE
 8 
0
 62 
 7 
 10 
1.13
 20 
1.795
 11 
1.12
 21 
1.795
 0 
LINE
 8 
0
 62 
 7 
 10 
1.13
 20 
1.795
 11 
1.14
 21 
1.785
 0 
LINE
 8 
0
 62 
 7 
 10 
1.14
 20 
1.785
 11 
1.14
 21 
1.775
 0 
LINE
 8 
0
 62 
 7 
 10 
1.14
 20 
1.775
 11 
1.13
 21 
1.765
 0 
LINE
 8 
0
 62 
 7 
 10 
1.13
 20 
1.765
 11 
1.11
 21 
1.765
 0 
LINE
 8 
0
 62 
 7 
 10 
1.11
 20 
1.765
 11 
1.1
 21 
1.775
 0 
LINE
 8 
0
 62 
 7 
 10 
1.2
 20 
1.815
 11 
1.21
 21 
1.825
 0 
LINE
 8 
0
 62 
 7 
 10 
1.21
 20 
1.825
 11 
1.23
 21 
1.825
 0 
LINE
 8 
0
 62 
 7 
 10 
1.23
 20 
1.825
 11 
1.24
 21 
1.815
 0 
LINE
 8 
0
 62 
 7 
 10 
1.24
 20 
1.815
 11 
1.24
 21 
1.805
 0 
LINE
 8 
0
 62 
 7 
 10 
1.24
 20 
1.805
 11 
1.23
 21 
1.795
 0 
LINE
 8 
0
 62 
 7 
 10 
1.23
 20 
1.795
 11 
1.21
 21 
1.795
 0 
LINE
 8 
0
 62 
 7 
 10 
1.21
 20 
1.795
 11 
1.2
 21 
1.785
 0 
LINE
 8 
0
 62 
 7 
 10 
1.2
 20 
1.785
 11 
1.2
 21 
1.765
 0 
LINE
 8 
0
 62 
 7 
 10 
1.2
 20 
1.765
 11 
1.24
 21 
1.765
 0 
LINE
 8 
0
 62 
 7 
 10 
1.4
 20 
1.775
 11 
1.4
 21 
1.815
 0 
LINE
 8 
0
 62 
 7 
 10 
1.4
 20 
1.815
 11 
1.41
 21 
1.825
 0 
LINE
 8 
0
 62 
 7 
 10 
1.41
 20 
1.825
 11 
1.43
 21 
1.825
 0 
LINE
 8 
0
 62 
 7 
 10 
1.43
 20 
1.825
 11 
1.44
 21 
1.815
 0 
LINE
 8 
0
 62 
 7 
 10 
1.44
 20 
1.815
 11 
1.44
 21 
1.775
 0 
LINE
 8 
0
 62 
 7 
 10 
1.44
 20 
1.775
 11 
1.43
 21 
1.765
 0 
LINE
 8 
0
 62 
 7 
 10 
1.43
 20 
1.765
 11 
1.41
 21 
1.765
 0 
LINE
 8 
0
 62 
 7 
 10 
1.41
 20 
1.765
 11 
1.4
 21 
1.775
 0 
LINE
 8 
0
 62 
 7 
 10 
1.4
 20 
1.775
 11 
1.44
 21 
1.815
 0 
LINE
 8 
0
 62 
 7 
 10 
1.54
 20 
1.905
 11 
1.53
 21 
1.895
 0 
LINE
 8 
0
 62 
 7 
 10 
1.53
 20 
1.895
 11 
1.51
 21 
1.895
 0 
LINE
 8 
0
 62 
 7 
 10 
1.51
 20 
1.895
 11 
1.5
 21 
1.905
 0 
LINE
 8 
0
 62 
 7 
 10 
1.5
 20 
1.905
 11 
1.5
 21 
1.915
 0 
LINE
 8 
0
 62 
 7 
 10 
1.5
 20 
1.915
 11 
1.51
 21 
1.925
 0 
LINE
 8 
0
 62 
 7 
 10 
1.51
 20 
1.925
 11 
1.53
 21 
1.925
 0 
LINE
 8 
0
 62 
 7 
 10 
1.53
 20 
1.925
 11 
1.54
 21 
1.915
 0 
LINE
 8 
0
 62 
 7 
 10 
1.54
 20 
1.915
 11 
1.54
 21 
1.885
 0 
LINE
 8 
0
 62 
 7 
 10 
1.54
 20 
1.885
 11 
1.52
 21 
1.865
 0 
LINE
 8 
0
 62 
 7 
 10 
1.52
 20 
1.865
 11 
1.51
 21 
1.865
 0 
LINE
 8 
0
 62 
 7 
 10 
1.61
 20 
1.895
 11 
1.6
 21 
1.905
 0 
LINE
 8 
0
 62 
 7 
 10 
1.6
 20 
1.905
 11 
1.6
 21 
1.915
 0 
LINE
 8 
0
 62 
 7 
 10 
1.6
 20 
1.915
 11 
1.61
 21 
1.925
 0 
LINE
 8 
0
 62 
 7 
 10 
1.61
 20 
1.925
 11 
1.63
 21 
1.925
 0 
LINE
 8 
0
 62 
 7 
 10 
1.63
 20 
1.925
 11 
1.64
 21 
1.915
 0 
LINE
 8 
0
 62 
 7 
 10 
1.64
 20 
1.915
 11 
1.64
 21 
1.905
 0 
LINE
 8 
0
 62 
 7 
 10 
1.64
 20 
1.905
 11 
1.63
 21 
1.895
 0 
LINE
 8 
0
 62 
 7 
 10 
1.63
 20 
1.895
 11 
1.61
 21 
1.895
 0 
LINE
 8 
0
 62 
 7 
 10 
1.61
 20 
1.895
 11 
1.6
 21 
1.885
 0 
LINE
 8 
0
 62 
 7 
 10 
1.6
 20 
1.885
 11 
1.6
 21 
1.875
 0 
LINE
 8 
0
 62 
 7 
 10 
1.6
 20 
1.875
 11 
1.61
 21 
1.865
 0 
LINE
 8 
0
 62 
 7 
 10 
1.61
 20 
1.865
 11 
1.63
 21 
1.865
 0 
LINE
 8 
0
 62 
 7 
 10 
1.63
 20 
1.865
 11 
1.64
 21 
1.875
 0 
LINE
 8 
0
 62 
 7 
 10 
1.64
 20 
1.875
 11 
1.64
 21 
1.885
 0 
LINE
 8 
0
 62 
 7 
 10 
1.64
 20 
1.885
 11 
1.63
 21 
1.895
 0 
LINE
 8 
0
 62 
 7 
 10 
1.75
 20 
1.915
 11 
1.75
 21 
1.925
 0 
LINE
 8 
0
 62 
 7 
 10 
1.75
 20 
1.925
 11 
1.79
 21 
1.925
 0 
LINE
 8 
0
 62 
 7 
 10 
1.79
 20 
1.925
 11 
1.79
 21 
1.915
 0 
LINE
 8 
0
 62 
 7 
 10 
1.79
 20 
1.915
 11 
1.76
 21 
1.885
 0 
LINE
 8 
0
 62 
 7 
 10 
1.76
 20 
1.885
 11 
1.76
 21 
1.865
 0 
LINE
 8 
0
 62 
 7 
 10 
1.88
 20 
1.925
 11 
1.87
 21 
1.925
 0 
LINE
 8 
0
 62 
 7 
 10 
1.87
 20 
1.925
 11 
1.85
 21 
1.905
 0 
LINE
 8 
0
 62 
 7 
 10 
1.85
 20 
1.905
 11 
1.85
 21 
1.875
 0 
LINE
 8 
0
 62 
 7 
 10 
1.85
 20 
1.875
 11 
1.86
 21 
1.865
 0 
LINE
 8 
0
 62 
 7 
 10 
1.86
 20 
1.865
 11 
1.88
 21 
1.865
 0 
LINE
 8 
0
 62 
 7 
 10 
1.88
 20 
1.865
 11 
1.89
 21 
1.875
 0 
LINE
 8 
0
 62 
 7 
 10 
1.89
 20 
1.875
 11 
1.89
 21 
1.885
 0 
LINE
 8 
0
 62 
 7 
 10 
1.89
 20 
1.885
 11 
1.88
 21 
1.895
 0 
LINE
 8 
0
 62 
 7 
 10 
1.88
 20 
1.895
 11 
1.86
 21 
1.895
 0 
LINE
 8 
0
 62 
 7 
 10 
1.86
 20 
1.895
 11 
1.85
 21 
1.885
 0 
LINE
 8 
0
 62 
 7 
 10 
1.99
 20 
1.925
 11 
1.95
 21 
1.925
 0 
LINE
 8 
0
 62 
 7 
 10 
1.95
 20 
1.925
 11 
1.95
 21 
1.905
 0 
LINE
 8 
0
 62 
 7 
 10 
1.95
 20 
1.905
 11 
1.98
 21 
1.905
 0 
LINE
 8 
0
 62 
 7 
 10 
1.98
 20 
1.905
 11 
1.99
 21 
1.895
 0 
LINE
 8 
0
 62 
 7 
 10 
1.99
 20 
1.895
 11 
1.99
 21 
1.875
 0 
LINE
 8 
0
 62 
 7 
 10 
1.99
 20 
1.875
 11 
1.98
 21 
1.865
 0 
LINE
 8 
0
 62 
 7 
 10 
1.98
 20 
1.865
 11 
1.96
 21 
1.865
 0 
LINE
 8 
0
 62 
 7 
 10 
1.96
 20 
1.865
 11 
1.95
 21 
1.875
 0 
LINE
 8 
0
 62 
 7 
 10 
2.09
 20 
1.885
 11 
2.05
 21 
1.885
 0 
LINE
 8 
0
 62 
 7 
 10 
2.05
 20 
1.885
 11 
2.05
 21 
1.895
 0 
LINE
 8 
0
 62 
 7 
 10 
2.05
 20 
1.895
 11 
2.08
 21 
1.925
 0 
LINE
 8 
0
 62 
 7 
 10 
2.08
 20 
1.925
 11 
2.08
 21 
1.865
 0 
LINE
 8 
0
 62 
 7 
 10 
2.15
 20 
1.915
 11 
2.16
 21 
1.925
 0 
LINE
 8 
0
 62 
 7 
 10 
2.16
 20 
1.925
 11 
2.18
 21 
1.925
 0 
LINE
 8 
0
 62 
 7 
 10 
2.18
 20 
1.925
 11 
2.19
 21 
1.915
 0 
LINE
 8 
0
 62 
 7 
 10 
2.19
 20 
1.915
 11 
2.19
 21 
1.905
 0 
LINE
 8 
0
 62 
 7 
 10 
2.19
 20 
1.905
 11 
2.18
 21 
1.895
 0 
LINE
 8 
0
 62 
 7 
 10 
2.18
 20 
1.895
 11 
2.17
 21 
1.895
 0 
LINE
 8 
0
 62 
 7 
 10 
2.18
 20 
1.895
 11 
2.19
 21 
1.885
 0 
LINE
 8 
0
 62 
 7 
 10 
2.19
 20 
1.885
 11 
2.19
 21 
1.875
 0 
LINE
 8 
0
 62 
 7 
 10 
2.19
 20 
1.875
 11 
2.18
 21 
1.865
 0 
LINE
 8 
0
 62 
 7 
 10 
2.18
 20 
1.865
 11 
2.16
 21 
1.865
 0 
LINE
 8 
0
 62 
 7 
 10 
2.16
 20 
1.865
 11 
2.15
 21 
1.875
 0 
LINE
 8 
0
 62 
 7 
 10 
2.25
 20 
1.915
 11 
2.26
 21 
1.925
 0 
LINE
 8 
0
 62 
 7 
 10 
2.26
 20 
1.925
 11 
2.28
 21 
1.925
 0 
LINE
 8 
0
 62 
 7 
 10 
2.28
 20 
1.925
 11 
2.29
 21 
1.915
 0 
LINE
 8 
0
 62 
 7 
 10 
2.29
 20 
1.915
 11 
2.29
 21 
1.905
 0 
LINE
 8 
0
 62 
 7 
 10 
2.29
 20 
1.905
 11 
2.28
 21 
1.895
 0 
LINE
 8 
0
 62 
 7 
 10 
2.28
 20 
1.895
 11 
2.26
 21 
1.895
 0 
LINE
 8 
0
 62 
 7 
 10 
2.26
 20 
1.895
 11 
2.25
 21 
1.885
 0 
LINE
 8 
0
 62 
 7 
 10 
2.25
 20 
1.885
 11 
2.25
 21 
1.865
 0 
LINE
 8 
0
 62 
 7 
 10 
2.25
 20 
1.865
 11 
2.29
 21 
1.865
 0 
LINE
 8 
0
 62 
 7 
 10 
2.36
 20 
1.915
 11 
2.37
 21 
1.925
 0 
LINE
 8 
0
 62 
 7 
 10 
2.37
 20 
1.925
 11 
2.37
 21 
1.865
 0 
LINE
 8 
0
 62 
 7 
 10 
2.36
 20 
1.865
 11 
2.38
 21 
1.865
 0 
LINE
 8 
0
 62 
 7 
 10 
2.45
 20 
1.875
 11 
2.45
 21 
1.915
 0 
LINE
 8 
0
 62 
 7 
 10 
2.45
 20 
1.915
 11 
2.46
 21 
1.925
 0 
LINE
 8 
0
 62 
 7 
 10 
2.46
 20 
1.925
 11 
2.48
 21 
1.925
 0 
LINE
 8 
0
 62 
 7 
 10 
2.48
 20 
1.925
 11 
2.49
 21 
1.915
 0 
LINE
 8 
0
 62 
 7 
 10 
2.49
 20 
1.915
 11 
2.49
 21 
1.875
 0 
LINE
 8 
0
 62 
 7 
 10 
2.49
 20 
1.875
 11 
2.48
 21 
1.865
 0 
LINE
 8 
0
 62 
 7 
 10 
2.48
 20 
1.865
 11 
2.46
 21 
1.865
 0 
LINE
 8 
0
 62 
 7 
 10 
2.46
 20 
1.865
 11 
2.45
 21 
1.875
 0 
LINE
 8 
0
 62 
 7 
 10 
2.45
 20 
1.875
 11 
2.49
 21 
1.915
 0 
LINE
 8 
0
 62 
 7 
 10 
1.975
 20 
0.2
 11 
1.975
 21 
0.24
 0 
LINE
 8 
0
 62 
 7 
 10 
1.975
 20 
0.24
 11 
1.985
 21 
0.25
 0 
LINE
 8 
0
 62 
 7 
 10 
1.985
 20 
0.25
 11 
2.005
 21 
0.25
 0 
LINE
 8 
0
 62 
 7 
 10 
2.005
 20 
0.25
 11 
2.015
 21 
0.24
 0 
LINE
 8 
0
 62 
 7 
 10 
2.015
 20 
0.24
 11 
2.015
 21 
0.2
 0 
LINE
 8 
0
 62 
 7 
 10 
2.015
 20 
0.2
 11 
2.005
 21 
0.19
 0 
LINE
 8 
0
 62 
 7 
 10 
2.005
 20 
0.19
 11 
1.985
 21 
0.19
 0 
LINE
 8 
0
 62 
 7 
 10 
1.985
 20 
0.19
 11 
1.975
 21 
0.2
 0 
LINE
 8 
0
 62 
 7 
 10 
1.975
 20 
0.2
 11 
2.015
 21 
0.24
 0 
LINE
 8 
0
 62 
 7 
 10 
0.142
 20 
1.142
 11 
0.125
 21 
1.125
 0 
LINE
 8 
0
 62 
 7 
 10 
0.125
 20 
1.125
 11 
0.125
 21 
1.092
 0 
LINE
 8 
0
 62 
 7 
 10 
0.125
 20 
1.092
 11 
0.142
 21 
1.075
 0 
LINE
 8 
0
 62 
 7 
 10 
0.142
 20 
1.075
 11 
0.208
 21 
1.075
 0 
LINE
 8 
0
 62 
 7 
 10 
0.208
 20 
1.075
 11 
0.225
 21 
1.092
 0 
LINE
 8 
0
 62 
 7 
 10 
0.225
 20 
1.092
 11 
0.225
 21 
1.125
 0 
LINE
 8 
0
 62 
 7 
 10 
0.225
 20 
1.125
 11 
0.208
 21 
1.142
 0 
LINE
 8 
0
 62 
 7 
 10 
0.208
 20 
1.142
 11 
0.142
 21 
1.142
 0 
LINE
 8 
0
 62 
 7 
 10 
0.175
 20 
1.242
 11 
0.158
 21 
1.225
 0 
LINE
 8 
0
 62 
 7 
 10 
0.158
 20 
1.225
 11 
0.158
 21 
1.192
 0 
LINE
 8 
0
 62 
 7 
 10 
0.158
 20 
1.192
 11 
0.175
 21 
1.175
 0 
LINE
 8 
0
 62 
 7 
 10 
0.175
 20 
1.175
 11 
0.208
 21 
1.175
 0 
LINE
 8 
0
 62 
 7 
 10 
0.208
 20 
1.175
 11 
0.225
 21 
1.192
 0 
LINE
 8 
0
 62 
 7 
 10 
0.225
 20 
1.192
 11 
0.225
 21 
1.225
 0 
LINE
 8 
0
 62 
 7 
 10 
0.225
 20 
1.225
 11 
0.208
 21 
1.242
 0 
LINE
 8 
0
 62 
 7 
 10 
0.125
 20 
1.292
 11 
0.208
 21 
1.292
 0 
LINE
 8 
0
 62 
 7 
 10 
0.208
 20 
1.292
 11 
0.225
 21 
1.308
 0 
LINE
 8 
0
 62 
 7 
 10 
0.225
 20 
1.308
 11 
0.225
 21 
1.325
 0 
LINE
 8 
0
 62 
 7 
 10 
0.225
 20 
1.325
 11 
0.208
 21 
1.342
 0 
LINE
 8 
0
 62 
 7 
 10 
0.158
 20 
1.275
 11 
0.158
 21 
1.325
 0 
LINE
 8 
0
 62 
 7 
 10 
0.175
 20 
1.442
 11 
0.158
 21 
1.425
 0 
LINE
 8 
0
 62 
 7 
 10 
0.158
 20 
1.425
 11 
0.158
 21 
1.392
 0 
LINE
 8 
0
 62 
 7 
 10 
0.158
 20 
1.392
 11 
0.175
 21 
1.375
 0 
LINE
 8 
0
 62 
 7 
 10 
0.175
 20 
1.375
 11 
0.208
 21 
1.375
 0 
LINE
 8 
0
 62 
 7 
 10 
0.208
 20 
1.375
 11 
0.225
 21 
1.392
 0 
LINE
 8 
0
 62 
 7 
 10 
0.225
 20 
1.392
 11 
0.225
 21 
1.425
 0 
LINE
 8 
0
 62 
 7 
 10 
0.225
 20 
1.425
 11 
0.208
 21 
1.442
 0 
LINE
 8 
0
 62 
 7 
 10 
0.208
 20 
1.442
 11 
0.175
 21 
1.442
 0 
LINE
 8 
0
 62 
 7 
 10 
0.125
 20 
1.475
 11 
0.208
 21 
1.475
 0 
LINE
 8 
0
 62 
 7 
 10 
0.208
 20 
1.475
 11 
0.225
 21 
1.492
 0 
LINE
 8 
0
 62 
 7 
 10 
0.225
 20 
1.492
 11 
0.225
 21 
1.525
 0 
LINE
 8 
0
 62 
 7 
 10 
0.225
 20 
1.525
 11 
0.208
 21 
1.542
 0 
LINE
 8 
0
 62 
 7 
 10 
0.208
 20 
1.542
 11 
0.125
 21 
1.542
 0 
LINE
 8 
0
 62 
 7 
 10 
0.225
 20 
1.575
 11 
0.125
 21 
1.575
 0 
LINE
 8 
0
 62 
 7 
 10 
0.125
 20 
1.575
 11 
0.192
 21 
1.642
 0 
LINE
 8 
0
 62 
 7 
 10 
0.125
 20 
1.642
 11 
0.225
 21 
1.642
 0 
LINE
 8 
0
 62 
 7 
 10 
0.142
 20 
1.742
 11 
0.125
 21 
1.725
 0 
LINE
 8 
0
 62 
 7 
 10 
0.125
 20 
1.725
 11 
0.125
 21 
1.692
 0 
LINE
 8 
0
 62 
 7 
 10 
0.125
 20 
1.692
 11 
0.142
 21 
1.675
 0 
LINE
 8 
0
 62 
 7 
 10 
0.142
 20 
1.675
 11 
0.208
 21 
1.675
 0 
LINE
 8 
0
 62 
 7 
 10 
0.208
 20 
1.675
 11 
0.225
 21 
1.692
 0 
LINE
 8 
0
 62 
 7 
 10 
0.225
 20 
1.692
 11 
0.225
 21 
1.725
 0 
LINE
 8 
0
 62 
 7 
 10 
0.225
 20 
1.725
 11 
0.208
 21 
1.742
 0 
LINE
 8 
0
 62 
 7 
 10 
0.208
 20 
1.742
 11 
0.142
 21 
1.742
 0 
LINE
 8 
0
 62 
 7 
 10 
0.025
 20 
0.05
 11 
0.025
 21 
0.025
 0 
LINE
 8 
0
 62 
 7 
 10 
0.025
 20 
0.025
 11 
0.063
 21 
0.025
 0 
LINE
 8 
0
 62 
 7 
 10 
0.044
 20 
0.025
 11 
0.044
 21 
0.044
 0 
LINE
 8 
0
 62 
 7 
 10 
0.044
 20 
0.088
 11 
0.038
 21 
0.082
 0 
LINE
 8 
0
 62 
 7 
 10 
0.038
 20 
0.082
 11 
0.038
 21 
0.069
 0 
LINE
 8 
0
 62 
 7 
 10 
0.038
 20 
0.069
 11 
0.044
 21 
0.063
 0 
LINE
 8 
0
 62 
 7 
 10 
0.044
 20 
0.063
 11 
0.057
 21 
0.063
 0 
LINE
 8 
0
 62 
 7 
 10 
0.057
 20 
0.063
 11 
0.063
 21 
0.069
 0 
LINE
 8 
0
 62 
 7 
 10 
0.063
 20 
0.069
 11 
0.063
 21 
0.082
 0 
LINE
 8 
0
 62 
 7 
 10 
0.063
 20 
0.082
 11 
0.057
 21 
0.088
 0 
LINE
 8 
0
 62 
 7 
 10 
0.057
 20 
0.088
 11 
0.044
 21 
0.088
 0 
LINE
 8 
0
 62 
 7 
 10 
0.038
 20 
0.101
 11 
0.063
 21 
0.101
 0 
LINE
 8 
0
 62 
 7 
 10 
0.05
 20 
0.101
 11 
0.038
 21 
0.114
 0 
LINE
 8 
0
 62 
 7 
 10 
0.038
 20 
0.114
 11 
0.038
 21 
0.12
 0 
LINE
 8 
0
 62 
 7 
 10 
0.038
 20 
0.12
 11 
0.044
 21 
0.126
 0 
LINE
 8 
0
 62 
 7 
 10 
0.038
 20 
0.139
 11 
0.063
 21 
0.139
 0 
LINE
 8 
0
 62 
 7 
 10 
0.05
 20 
0.139
 11 
0.038
 21 
0.152
 0 
LINE
 8 
0
 62 
 7 
 10 
0.038
 20 
0.152
 11 
0.038
 21 
0.158
 0 
LINE
 8 
0
 62 
 7 
 10 
0.038
 20 
0.158
 11 
0.044
 21 
0.164
 0 
LINE
 8 
0
 62 
 7 
 10 
0.05
 20 
0.177
 11 
0.05
 21 
0.202
 0 
LINE
 8 
0
 62 
 7 
 10 
0.05
 20 
0.202
 11 
0.044
 21 
0.202
 0 
LINE
 8 
0
 62 
 7 
 10 
0.044
 20 
0.202
 11 
0.038
 21 
0.196
 0 
LINE
 8 
0
 62 
 7 
 10 
0.038
 20 
0.196
 11 
0.038
 21 
0.183
 0 
LINE
 8 
0
 62 
 7 
 10 
0.038
 20 
0.183
 11 
0.044
 21 
0.177
 0 
LINE
 8 
0
 62 
 7 
 10 
0.044
 20 
0.177
 11 
0.057
 21 
0.177
 0 
LINE
 8 
0
 62 
 7 
 10 
0.057
 20 
0.177
 11 
0.063
 21 
0.183
 0 
LINE
 8 
0
 62 
 7 
 10 
0.063
 20 
0.183
 11 
0.063
 21 
0.196
 0 
LINE
 8 
0
 62 
 7 
 10 
0.038
 20 
0.24
 11 
0.038
 21 
0.221
 0 
LINE
 8 
0
 62 
 7 
 10 
0.038
 20 
0.221
 11 
0.044
 21 
0.215
 0 
LINE
 8 
0
 62 
 7 
 10 
0.044
 20 
0.215
 11 
0.05
 21 
0.221
 0 
LINE
 8 
0
 62 
 7 
 10 
0.05
 20 
0.221
 11 
0.05
 21 
0.234
 0 
LINE
 8 
0
 62 
 7 
 10 
0.05
 20 
0.234
 11 
0.057
 21 
0.24
 0 
LINE
 8 
0
 62 
 7 
 10 
0.057
 20 
0.24
 11 
0.063
 21 
0.234
 0 
LINE
 8 
0
 62 
 7 
 10 
0.063
 20 
0.234
 11 
0.063
 21 
0.215
 0 
LINE
 8 
0
 62 
 7 
 10 
0.025
 20 
0.259
 11 
0.057
 21 
0.259
 0 
LINE
 8 
0
 62 
 7 
 10 
0.057
 20 
0.259
 11 
0.063
 21 
0.266
 0 
LINE
 8 
0
 62 
 7 
 10 
0.063
 20 
0.266
 11 
0.063
 21 
0.272
 0 
LINE
 8 
0
 62 
 7 
 10 
0.063
 20 
0.272
 11 
0.057
 21 
0.278
 0 
LINE
 8 
0
 62 
 7 
 10 
0.038
 20 
0.253
 11 
0.038
 21 
0.272
 0 
LINE
 8 
0
 62 
 7 
 10 
0.025
 20 
0.354
 11 
0.025
 21 
0.329
 0 
LINE
 8 
0
 62 
 7 
 10 
0.025
 20 
0.329
 11 
0.063
 21 
0.329
 0 
LINE
 8 
0
 62 
 7 
 10 
0.063
 20 
0.329
 11 
0.063
 21 
0.354
 0 
LINE
 8 
0
 62 
 7 
 10 
0.044
 20 
0.329
 11 
0.044
 21 
0.348
 0 
LINE
 8 
0
 62 
 7 
 10 
0.038
 20 
0.367
 11 
0.063
 21 
0.367
 0 
LINE
 8 
0
 62 
 7 
 10 
0.05
 20 
0.367
 11 
0.038
 21 
0.38
 0 
LINE
 8 
0
 62 
 7 
 10 
0.038
 20 
0.38
 11 
0.038
 21 
0.386
 0 
LINE
 8 
0
 62 
 7 
 10 
0.038
 20 
0.386
 11 
0.044
 21 
0.392
 0 
LINE
 8 
0
 62 
 7 
 10 
0.025
 20 
0.418
 11 
0.031
 21 
0.418
 0 
LINE
 8 
0
 62 
 7 
 10 
0.063
 20 
0.411
 11 
0.063
 21 
0.424
 0 
LINE
 8 
0
 62 
 7 
 10 
0.044
 20 
0.411
 11 
0.044
 21 
0.418
 0 
LINE
 8 
0
 62 
 7 
 10 
0.044
 20 
0.418
 11 
0.063
 21 
0.418
 0 
LINE
 8 
0
 62 
 7 
 10 
0.044
 20 
0.468
 11 
0.038
 21 
0.462
 0 
LINE
 8 
0
 62 
 7 
 10 
0.038
 20 
0.462
 11 
0.038
 21 
0.449
 0 
LINE
 8 
0
 62 
 7 
 10 
0.038
 20 
0.449
 11 
0.044
 21 
0.443
 0 
LINE
 8 
0
 62 
 7 
 10 
0.044
 20 
0.443
 11 
0.057
 21 
0.443
 0 
LINE
 8 
0
 62 
 7 
 10 
0.057
 20 
0.443
 11 
0.063
 21 
0.449
 0 
LINE
 8 
0
 62 
 7 
 10 
0.063
 20 
0.449
 11 
0.063
 21 
0.462
 0 
LINE
 8 
0
 62 
 7 
 10 
0.063
 20 
0.462
 11 
0.057
 21 
0.468
 0 
LINE
 8 
0
 62 
 7 
 10 
0.025
 20 
0.481
 11 
0.025
 21 
0.487
 0 
LINE
 8 
0
 62 
 7 
 10 
0.025
 20 
0.487
 11 
0.063
 21 
0.487
 0 
LINE
 8 
0
 62 
 7 
 10 
0.038
 20 
0.506
 11 
0.05
 21 
0.494
 0 
LINE
 8 
0
 62 
 7 
 10 
0.05
 20 
0.494
 11 
0.063
 21 
0.506
 0 
LINE
 8 
0
 62 
 7 
 10 
0.05
 20 
0.487
 11 
0.05
 21 
0.494
 0 
LINE
 8 
0
 62 
 7 
 10 
0.038
 20 
0.544
 11 
0.038
 21 
0.525
 0 
LINE
 8 
0
 62 
 7 
 10 
0.038
 20 
0.525
 11 
0.044
 21 
0.519
 0 
LINE
 8 
0
 62 
 7 
 10 
0.044
 20 
0.519
 11 
0.05
 21 
0.525
 0 
LINE
 8 
0
 62 
 7 
 10 
0.05
 20 
0.525
 11 
0.05
 21 
0.538
 0 
LINE
 8 
0
 62 
 7 
 10 
0.05
 20 
0.538
 11 
0.057
 21 
0.544
 0 
LINE
 8 
0
 62 
 7 
 10 
0.057
 20 
0.544
 11 
0.063
 21 
0.538
 0 
LINE
 8 
0
 62 
 7 
 10 
0.063
 20 
0.538
 11 
0.063
 21 
0.519
 0 
LINE
 8 
0
 62 
 7 
 10 
0.044
 20 
0.582
 11 
0.038
 21 
0.576
 0 
LINE
 8 
0
 62 
 7 
 10 
0.038
 20 
0.576
 11 
0.038
 21 
0.563
 0 
LINE
 8 
0
 62 
 7 
 10 
0.038
 20 
0.563
 11 
0.044
 21 
0.557
 0 
LINE
 8 
0
 62 
 7 
 10 
0.044
 20 
0.557
 11 
0.057
 21 
0.557
 0 
LINE
 8 
0
 62 
 7 
 10 
0.057
 20 
0.557
 11 
0.063
 21 
0.563
 0 
LINE
 8 
0
 62 
 7 
 10 
0.063
 20 
0.563
 11 
0.063
 21 
0.576
 0 
LINE
 8 
0
 62 
 7 
 10 
0.063
 20 
0.576
 11 
0.057
 21 
0.582
 0 
LINE
 8 
0
 62 
 7 
 10 
0.057
 20 
0.582
 11 
0.044
 21 
0.582
 0 
LINE
 8 
0
 62 
 7 
 10 
0.038
 20 
0.595
 11 
0.063
 21 
0.595
 0 
LINE
 8 
0
 62 
 7 
 10 
0.05
 20 
0.595
 11 
0.038
 21 
0.608
 0 
LINE
 8 
0
 62 
 7 
 10 
0.038
 20 
0.608
 11 
0.038
 21 
0.614
 0 
LINE
 8 
0
 62 
 7 
 10 
0.038
 20 
0.614
 11 
0.044
 21 
0.62
 0 
LINE
 8 
0
 62 
 7 
 10 
0.044
 20 
0.62
 11 
0.063
 21 
0.62
 0 
LINE
 8 
0
 62 
 7 
 10 
0.063
 20 
0.646
 11 
0.063
 21 
0.639
 0 
LINE
 8 
0
 62 
 7 
 10 
0.063
 20 
0.639
 11 
0.057
 21 
0.639
 0 
LINE
 8 
0
 62 
 7 
 10 
0.057
 20 
0.639
 11 
0.057
 21 
0.646
 0 
LINE
 8 
0
 62 
 7 
 10 
0.057
 20 
0.646
 11 
0.069
 21 
0.646
 0 
LINE
 8 
0
 62 
 7 
 10 
0.069
 20 
0.646
 11 
0.076
 21 
0.639
 0 
LINE
 8 
0
 62 
 7 
 10 
0.063
 20 
0.709
 11 
0.038
 21 
0.709
 0 
LINE
 8 
0
 62 
 7 
 10 
0.038
 20 
0.709
 11 
0.025
 21 
0.722
 0 
LINE
 8 
0
 62 
 7 
 10 
0.025
 20 
0.722
 11 
0.038
 21 
0.734
 0 
LINE
 8 
0
 62 
 7 
 10 
0.038
 20 
0.734
 11 
0.063
 21 
0.734
 0 
LINE
 8 
0
 62 
 7 
 10 
0.05
 20 
0.709
 11 
0.05
 21 
0.734
 0 
LINE
 8 
0
 62 
 7 
 10 
0.038
 20 
0.747
 11 
0.063
 21 
0.747
 0 
LINE
 8 
0
 62 
 7 
 10 
0.044
 20 
0.747
 11 
0.038
 21 
0.753
 0 
LINE
 8 
0
 62 
 7 
 10 
0.038
 20 
0.753
 11 
0.044
 21 
0.76
 0 
LINE
 8 
0
 62 
 7 
 10 
0.044
 20 
0.76
 11 
0.063
 21 
0.76
 0 
LINE
 8 
0
 62 
 7 
 10 
0.044
 20 
0.76
 11 
0.038
 21 
0.766
 0 
LINE
 8 
0
 62 
 7 
 10 
0.038
 20 
0.766
 11 
0.044
 21 
0.772
 0 
LINE
 8 
0
 62 
 7 
 10 
0.044
 20 
0.772
 11 
0.063
 21 
0.772
 0 
LINE
 8 
0
 62 
 7 
 10 
0.038
 20 
0.785
 11 
0.057
 21 
0.785
 0 
LINE
 8 
0
 62 
 7 
 10 
0.057
 20 
0.785
 11 
0.063
 21 
0.791
 0 
LINE
 8 
0
 62 
 7 
 10 
0.063
 20 
0.791
 11 
0.063
 21 
0.798
 0 
LINE
 8 
0
 62 
 7 
 10 
0.063
 20 
0.798
 11 
0.05
 21 
0.81
 0 
LINE
 8 
0
 62 
 7 
 10 
0.038
 20 
0.81
 11 
0.063
 21 
0.81
 0 
LINE
 8 
0
 62 
 7 
 10 
0.038
 20 
0.848
 11 
0.038
 21 
0.829
 0 
LINE
 8 
0
 62 
 7 
 10 
0.038
 20 
0.829
 11 
0.044
 21 
0.823
 0 
LINE
 8 
0
 62 
 7 
 10 
0.044
 20 
0.823
 11 
0.05
 21 
0.829
 0 
LINE
 8 
0
 62 
 7 
 10 
0.05
 20 
0.829
 11 
0.05
 21 
0.842
 0 
LINE
 8 
0
 62 
 7 
 10 
0.05
 20 
0.842
 11 
0.057
 21 
0.848
 0 
LINE
 8 
0
 62 
 7 
 10 
0.057
 20 
0.848
 11 
0.063
 21 
0.842
 0 
LINE
 8 
0
 62 
 7 
 10 
0.063
 20 
0.842
 11 
0.063
 21 
0.823
 0 
LINE
 8 
0
 62 
 7 
 10 
0.05
 20 
0.861
 11 
0.05
 21 
0.886
 0 
LINE
 8 
0
 62 
 7 
 10 
0.05
 20 
0.886
 11 
0.044
 21 
0.886
 0 
LINE
 8 
0
 62 
 7 
 10 
0.044
 20 
0.886
 11 
0.038
 21 
0.88
 0 
LINE
 8 
0
 62 
 7 
 10 
0.038
 20 
0.88
 11 
0.038
 21 
0.867
 0 
LINE
 8 
0
 62 
 7 
 10 
0.038
 20 
0.867
 11 
0.044
 21 
0.861
 0 
LINE
 8 
0
 62 
 7 
 10 
0.044
 20 
0.861
 11 
0.057
 21 
0.861
 0 
LINE
 8 
0
 62 
 7 
 10 
0.057
 20 
0.861
 11 
0.063
 21 
0.867
 0 
LINE
 8 
0
 62 
 7 
 10 
0.063
 20 
0.867
 11 
0.063
 21 
0.88
 0 
LINE
 8 
0
 62 
 7 
 10 
0.025
 20 
0.918
 11 
0.025
 21 
0.924
 0 
LINE
 8 
0
 62 
 7 
 10 
0.025
 20 
0.924
 11 
0.063
 21 
0.924
 0 
LINE
 8 
0
 62 
 7 
 10 
0.044
 20 
0.924
 11 
0.038
 21 
0.918
 0 
LINE
 8 
0
 62 
 7 
 10 
0.038
 20 
0.918
 11 
0.038
 21 
0.905
 0 
LINE
 8 
0
 62 
 7 
 10 
0.038
 20 
0.905
 11 
0.044
 21 
0.899
 0 
LINE
 8 
0
 62 
 7 
 10 
0.044
 20 
0.899
 11 
0.057
 21 
0.899
 0 
LINE
 8 
0
 62 
 7 
 10 
0.057
 20 
0.899
 11 
0.063
 21 
0.905
 0 
LINE
 8 
0
 62 
 7 
 10 
0.063
 20 
0.905
 11 
0.063
 21 
0.912
 0 
LINE
 8 
0
 62 
 7 
 10 
0.063
 20 
0.912
 11 
0.05
 21 
0.924
 0 
LINE
 8 
0
 62 
 7 
 10 
0.031
 20 
1.0
 11 
0.025
 21 
0.994
 0 
LINE
 8 
0
 62 
 7 
 10 
0.025
 20 
0.994
 11 
0.025
 21 
0.981
 0 
LINE
 8 
0
 62 
 7 
 10 
0.025
 20 
0.981
 11 
0.031
 21 
0.975
 0 
LINE
 8 
0
 62 
 7 
 10 
0.031
 20 
0.975
 11 
0.038
 21 
0.975
 0 
LINE
 8 
0
 62 
 7 
 10 
0.038
 20 
0.975
 11 
0.044
 21 
0.981
 0 
LINE
 8 
0
 62 
 7 
 10 
0.044
 20 
0.981
 11 
0.044
 21 
0.994
 0 
LINE
 8 
0
 62 
 7 
 10 
0.044
 20 
0.994
 11 
0.05
 21 
1.0
 0 
LINE
 8 
0
 62 
 7 
 10 
0.05
 20 
1.0
 11 
0.057
 21 
1.0
 0 
LINE
 8 
0
 62 
 7 
 10 
0.057
 20 
1.0
 11 
0.063
 21 
0.994
 0 
LINE
 8 
0
 62 
 7 
 10 
0.063
 20 
0.994
 11 
0.063
 21 
0.981
 0 
LINE
 8 
0
 62 
 7 
 10 
0.063
 20 
0.981
 11 
0.057
 21 
0.975
 0 
LINE
 8 
0
 62 
 7 
 10 
0.044
 20 
1.038
 11 
0.038
 21 
1.032
 0 
LINE
 8 
0
 62 
 7 
 10 
0.038
 20 
1.032
 11 
0.038
 21 
1.019
 0 
LINE
 8 
0
 62 
 7 
 10 
0.038
 20 
1.019
 11 
0.044
 21 
1.013
 0 
LINE
 8 
0
 62 
 7 
 10 
0.044
 20 
1.013
 11 
0.057
 21 
1.013
 0 
LINE
 8 
0
 62 
 7 
 10 
0.057
 20 
1.013
 11 
0.063
 21 
1.019
 0 
LINE
 8 
0
 62 
 7 
 10 
0.063
 20 
1.019
 11 
0.063
 21 
1.032
 0 
LINE
 8 
0
 62 
 7 
 10 
0.063
 20 
1.032
 11 
0.057
 21 
1.038
 0 
LINE
 8 
0
 62 
 7 
 10 
0.025
 20 
1.064
 11 
0.031
 21 
1.064
 0 
LINE
 8 
0
 62 
 7 
 10 
0.063
 20 
1.057
 11 
0.063
 21 
1.07
 0 
LINE
 8 
0
 62 
 7 
 10 
0.044
 20 
1.057
 11 
0.044
 21 
1.064
 0 
LINE
 8 
0
 62 
 7 
 10 
0.044
 20 
1.064
 11 
0.063
 21 
1.064
 0 
LINE
 8 
0
 62 
 7 
 10 
0.05
 20 
1.089
 11 
0.05
 21 
1.114
 0 
LINE
 8 
0
 62 
 7 
 10 
0.05
 20 
1.114
 11 
0.044
 21 
1.114
 0 
LINE
 8 
0
 62 
 7 
 10 
0.044
 20 
1.114
 11 
0.038
 21 
1.108
 0 
LINE
 8 
0
 62 
 7 
 10 
0.038
 20 
1.108
 11 
0.038
 21 
1.095
 0 
LINE
 8 
0
 62 
 7 
 10 
0.038
 20 
1.095
 11 
0.044
 21 
1.089
 0 
LINE
 8 
0
 62 
 7 
 10 
0.044
 20 
1.089
 11 
0.057
 21 
1.089
 0 
LINE
 8 
0
 62 
 7 
 10 
0.057
 20 
1.089
 11 
0.063
 21 
1.095
 0 
LINE
 8 
0
 62 
 7 
 10 
0.063
 20 
1.095
 11 
0.063
 21 
1.108
 0 
LINE
 8 
0
 62 
 7 
 10 
0.038
 20 
1.127
 11 
0.063
 21 
1.127
 0 
LINE
 8 
0
 62 
 7 
 10 
0.05
 20 
1.127
 11 
0.038
 21 
1.14
 0 
LINE
 8 
0
 62 
 7 
 10 
0.038
 20 
1.14
 11 
0.038
 21 
1.146
 0 
LINE
 8 
0
 62 
 7 
 10 
0.038
 20 
1.146
 11 
0.044
 21 
1.152
 0 
LINE
 8 
0
 62 
 7 
 10 
0.044
 20 
1.152
 11 
0.063
 21 
1.152
 0 
LINE
 8 
0
 62 
 7 
 10 
0.025
 20 
1.171
 11 
0.057
 21 
1.171
 0 
LINE
 8 
0
 62 
 7 
 10 
0.057
 20 
1.171
 11 
0.063
 21 
1.178
 0 
LINE
 8 
0
 62 
 7 
 10 
0.063
 20 
1.178
 11 
0.063
 21 
1.184
 0 
LINE
 8 
0
 62 
 7 
 10 
0.063
 20 
1.184
 11 
0.057
 21 
1.19
 0 
LINE
 8 
0
 62 
 7 
 10 
0.038
 20 
1.165
 11 
0.038
 21 
1.184
 0 
LINE
 8 
0
 62 
 7 
 10 
0.025
 20 
1.216
 11 
0.031
 21 
1.216
 0 
LINE
 8 
0
 62 
 7 
 10 
0.063
 20 
1.209
 11 
0.063
 21 
1.222
 0 
LINE
 8 
0
 62 
 7 
 10 
0.044
 20 
1.209
 11 
0.044
 21 
1.216
 0 
LINE
 8 
0
 62 
 7 
 10 
0.044
 20 
1.216
 11 
0.063
 21 
1.216
 0 
LINE
 8 
0
 62 
 7 
 10 
0.038
 20 
1.266
 11 
0.038
 21 
1.247
 0 
LINE
 8 
0
 62 
 7 
 10 
0.038
 20 
1.247
 11 
0.044
 21 
1.241
 0 
LINE
 8 
0
 62 
 7 
 10 
0.044
 20 
1.241
 11 
0.05
 21 
1.247
 0 
LINE
 8 
0
 62 
 7 
 10 
0.05
 20 
1.247
 11 
0.05
 21 
1.26
 0 
LINE
 8 
0
 62 
 7 
 10 
0.05
 20 
1.26
 11 
0.057
 21 
1.266
 0 
LINE
 8 
0
 62 
 7 
 10 
0.057
 20 
1.266
 11 
0.063
 21 
1.26
 0 
LINE
 8 
0
 62 
 7 
 10 
0.063
 20 
1.26
 11 
0.063
 21 
1.241
 0 
LINE
 8 
0
 62 
 7 
 10 
0.025
 20 
1.285
 11 
0.057
 21 
1.285
 0 
LINE
 8 
0
 62 
 7 
 10 
0.057
 20 
1.285
 11 
0.063
 21 
1.292
 0 
LINE
 8 
0
 62 
 7 
 10 
0.063
 20 
1.292
 11 
0.063
 21 
1.298
 0 
LINE
 8 
0
 62 
 7 
 10 
0.063
 20 
1.298
 11 
0.057
 21 
1.304
 0 
LINE
 8 
0
 62 
 7 
 10 
0.038
 20 
1.279
 11 
0.038
 21 
1.298
 0 
LINE
 8 
0
 62 
 7 
 10 
2.085
 20 
0.24
 11 
2.095
 21 
0.25
 0 
LINE
 8 
0
 62 
 7 
 10 
2.095
 20 
0.25
 11 
2.095
 21 
0.19
 0 
LINE
 8 
0
 62 
 7 
 10 
2.085
 20 
0.19
 11 
2.105
 21 
0.19
 0 
LINE
 8 
0
 62 
 7 
 10 
0.163
 20 
0.025
 11 
0.125
 21 
0.025
 0 
LINE
 8 
0
 62 
 7 
 10 
0.125
 20 
0.025
 11 
0.125
 21 
0.044
 0 
LINE
 8 
0
 62 
 7 
 10 
0.125
 20 
0.044
 11 
0.131
 21 
0.05
 0 
LINE
 8 
0
 62 
 7 
 10 
0.131
 20 
0.05
 11 
0.138
 21 
0.05
 0 
LINE
 8 
0
 62 
 7 
 10 
0.138
 20 
0.05
 11 
0.144
 21 
0.044
 0 
LINE
 8 
0
 62 
 7 
 10 
0.144
 20 
0.044
 11 
0.144
 21 
0.025
 0 
LINE
 8 
0
 62 
 7 
 10 
0.144
 20 
0.031
 11 
0.163
 21 
0.05
 0 
LINE
 8 
0
 62 
 7 
 10 
0.15
 20 
0.063
 11 
0.15
 21 
0.088
 0 
LINE
 8 
0
 62 
 7 
 10 
0.15
 20 
0.088
 11 
0.144
 21 
0.088
 0 
LINE
 8 
0
 62 
 7 
 10 
0.144
 20 
0.088
 11 
0.138
 21 
0.082
 0 
LINE
 8 
0
 62 
 7 
 10 
0.138
 20 
0.082
 11 
0.138
 21 
0.069
 0 
LINE
 8 
0
 62 
 7 
 10 
0.138
 20 
0.069
 11 
0.144
 21 
0.063
 0 
LINE
 8 
0
 62 
 7 
 10 
0.144
 20 
0.063
 11 
0.157
 21 
0.063
 0 
LINE
 8 
0
 62 
 7 
 10 
0.157
 20 
0.063
 11 
0.163
 21 
0.069
 0 
LINE
 8 
0
 62 
 7 
 10 
0.163
 20 
0.069
 11 
0.163
 21 
0.082
 0 
LINE
 8 
0
 62 
 7 
 10 
0.138
 20 
0.101
 11 
0.15
 21 
0.101
 0 
LINE
 8 
0
 62 
 7 
 10 
0.15
 20 
0.101
 11 
0.163
 21 
0.114
 0 
LINE
 8 
0
 62 
 7 
 10 
0.163
 20 
0.114
 11 
0.15
 21 
0.126
 0 
LINE
 8 
0
 62 
 7 
 10 
0.15
 20 
0.126
 11 
0.138
 21 
0.126
 0 
LINE
 8 
0
 62 
 7 
 10 
0.138
 20 
0.152
 11 
0.138
 21 
0.145
 0 
LINE
 8 
0
 62 
 7 
 10 
0.138
 20 
0.145
 11 
0.131
 21 
0.145
 0 
LINE
 8 
0
 62 
 7 
 10 
0.131
 20 
0.145
 11 
0.131
 21 
0.152
 0 
LINE
 8 
0
 62 
 7 
 10 
0.131
 20 
0.152
 11 
0.138
 21 
0.152
 0 
LINE
 8 
0
 62 
 7 
 10 
0.157
 20 
0.152
 11 
0.157
 21 
0.145
 0 
LINE
 8 
0
 62 
 7 
 10 
0.157
 20 
0.145
 11 
0.15
 21 
0.145
 0 
LINE
 8 
0
 62 
 7 
 10 
0.15
 20 
0.145
 11 
0.15
 21 
0.152
 0 
LINE
 8 
0
 62 
 7 
 10 
0.15
 20 
0.152
 11 
0.157
 21 
0.152
 0 
LINE
 8 
0
 62 
 7 
 10 
0.125
 20 
0.215
 11 
0.144
 21 
0.215
 0 
LINE
 8 
0
 62 
 7 
 10 
0.144
 20 
0.215
 11 
0.157
 21 
0.228
 0 
LINE
 8 
0
 62 
 7 
 10 
0.157
 20 
0.228
 11 
0.144
 21 
0.24
 0 
LINE
 8 
0
 62 
 7 
 10 
0.144
 20 
0.24
 11 
0.125
 21 
0.24
 0 
LINE
 8 
0
 62 
 7 
 10 
0.157
 20 
0.228
 11 
0.163
 21 
0.228
 0 
LINE
 8 
0
 62 
 7 
 10 
0.157
 20 
0.253
 11 
0.131
 21 
0.253
 0 
LINE
 8 
0
 62 
 7 
 10 
0.131
 20 
0.253
 11 
0.125
 21 
0.259
 0 
LINE
 8 
0
 62 
 7 
 10 
0.125
 20 
0.259
 11 
0.125
 21 
0.272
 0 
LINE
 8 
0
 62 
 7 
 10 
0.125
 20 
0.272
 11 
0.131
 21 
0.278
 0 
LINE
 8 
0
 62 
 7 
 10 
0.131
 20 
0.278
 11 
0.157
 21 
0.278
 0 
LINE
 8 
0
 62 
 7 
 10 
0.157
 20 
0.278
 11 
0.163
 21 
0.272
 0 
LINE
 8 
0
 62 
 7 
 10 
0.163
 20 
0.272
 11 
0.163
 21 
0.259
 0 
LINE
 8 
0
 62 
 7 
 10 
0.163
 20 
0.259
 11 
0.157
 21 
0.253
 0 
LINE
 8 
0
 62 
 7 
 10 
0.157
 20 
0.253
 11 
0.131
 21 
0.278
 0 
LINE
 8 
0
 62 
 7 
 10 
0.163
 20 
0.304
 11 
0.163
 21 
0.297
 0 
LINE
 8 
0
 62 
 7 
 10 
0.163
 20 
0.297
 11 
0.157
 21 
0.297
 0 
LINE
 8 
0
 62 
 7 
 10 
0.157
 20 
0.297
 11 
0.157
 21 
0.304
 0 
LINE
 8 
0
 62 
 7 
 10 
0.157
 20 
0.304
 11 
0.163
 21 
0.304
 0 
LINE
 8 
0
 62 
 7 
 10 
0.157
 20 
0.329
 11 
0.131
 21 
0.329
 0 
LINE
 8 
0
 62 
 7 
 10 
0.131
 20 
0.329
 11 
0.125
 21 
0.335
 0 
LINE
 8 
0
 62 
 7 
 10 
0.125
 20 
0.335
 11 
0.125
 21 
0.348
 0 
LINE
 8 
0
 62 
 7 
 10 
0.125
 20 
0.348
 11 
0.131
 21 
0.354
 0 
LINE
 8 
0
 62 
 7 
 10 
0.131
 20 
0.354
 11 
0.157
 21 
0.354
 0 
LINE
 8 
0
 62 
 7 
 10 
0.157
 20 
0.354
 11 
0.163
 21 
0.348
 0 
LINE
 8 
0
 62 
 7 
 10 
0.163
 20 
0.348
 11 
0.163
 21 
0.335
 0 
LINE
 8 
0
 62 
 7 
 10 
0.163
 20 
0.335
 11 
0.157
 21 
0.329
 0 
LINE
 8 
0
 62 
 7 
 10 
0.157
 20 
0.329
 11 
0.131
 21 
0.354
 0 
LINE
 8 
0
 62 
 7 
 10 
0.163
 20 
0.38
 11 
0.163
 21 
0.373
 0 
LINE
 8 
0
 62 
 7 
 10 
0.163
 20 
0.373
 11 
0.157
 21 
0.373
 0 
LINE
 8 
0
 62 
 7 
 10 
0.157
 20 
0.373
 11 
0.157
 21 
0.38
 0 
LINE
 8 
0
 62 
 7 
 10 
0.157
 20 
0.38
 11 
0.163
 21 
0.38
 0 
LINE
 8 
0
 62 
 7 
 10 
0.131
 20 
0.411
 11 
0.125
 21 
0.418
 0 
LINE
 8 
0
 62 
 7 
 10 
0.125
 20 
0.418
 11 
0.163
 21 
0.418
 0 
LINE
 8 
0
 62 
 7 
 10 
0.163
 20 
0.411
 11 
0.163
 21 
0.424
 0 
LINE
 8 
0
 62 
 7 
 10 
0.125
 20 
0.519
 11 
0.125
 21 
0.538
 0 
LINE
 8 
0
 62 
 7 
 10 
0.125
 20 
0.538
 11 
0.131
 21 
0.544
 0 
LINE
 8 
0
 62 
 7 
 10 
0.131
 20 
0.544
 11 
0.157
 21 
0.544
 0 
LINE
 8 
0
 62 
 7 
 10 
0.157
 20 
0.544
 11 
0.163
 21 
0.538
 0 
LINE
 8 
0
 62 
 7 
 10 
0.163
 20 
0.538
 11 
0.163
 21 
0.519
 0 
LINE
 8 
0
 62 
 7 
 10 
0.125
 20 
0.525
 11 
0.163
 21 
0.525
 0 
LINE
 8 
0
 62 
 7 
 10 
0.138
 20 
0.563
 11 
0.138
 21 
0.576
 0 
LINE
 8 
0
 62 
 7 
 10 
0.138
 20 
0.576
 11 
0.144
 21 
0.582
 0 
LINE
 8 
0
 62 
 7 
 10 
0.144
 20 
0.582
 11 
0.163
 21 
0.582
 0 
LINE
 8 
0
 62 
 7 
 10 
0.15
 20 
0.582
 11 
0.15
 21 
0.563
 0 
LINE
 8 
0
 62 
 7 
 10 
0.15
 20 
0.563
 11 
0.157
 21 
0.557
 0 
LINE
 8 
0
 62 
 7 
 10 
0.157
 20 
0.557
 11 
0.163
 21 
0.563
 0 
LINE
 8 
0
 62 
 7 
 10 
0.163
 20 
0.563
 11 
0.163
 21 
0.576
 0 
LINE
 8 
0
 62 
 7 
 10 
0.163
 20 
0.576
 11 
0.157
 21 
0.582
 0 
LINE
 8 
0
 62 
 7 
 10 
0.125
 20 
0.601
 11 
0.157
 21 
0.601
 0 
LINE
 8 
0
 62 
 7 
 10 
0.157
 20 
0.601
 11 
0.163
 21 
0.608
 0 
LINE
 8 
0
 62 
 7 
 10 
0.163
 20 
0.608
 11 
0.163
 21 
0.614
 0 
LINE
 8 
0
 62 
 7 
 10 
0.163
 20 
0.614
 11 
0.157
 21 
0.62
 0 
LINE
 8 
0
 62 
 7 
 10 
0.138
 20 
0.595
 11 
0.138
 21 
0.614
 0 
LINE
 8 
0
 62 
 7 
 10 
0.15
 20 
0.633
 11 
0.15
 21 
0.658
 0 
LINE
 8 
0
 62 
 7 
 10 
0.15
 20 
0.658
 11 
0.144
 21 
0.658
 0 
LINE
 8 
0
 62 
 7 
 10 
0.144
 20 
0.658
 11 
0.138
 21 
0.652
 0 
LINE
 8 
0
 62 
 7 
 10 
0.138
 20 
0.652
 11 
0.138
 21 
0.639
 0 
LINE
 8 
0
 62 
 7 
 10 
0.138
 20 
0.639
 11 
0.144
 21 
0.633
 0 
LINE
 8 
0
 62 
 7 
 10 
0.144
 20 
0.633
 11 
0.157
 21 
0.633
 0 
LINE
 8 
0
 62 
 7 
 10 
0.157
 20 
0.633
 11 
0.163
 21 
0.639
 0 
LINE
 8 
0
 62 
 7 
 10 
0.163
 20 
0.639
 11 
0.163
 21 
0.652
 0 
LINE
 8 
0
 62 
 7 
 10 
0.138
 20 
0.684
 11 
0.138
 21 
0.677
 0 
LINE
 8 
0
 62 
 7 
 10 
0.138
 20 
0.677
 11 
0.131
 21 
0.677
 0 
LINE
 8 
0
 62 
 7 
 10 
0.131
 20 
0.677
 11 
0.131
 21 
0.684
 0 
LINE
 8 
0
 62 
 7 
 10 
0.131
 20 
0.684
 11 
0.138
 21 
0.684
 0 
LINE
 8 
0
 62 
 7 
 10 
0.157
 20 
0.684
 11 
0.157
 21 
0.677
 0 
LINE
 8 
0
 62 
 7 
 10 
0.157
 20 
0.677
 11 
0.15
 21 
0.677
 0 
LINE
 8 
0
 62 
 7 
 10 
0.15
 20 
0.677
 11 
0.15
 21 
0.684
 0 
LINE
 8 
0
 62 
 7 
 10 
0.15
 20 
0.684
 11 
0.157
 21 
0.684
 0 
LINE
 8 
0
 62 
 7 
 10 
0.131
 20 
0.709
 11 
0.125
 21 
0.715
 0 
LINE
 8 
0
 62 
 7 
 10 
0.125
 20 
0.715
 11 
0.125
 21 
0.728
 0 
LINE
 8 
0
 62 
 7 
 10 
0.125
 20 
0.728
 11 
0.131
 21 
0.734
 0 
LINE
 8 
0
 62 
 7 
 10 
0.131
 20 
0.734
 11 
0.138
 21 
0.734
 0 
LINE
 8 
0
 62 
 7 
 10 
0.138
 20 
0.734
 11 
0.144
 21 
0.728
 0 
LINE
 8 
0
 62 
 7 
 10 
0.144
 20 
0.728
 11 
0.144
 21 
0.715
 0 
LINE
 8 
0
 62 
 7 
 10 
0.144
 20 
0.715
 11 
0.15
 21 
0.709
 0 
LINE
 8 
0
 62 
 7 
 10 
0.15
 20 
0.709
 11 
0.163
 21 
0.709
 0 
LINE
 8 
0
 62 
 7 
 10 
0.163
 20 
0.709
 11 
0.163
 21 
0.734
 0 
LINE
 8 
0
 62 
 7 
 10 
0.157
 20 
0.747
 11 
0.131
 21 
0.747
 0 
LINE
 8 
0
 62 
 7 
 10 
0.131
 20 
0.747
 11 
0.125
 21 
0.753
 0 
LINE
 8 
0
 62 
 7 
 10 
0.125
 20 
0.753
 11 
0.125
 21 
0.766
 0 
LINE
 8 
0
 62 
 7 
 10 
0.125
 20 
0.766
 11 
0.131
 21 
0.772
 0 
LINE
 8 
0
 62 
 7 
 10 
0.131
 20 
0.772
 11 
0.157
 21 
0.772
 0 
LINE
 8 
0
 62 
 7 
 10 
0.157
 20 
0.772
 11 
0.163
 21 
0.766
 0 
LINE
 8 
0
 62 
 7 
 10 
0.163
 20 
0.766
 11 
0.163
 21 
0.753
 0 
LINE
 8 
0
 62 
 7 
 10 
0.163
 20 
0.753
 11 
0.157
 21 
0.747
 0 
LINE
 8 
0
 62 
 7 
 10 
0.157
 20 
0.747
 11 
0.131
 21 
0.772
 0 
LINE
 8 
0
 62 
 7 
 10 
0.131
 20 
0.785
 11 
0.125
 21 
0.791
 0 
LINE
 8 
0
 62 
 7 
 10 
0.125
 20 
0.791
 11 
0.125
 21 
0.804
 0 
LINE
 8 
0
 62 
 7 
 10 
0.125
 20 
0.804
 11 
0.131
 21 
0.81
 0 
LINE
 8 
0
 62 
 7 
 10 
0.131
 20 
0.81
 11 
0.138
 21 
0.81
 0 
LINE
 8 
0
 62 
 7 
 10 
0.138
 20 
0.81
 11 
0.144
 21 
0.804
 0 
LINE
 8 
0
 62 
 7 
 10 
0.144
 20 
0.804
 11 
0.144
 21 
0.791
 0 
LINE
 8 
0
 62 
 7 
 10 
0.144
 20 
0.791
 11 
0.15
 21 
0.785
 0 
LINE
 8 
0
 62 
 7 
 10 
0.15
 20 
0.785
 11 
0.163
 21 
0.785
 0 
LINE
 8 
0
 62 
 7 
 10 
0.163
 20 
0.785
 11 
0.163
 21 
0.81
 0 
LINE
 8 
0
 62 
 7 
 10 
0.131
 20 
0.829
 11 
0.125
 21 
0.836
 0 
LINE
 8 
0
 62 
 7 
 10 
0.125
 20 
0.836
 11 
0.163
 21 
0.836
 0 
LINE
 8 
0
 62 
 7 
 10 
0.163
 20 
0.829
 11 
0.163
 21 
0.842
 0 
LINE
 8 
0
 62 
 7 
 10 
0.157
 20 
0.861
 11 
0.131
 21 
0.861
 0 
LINE
 8 
0
 62 
 7 
 10 
0.131
 20 
0.861
 11 
0.125
 21 
0.867
 0 
LINE
 8 
0
 62 
 7 
 10 
0.125
 20 
0.867
 11 
0.125
 21 
0.88
 0 
LINE
 8 
0
 62 
 7 
 10 
0.125
 20 
0.88
 11 
0.131
 21 
0.886
 0 
LINE
 8 
0
 62 
 7 
 10 
0.131
 20 
0.886
 11 
0.157
 21 
0.886
 0 
LINE
 8 
0
 62 
 7 
 10 
0.157
 20 
0.886
 11 
0.163
 21 
0.88
 0 
LINE
 8 
0
 62 
 7 
 10 
0.163
 20 
0.88
 11 
0.163
 21 
0.867
 0 
LINE
 8 
0
 62 
 7 
 10 
0.163
 20 
0.867
 11 
0.157
 21 
0.861
 0 
LINE
 8 
0
 62 
 7 
 10 
0.157
 20 
0.861
 11 
0.131
 21 
0.886
 0 
LINE
 8 
0
 62 
 7 
 10 
0.131
 20 
0.899
 11 
0.125
 21 
0.899
 0 
LINE
 8 
0
 62 
 7 
 10 
0.125
 20 
0.899
 11 
0.125
 21 
0.924
 0 
LINE
 8 
0
 62 
 7 
 10 
0.125
 20 
0.924
 11 
0.131
 21 
0.924
 0 
LINE
 8 
0
 62 
 7 
 10 
0.131
 20 
0.924
 11 
0.15
 21 
0.905
 0 
LINE
 8 
0
 62 
 7 
 10 
0.15
 20 
0.905
 11 
0.163
 21 
0.905
 0 
LINE
 8 
0
 62 
 7 
 10 
0.131
 20 
0.937
 11 
0.125
 21 
0.943
 0 
LINE
 8 
0
 62 
 7 
 10 
0.125
 20 
0.943
 11 
0.125
 21 
0.956
 0 
LINE
 8 
0
 62 
 7 
 10 
0.125
 20 
0.956
 11 
0.131
 21 
0.962
 0 
LINE
 8 
0
 62 
 7 
 10 
0.131
 20 
0.962
 11 
0.138
 21 
0.962
 0 
LINE
 8 
0
 62 
 7 
 10 
0.138
 20 
0.962
 11 
0.144
 21 
0.956
 0 
LINE
 8 
0
 62 
 7 
 10 
0.144
 20 
0.956
 11 
0.144
 21 
0.943
 0 
LINE
 8 
0
 62 
 7 
 10 
0.144
 20 
0.943
 11 
0.15
 21 
0.937
 0 
LINE
 8 
0
 62 
 7 
 10 
0.15
 20 
0.937
 11 
0.163
 21 
0.937
 0 
LINE
 8 
0
 62 
 7 
 10 
0.163
 20 
0.937
 11 
0.163
 21 
0.962
 0 
LINE
 8 
0
 62 
 7 
 10 
0.131
 20 
0.975
 11 
0.125
 21 
0.981
 0 
LINE
 8 
0
 62 
 7 
 10 
0.125
 20 
0.981
 11 
0.125
 21 
0.994
 0 
LINE
 8 
0
 62 
 7 
 10 
0.125
 20 
0.994
 11 
0.131
 21 
1.0
 0 
LINE
 8 
0
 62 
 7 
 10 
0.131
 20 
1.0
 11 
0.138
 21 
1.0
 0 
LINE
 8 
0
 62 
 7 
 10 
0.138
 20 
1.0
 11 
0.144
 21 
0.994
 0 
LINE
 8 
0
 62 
 7 
 10 
0.144
 20 
0.994
 11 
0.144
 21 
0.981
 0 
LINE
 8 
0
 62 
 7 
 10 
0.144
 20 
0.981
 11 
0.15
 21 
0.975
 0 
LINE
 8 
0
 62 
 7 
 10 
0.15
 20 
0.975
 11 
0.163
 21 
0.975
 0 
LINE
 8 
0
 62 
 7 
 10 
0.163
 20 
0.975
 11 
0.163
 21 
1.0
 0 
LINE
 8 
0
 62 
 7 
 10 
1.5
 20 
0.29
 11 
1.5
 21 
0.35
 0 
LINE
 8 
0
 62 
 7 
 10 
1.5
 20 
0.35
 11 
1.53
 21 
0.35
 0 
LINE
 8 
0
 62 
 7 
 10 
1.53
 20 
0.35
 11 
1.54
 21 
0.34
 0 
LINE
 8 
0
 62 
 7 
 10 
1.54
 20 
0.34
 11 
1.54
 21 
0.33
 0 
LINE
 8 
0
 62 
 7 
 10 
1.54
 20 
0.33
 11 
1.53
 21 
0.32
 0 
LINE
 8 
0
 62 
 7 
 10 
1.53
 20 
0.32
 11 
1.5
 21 
0.32
 0 
LINE
 8 
0
 62 
 7 
 10 
1.6
 20 
0.34
 11 
1.59
 21 
0.35
 0 
LINE
 8 
0
 62 
 7 
 10 
1.59
 20 
0.35
 11 
1.57
 21 
0.35
 0 
LINE
 8 
0
 62 
 7 
 10 
1.57
 20 
0.35
 11 
1.56
 21 
0.34
 0 
LINE
 8 
0
 62 
 7 
 10 
1.56
 20 
0.34
 11 
1.56
 21 
0.3
 0 
LINE
 8 
0
 62 
 7 
 10 
1.56
 20 
0.3
 11 
1.57
 21 
0.29
 0 
LINE
 8 
0
 62 
 7 
 10 
1.57
 20 
0.29
 11 
1.59
 21 
0.29
 0 
LINE
 8 
0
 62 
 7 
 10 
1.59
 20 
0.29
 11 
1.6
 21 
0.3
 0 
LINE
 8 
0
 62 
 7 
 10 
1.6
 20 
0.3
 11 
1.6
 21 
0.34
 0 
LINE
 8 
0
 62 
 7 
 10 
1.62
 20 
0.35
 11 
1.62
 21 
0.29
 0 
LINE
 8 
0
 62 
 7 
 10 
1.62
 20 
0.29
 11 
1.64
 21 
0.31
 0 
LINE
 8 
0
 62 
 7 
 10 
1.64
 20 
0.31
 11 
1.66
 21 
0.29
 0 
LINE
 8 
0
 62 
 7 
 10 
1.66
 20 
0.29
 11 
1.66
 21 
0.35
 0 
LINE
 8 
0
 62 
 7 
 10 
1.64
 20 
0.31
 11 
1.64
 21 
0.32
 0 
LINE
 8 
0
 62 
 7 
 10 
1.72
 20 
0.35
 11 
1.68
 21 
0.35
 0 
LINE
 8 
0
 62 
 7 
 10 
1.68
 20 
0.35
 11 
1.68
 21 
0.29
 0 
LINE
 8 
0
 62 
 7 
 10 
1.68
 20 
0.29
 11 
1.72
 21 
0.29
 0 
LINE
 8 
0
 62 
 7 
 10 
1.68
 20 
0.32
 11 
1.71
 21 
0.32
 0 
LINE
 8 
0
 62 
 7 
 10 
1.74
 20 
0.29
 11 
1.74
 21 
0.35
 0 
LINE
 8 
0
 62 
 7 
 10 
1.74
 20 
0.35
 11 
1.77
 21 
0.35
 0 
LINE
 8 
0
 62 
 7 
 10 
1.77
 20 
0.35
 11 
1.78
 21 
0.34
 0 
LINE
 8 
0
 62 
 7 
 10 
1.78
 20 
0.34
 11 
1.78
 21 
0.33
 0 
LINE
 8 
0
 62 
 7 
 10 
1.78
 20 
0.33
 11 
1.77
 21 
0.32
 0 
LINE
 8 
0
 62 
 7 
 10 
1.77
 20 
0.32
 11 
1.74
 21 
0.32
 0 
LINE
 8 
0
 62 
 7 
 10 
1.75
 20 
0.32
 11 
1.78
 21 
0.29
 0 
LINE
 8 
0
 62 
 7 
 10 
1.975
 20 
0.29
 11 
1.975
 21 
0.33
 0 
LINE
 8 
0
 62 
 7 
 10 
1.975
 20 
0.33
 11 
1.995
 21 
0.35
 0 
LINE
 8 
0
 62 
 7 
 10 
1.995
 20 
0.35
 11 
2.015
 21 
0.33
 0 
LINE
 8 
0
 62 
 7 
 10 
2.015
 20 
0.33
 11 
2.015
 21 
0.29
 0 
LINE
 8 
0
 62 
 7 
 10 
1.975
 20 
0.31
 11 
2.015
 21 
0.31
 0 
LINE
 8 
0
 62 
 7 
 10 
2.035
 20 
0.29
 11 
2.035
 21 
0.35
 0 
LINE
 8 
0
 62 
 7 
 10 
2.035
 20 
0.35
 11 
2.075
 21 
0.31
 0 
LINE
 8 
0
 62 
 7 
 10 
2.075
 20 
0.35
 11 
2.075
 21 
0.29
 0 
LINE
 8 
0
 62 
 7 
 10 
2.095
 20 
0.29
 11 
2.095
 21 
0.33
 0 
LINE
 8 
0
 62 
 7 
 10 
2.095
 20 
0.33
 11 
2.115
 21 
0.35
 0 
LINE
 8 
0
 62 
 7 
 10 
2.115
 20 
0.35
 11 
2.135
 21 
0.33
 0 
LINE
 8 
0
 62 
 7 
 10 
2.135
 20 
0.33
 11 
2.135
 21 
0.29
 0 
LINE
 8 
0
 62 
 7 
 10 
2.095
 20 
0.31
 11 
2.135
 21 
0.31
 0 
LINE
 8 
0
 62 
 7 
 10 
2.155
 20 
0.35
 11 
2.155
 21 
0.29
 0 
LINE
 8 
0
 62 
 7 
 10 
2.155
 20 
0.29
 11 
2.195
 21 
0.29
 0 
LINE
 8 
0
 62 
 7 
 10 
2.255
 20 
0.34
 11 
2.245
 21 
0.35
 0 
LINE
 8 
0
 62 
 7 
 10 
2.245
 20 
0.35
 11 
2.225
 21 
0.35
 0 
LINE
 8 
0
 62 
 7 
 10 
2.225
 20 
0.35
 11 
2.215
 21 
0.34
 0 
LINE
 8 
0
 62 
 7 
 10 
2.215
 20 
0.34
 11 
2.215
 21 
0.3
 0 
LINE
 8 
0
 62 
 7 
 10 
2.215
 20 
0.3
 11 
2.225
 21 
0.29
 0 
LINE
 8 
0
 62 
 7 
 10 
2.225
 20 
0.29
 11 
2.245
 21 
0.29
 0 
LINE
 8 
0
 62 
 7 
 10 
2.245
 20 
0.29
 11 
2.255
 21 
0.3
 0 
LINE
 8 
0
 62 
 7 
 10 
2.255
 20 
0.3
 11 
2.255
 21 
0.34
 0 
LINE
 8 
0
 62 
 7 
 10 
2.315
 20 
0.34
 11 
2.305
 21 
0.35
 0 
LINE
 8 
0
 62 
 7 
 10 
2.305
 20 
0.35
 11 
2.285
 21 
0.35
 0 
LINE
 8 
0
 62 
 7 
 10 
2.285
 20 
0.35
 11 
2.275
 21 
0.34
 0 
LINE
 8 
0
 62 
 7 
 10 
2.275
 20 
0.34
 11 
2.275
 21 
0.3
 0 
LINE
 8 
0
 62 
 7 
 10 
2.275
 20 
0.3
 11 
2.285
 21 
0.29
 0 
LINE
 8 
0
 62 
 7 
 10 
2.285
 20 
0.29
 11 
2.315
 21 
0.29
 0 
LINE
 8 
0
 62 
 7 
 10 
2.315
 20 
0.29
 11 
2.315
 21 
0.31
 0 
LINE
 8 
0
 62 
 7 
 10 
2.315
 20 
0.31
 11 
2.305
 21 
0.31
 0 
LINE
 8 
0
 62 
 7 
 10 
2.405
 20 
0.35
 11 
2.425
 21 
0.35
 0 
LINE
 8 
0
 62 
 7 
 10 
2.405
 20 
0.29
 11 
2.425
 21 
0.29
 0 
LINE
 8 
0
 62 
 7 
 10 
2.415
 20 
0.35
 11 
2.415
 21 
0.29
 0 
LINE
 8 
0
 62 
 7 
 10 
2.455
 20 
0.29
 11 
2.455
 21 
0.35
 0 
LINE
 8 
0
 62 
 7 
 10 
2.455
 20 
0.35
 11 
2.495
 21 
0.31
 0 
LINE
 8 
0
 62 
 7 
 10 
2.495
 20 
0.35
 11 
2.495
 21 
0.29
 0 
LINE
 8 
0
 62 
 7 
 10 
2.175
 20 
0.24
 11 
2.185
 21 
0.25
 0 
LINE
 8 
0
 62 
 7 
 10 
2.185
 20 
0.25
 11 
2.205
 21 
0.25
 0 
LINE
 8 
0
 62 
 7 
 10 
2.205
 20 
0.25
 11 
2.215
 21 
0.24
 0 
LINE
 8 
0
 62 
 7 
 10 
2.215
 20 
0.24
 11 
2.215
 21 
0.23
 0 
LINE
 8 
0
 62 
 7 
 10 
2.215
 20 
0.23
 11 
2.205
 21 
0.22
 0 
LINE
 8 
0
 62 
 7 
 10 
2.205
 20 
0.22
 11 
2.185
 21 
0.22
 0 
LINE
 8 
0
 62 
 7 
 10 
2.185
 20 
0.22
 11 
2.175
 21 
0.21
 0 
LINE
 8 
0
 62 
 7 
 10 
2.175
 20 
0.21
 11 
2.175
 21 
0.19
 0 
LINE
 8 
0
 62 
 7 
 10 
2.175
 20 
0.19
 11 
2.215
 21 
0.19
 0 
LINE
 8 
0
 62 
 7 
 10 
2.275
 20 
0.24
 11 
2.285
 21 
0.25
 0 
LINE
 8 
0
 62 
 7 
 10 
2.285
 20 
0.25
 11 
2.305
 21 
0.25
 0 
LINE
 8 
0
 62 
 7 
 10 
2.305
 20 
0.25
 11 
2.315
 21 
0.24
 0 
LINE
 8 
0
 62 
 7 
 10 
2.315
 20 
0.24
 11 
2.315
 21 
0.23
 0 
LINE
 8 
0
 62 
 7 
 10 
2.315
 20 
0.23
 11 
2.305
 21 
0.22
 0 
LINE
 8 
0
 62 
 7 
 10 
2.305
 20 
0.22
 11 
2.295
 21 
0.22
 0 
LINE
 8 
0
 62 
 7 
 10 
2.305
 20 
0.22
 11 
2.315
 21 
0.21
 0 
LINE
 8 
0
 62 
 7 
 10 
2.315
 20 
0.21
 11 
2.315
 21 
0.2
 0 
LINE
 8 
0
 62 
 7 
 10 
2.315
 20 
0.2
 11 
2.305
 21 
0.19
 0 
LINE
 8 
0
 62 
 7 
 10 
2.305
 20 
0.19
 11 
2.285
 21 
0.19
 0 
LINE
 8 
0
 62 
 7 
 10 
2.285
 20 
0.19
 11 
2.275
 21 
0.2
 0 
LINE
 8 
0
 62 
 7 
 10 
2.415
 20 
0.21
 11 
2.375
 21 
0.21
 0 
LINE
 8 
0
 62 
 7 
 10 
2.375
 20 
0.21
 11 
2.375
 21 
0.22
 0 
LINE
 8 
0
 62 
 7 
 10 
2.375
 20 
0.22
 11 
2.405
 21 
0.25
 0 
LINE
 8 
0
 62 
 7 
 10 
2.405
 20 
0.25
 11 
2.405
 21 
0.19
 0 
LINE
 8 
0
 62 
 7 
 10 
2.515
 20 
0.25
 11 
2.475
 21 
0.25
 0 
LINE
 8 
0
 62 
 7 
 10 
2.475
 20 
0.25
 11 
2.475
 21 
0.23
 0 
LINE
 8 
0
 62 
 7 
 10 
2.475
 20 
0.23
 11 
2.505
 21 
0.23
 0 
LINE
 8 
0
 62 
 7 
 10 
2.505
 20 
0.23
 11 
2.515
 21 
0.22
 0 
LINE
 8 
0
 62 
 7 
 10 
2.515
 20 
0.22
 11 
2.515
 21 
0.2
 0 
LINE
 8 
0
 62 
 7 
 10 
2.515
 20 
0.2
 11 
2.505
 21 
0.19
 0 
LINE
 8 
0
 62 
 7 
 10 
2.505
 20 
0.19
 11 
2.485
 21 
0.19
 0 
LINE
 8 
0
 62 
 7 
 10 
2.485
 20 
0.19
 11 
2.475
 21 
0.2
 0 
LINE
 8 
0
 62 
 7 
 10 
1.756
 20 
0.247
 11 
1.756
 21 
0.217
 0 
LINE
 8 
0
 62 
 7 
 10 
1.756
 20 
0.217
 11 
1.776
 21 
0.197
 0 
LINE
 8 
0
 62 
 7 
 10 
1.776
 20 
0.197
 11 
1.796
 21 
0.217
 0 
LINE
 8 
0
 62 
 7 
 10 
1.796
 20 
0.217
 11 
1.796
 21 
0.247
 0 
LINE
 8 
0
 62 
 7 
 10 
1.776
 20 
0.197
 11 
1.776
 21 
0.187
 0 
LINE
 8 
0
 62 
 7 
 10 
1.836
 20 
0.247
 11 
1.836
 21 
0.237
 0 
LINE
 8 
0
 62 
 7 
 10 
1.826
 20 
0.187
 11 
1.846
 21 
0.187
 0 
LINE
 8 
0
 62 
 7 
 10 
1.826
 20 
0.217
 11 
1.836
 21 
0.217
 0 
LINE
 8 
0
 62 
 7 
 10 
1.836
 20 
0.217
 11 
1.836
 21 
0.187
 0 
LINE
 8 
0
 62 
 7 
 10 
1.876
 20 
0.227
 11 
1.876
 21 
0.187
 0 
LINE
 8 
0
 62 
 7 
 10 
1.876
 20 
0.207
 11 
1.896
 21 
0.227
 0 
LINE
 8 
0
 62 
 7 
 10 
1.896
 20 
0.227
 11 
1.906
 21 
0.227
 0 
LINE
 8 
0
 62 
 7 
 10 
1.906
 20 
0.227
 11 
1.916
 21 
0.217
 0 
LINE
 8 
0
 62 
 7 
 10 
1.916
 20 
0.217
 11 
1.916
 21 
0.187
 0 
LINE
 8 
0
 62 
 7 
 10 
1.615
 20 
0.24
 11 
1.605
 21 
0.25
 0 
LINE
 8 
0
 62 
 7 
 10 
1.605
 20 
0.25
 11 
1.585
 21 
0.25
 0 
LINE
 8 
0
 62 
 7 
 10 
1.585
 20 
0.25
 11 
1.575
 21 
0.24
 0 
LINE
 8 
0
 62 
 7 
 10 
1.575
 20 
0.24
 11 
1.575
 21 
0.2
 0 
LINE
 8 
0
 62 
 7 
 10 
1.575
 20 
0.2
 11 
1.585
 21 
0.19
 0 
LINE
 8 
0
 62 
 7 
 10 
1.585
 20 
0.19
 11 
1.615
 21 
0.19
 0 
LINE
 8 
0
 62 
 7 
 10 
1.615
 20 
0.19
 11 
1.615
 21 
0.21
 0 
LINE
 8 
0
 62 
 7 
 10 
1.615
 20 
0.21
 11 
1.605
 21 
0.21
 0 
LINE
 8 
0
 62 
 7 
 10 
1.635
 20 
0.23
 11 
1.635
 21 
0.19
 0 
LINE
 8 
0
 62 
 7 
 10 
1.635
 20 
0.21
 11 
1.655
 21 
0.23
 0 
LINE
 8 
0
 62 
 7 
 10 
1.655
 20 
0.23
 11 
1.665
 21 
0.23
 0 
LINE
 8 
0
 62 
 7 
 10 
1.665
 20 
0.23
 11 
1.675
 21 
0.22
 0 
LINE
 8 
0
 62 
 7 
 10 
1.675
 20 
0.22
 11 
1.675
 21 
0.19
 0 
LINE
 8 
0
 62 
 7 
 10 
1.725
 20 
0.25
 11 
1.735
 21 
0.25
 0 
LINE
 8 
0
 62 
 7 
 10 
1.735
 20 
0.25
 11 
1.735
 21 
0.19
 0 
LINE
 8 
0
 62 
 7 
 10 
1.735
 20 
0.22
 11 
1.725
 21 
0.23
 0 
LINE
 8 
0
 62 
 7 
 10 
1.725
 20 
0.23
 11 
1.705
 21 
0.23
 0 
LINE
 8 
0
 62 
 7 
 10 
1.705
 20 
0.23
 11 
1.695
 21 
0.22
 0 
LINE
 8 
0
 62 
 7 
 10 
1.695
 20 
0.22
 11 
1.695
 21 
0.2
 0 
LINE
 8 
0
 62 
 7 
 10 
1.695
 20 
0.2
 11 
1.705
 21 
0.19
 0 
LINE
 8 
0
 62 
 7 
 10 
1.705
 20 
0.19
 11 
1.715
 21 
0.19
 0 
LINE
 8 
0
 62 
 7 
 10 
1.715
 20 
0.19
 11 
1.735
 21 
0.21
 0 
LINE
 8 
0
 62 
 7 
 10 
1.493
 20 
0.25
 11 
1.453
 21 
0.25
 0 
LINE
 8 
0
 62 
 7 
 10 
1.453
 20 
0.25
 11 
1.453
 21 
0.23
 0 
LINE
 8 
0
 62 
 7 
 10 
1.453
 20 
0.23
 11 
1.483
 21 
0.23
 0 
LINE
 8 
0
 62 
 7 
 10 
1.483
 20 
0.23
 11 
1.493
 21 
0.22
 0 
LINE
 8 
0
 62 
 7 
 10 
1.493
 20 
0.22
 11 
1.493
 21 
0.2
 0 
LINE
 8 
0
 62 
 7 
 10 
1.493
 20 
0.2
 11 
1.483
 21 
0.19
 0 
LINE
 8 
0
 62 
 7 
 10 
1.483
 20 
0.19
 11 
1.463
 21 
0.19
 0 
LINE
 8 
0
 62 
 7 
 10 
1.463
 20 
0.19
 11 
1.453
 21 
0.2
 0 
LINE
 8 
0
 62 
 7 
 10 
1.513
 20 
0.23
 11 
1.513
 21 
0.21
 0 
LINE
 8 
0
 62 
 7 
 10 
1.513
 20 
0.21
 11 
1.533
 21 
0.19
 0 
LINE
 8 
0
 62 
 7 
 10 
1.533
 20 
0.19
 11 
1.553
 21 
0.21
 0 
LINE
 8 
0
 62 
 7 
 10 
1.553
 20 
0.21
 11 
1.553
 21 
0.23
 0 
LINE
 8 
0
 62 
 7 
 10 
1.376
 20 
0.191
 11 
1.366
 21 
0.201
 0 
LINE
 8 
0
 62 
 7 
 10 
1.366
 20 
0.201
 11 
1.366
 21 
0.221
 0 
LINE
 8 
0
 62 
 7 
 10 
1.366
 20 
0.221
 11 
1.376
 21 
0.231
 0 
LINE
 8 
0
 62 
 7 
 10 
1.376
 20 
0.231
 11 
1.386
 21 
0.231
 0 
LINE
 8 
0
 62 
 7 
 10 
1.386
 20 
0.231
 11 
1.396
 21 
0.221
 0 
LINE
 8 
0
 62 
 7 
 10 
1.396
 20 
0.221
 11 
1.396
 21 
0.211
 0 
LINE
 8 
0
 62 
 7 
 10 
1.396
 20 
0.221
 11 
1.406
 21 
0.231
 0 
LINE
 8 
0
 62 
 7 
 10 
1.406
 20 
0.231
 11 
1.416
 21 
0.231
 0 
LINE
 8 
0
 62 
 7 
 10 
1.416
 20 
0.231
 11 
1.426
 21 
0.221
 0 
LINE
 8 
0
 62 
 7 
 10 
1.426
 20 
0.221
 11 
1.426
 21 
0.201
 0 
LINE
 8 
0
 62 
 7 
 10 
1.426
 20 
0.201
 11 
1.416
 21 
0.191
 0 
LINE
 8 
0
 62 
 7 
 10 
1.366
 20 
0.251
 11 
1.396
 21 
0.251
 0 
LINE
 8 
0
 62 
 7 
 10 
1.396
 20 
0.251
 11 
1.416
 21 
0.271
 0 
LINE
 8 
0
 62 
 7 
 10 
1.416
 20 
0.271
 11 
1.396
 21 
0.291
 0 
LINE
 8 
0
 62 
 7 
 10 
1.396
 20 
0.291
 11 
1.366
 21 
0.291
 0 
LINE
 8 
0
 62 
 7 
 10 
1.416
 20 
0.271
 11 
1.426
 21 
0.271
 0 
LINE
 8 
0
 62 
 7 
 10 
1.376
 20 
0.311
 11 
1.366
 21 
0.321
 0 
LINE
 8 
0
 62 
 7 
 10 
1.366
 20 
0.321
 11 
1.366
 21 
0.341
 0 
LINE
 8 
0
 62 
 7 
 10 
1.366
 20 
0.341
 11 
1.376
 21 
0.351
 0 
LINE
 8 
0
 62 
 7 
 10 
1.376
 20 
0.351
 11 
1.386
 21 
0.351
 0 
LINE
 8 
0
 62 
 7 
 10 
1.386
 20 
0.351
 11 
1.396
 21 
0.341
 0 
LINE
 8 
0
 62 
 7 
 10 
1.396
 20 
0.341
 11 
1.396
 21 
0.331
 0 
LINE
 8 
0
 62 
 7 
 10 
1.396
 20 
0.341
 11 
1.406
 21 
0.351
 0 
LINE
 8 
0
 62 
 7 
 10 
1.406
 20 
0.351
 11 
1.416
 21 
0.351
 0 
LINE
 8 
0
 62 
 7 
 10 
1.416
 20 
0.351
 11 
1.426
 21 
0.341
 0 
LINE
 8 
0
 62 
 7 
 10 
1.426
 20 
0.341
 11 
1.426
 21 
0.321
 0 
LINE
 8 
0
 62 
 7 
 10 
1.426
 20 
0.321
 11 
1.416
 21 
0.311
 0 
LINE
 8 
0
 62 
 7 
 10 
1.335
 20 
0.2
 11 
1.275
 21 
0.2
 0 
LINE
 8 
0
 62 
 7 
 10 
1.275
 20 
0.2
 11 
1.275
 21 
0.23
 0 
LINE
 8 
0
 62 
 7 
 10 
1.275
 20 
0.23
 11 
1.285
 21 
0.24
 0 
LINE
 8 
0
 62 
 7 
 10 
1.285
 20 
0.24
 11 
1.295
 21 
0.24
 0 
LINE
 8 
0
 62 
 7 
 10 
1.295
 20 
0.24
 11 
1.305
 21 
0.23
 0 
LINE
 8 
0
 62 
 7 
 10 
1.305
 20 
0.23
 11 
1.305
 21 
0.2
 0 
LINE
 8 
0
 62 
 7 
 10 
1.305
 20 
0.21
 11 
1.335
 21 
0.24
 0 
LINE
 8 
0
 62 
 7 
 10 
1.275
 20 
0.3
 11 
1.275
 21 
0.26
 0 
LINE
 8 
0
 62 
 7 
 10 
1.275
 20 
0.26
 11 
1.335
 21 
0.26
 0 
LINE
 8 
0
 62 
 7 
 10 
1.335
 20 
0.26
 11 
1.335
 21 
0.3
 0 
LINE
 8 
0
 62 
 7 
 10 
1.305
 20 
0.26
 11 
1.305
 21 
0.29
 0 
LINE
 8 
0
 62 
 7 
 10 
1.285
 20 
0.36
 11 
1.275
 21 
0.35
 0 
LINE
 8 
0
 62 
 7 
 10 
1.275
 20 
0.35
 11 
1.275
 21 
0.33
 0 
LINE
 8 
0
 62 
 7 
 10 
1.275
 20 
0.33
 11 
1.285
 21 
0.32
 0 
LINE
 8 
0
 62 
 7 
 10 
1.285
 20 
0.32
 11 
1.295
 21 
0.32
 0 
LINE
 8 
0
 62 
 7 
 10 
1.295
 20 
0.32
 11 
1.305
 21 
0.33
 0 
LINE
 8 
0
 62 
 7 
 10 
1.305
 20 
0.33
 11 
1.305
 21 
0.35
 0 
LINE
 8 
0
 62 
 7 
 10 
1.305
 20 
0.35
 11 
1.315
 21 
0.36
 0 
LINE
 8 
0
 62 
 7 
 10 
1.315
 20 
0.36
 11 
1.325
 21 
0.36
 0 
LINE
 8 
0
 62 
 7 
 10 
1.325
 20 
0.36
 11 
1.335
 21 
0.35
 0 
LINE
 8 
0
 62 
 7 
 10 
1.335
 20 
0.35
 11 
1.335
 21 
0.33
 0 
LINE
 8 
0
 62 
 7 
 10 
1.335
 20 
0.33
 11 
1.325
 21 
0.32
 0 
LINE
 8 
0
 62 
 7 
 10 
1.275
 20 
0.42
 11 
1.275
 21 
0.38
 0 
LINE
 8 
0
 62 
 7 
 10 
1.275
 20 
0.38
 11 
1.335
 21 
0.38
 0 
LINE
 8 
0
 62 
 7 
 10 
1.335
 20 
0.38
 11 
1.335
 21 
0.42
 0 
LINE
 8 
0
 62 
 7 
 10 
1.305
 20 
0.38
 11 
1.305
 21 
0.41
 0 
LINE
 8 
0
 62 
 7 
 10 
1.275
 20 
0.44
 11 
1.275
 21 
0.48
 0 
LINE
 8 
0
 62 
 7 
 10 
1.275
 20 
0.46
 11 
1.335
 21 
0.46
 0 
CIRCLE
 8 
0
 62 
 7 
 10 
0.55
 20 
0.1
 40 
0.075
 0 
CIRCLE
 8 
0
 62 
 7 
 10 
0.55
 20 
0.1
 40 
0.062
 0 
CIRCLE
 8 
0
 62 
 7 
 10 
0.2
 20 
1.95
 40 
0.13
 0 
CIRCLE
 8 
0
 62 
 7 
 10 
0.2
 20 
1.95
 40 
0.096
 0 
LINE
 8 
0
 62 
 7 
 10 
2.319
 20 
0.731
 11 
2.381
 21 
0.731
 0 
LINE
 8 
0
 62 
 7 
 10 
2.381
 20 
0.731
 11 
2.381
 21 
0.669
 0 
LINE
 8 
0
 62 
 7 
 10 
2.381
 20 
0.669
 11 
2.319
 21 
0.669
 0 
LINE
 8 
0
 62 
 7 
 10 
2.319
 20 
0.669
 11 
2.319
 21 
0.731
 0 
CIRCLE
 8 
0
 62 
 7 
 10 
2.35
 20 
0.7
 40 
0.014
 0 
LINE
 8 
0
 62 
 7 
 10 
0.063
 20 
1.875
 11 
0.025
 21 
1.875
 0 
LINE
 8 
0
 62 
 7 
 10 
0.025
 20 
1.875
 11 
0.025
 21 
1.894
 0 
LINE
 8 
0
 62 
 7 
 10 
0.025
 20 
1.894
 11 
0.031
 21 
1.9
 0 
LINE
 8 
0
 62 
 7 
 10 
0.031
 20 
1.9
 11 
0.038
 21 
1.9
 0 
LINE
 8 
0
 62 
 7 
 10 
0.038
 20 
1.9
 11 
0.044
 21 
1.894
 0 
LINE
 8 
0
 62 
 7 
 10 
0.044
 20 
1.894
 11 
0.044
 21 
1.875
 0 
LINE
 8 
0
 62 
 7 
 10 
0.044
 20 
1.881
 11 
0.063
 21 
1.9
 0 
LINE
 8 
0
 62 
 7 
 10 
0.05
 20 
1.913
 11 
0.05
 21 
1.938
 0 
LINE
 8 
0
 62 
 7 
 10 
0.05
 20 
1.938
 11 
0.044
 21 
1.938
 0 
LINE
 8 
0
 62 
 7 
 10 
0.044
 20 
1.938
 11 
0.038
 21 
1.932
 0 
LINE
 8 
0
 62 
 7 
 10 
0.038
 20 
1.932
 11 
0.038
 21 
1.919
 0 
LINE
 8 
0
 62 
 7 
 10 
0.038
 20 
1.919
 11 
0.044
 21 
1.913
 0 
LINE
 8 
0
 62 
 7 
 10 
0.044
 20 
1.913
 11 
0.057
 21 
1.913
 0 
LINE
 8 
0
 62 
 7 
 10 
0.057
 20 
1.913
 11 
0.063
 21 
1.919
 0 
LINE
 8 
0
 62 
 7 
 10 
0.063
 20 
1.919
 11 
0.063
 21 
1.932
 0 
LINE
 8 
0
 62 
 7 
 10 
0.038
 20 
1.976
 11 
0.038
 21 
1.957
 0 
LINE
 8 
0
 62 
 7 
 10 
0.038
 20 
1.957
 11 
0.044
 21 
1.951
 0 
LINE
 8 
0
 62 
 7 
 10 
0.044
 20 
1.951
 11 
0.05
 21 
1.957
 0 
LINE
 8 
0
 62 
 7 
 10 
0.05
 20 
1.957
 11 
0.05
 21 
1.97
 0 
LINE
 8 
0
 62 
 7 
 10 
0.05
 20 
1.97
 11 
0.057
 21 
1.976
 0 
LINE
 8 
0
 62 
 7 
 10 
0.057
 20 
1.976
 11 
0.063
 21 
1.97
 0 
LINE
 8 
0
 62 
 7 
 10 
0.063
 20 
1.97
 11 
0.063
 21 
1.951
 0 
LINE
 8 
0
 62 
 7 
 10 
0.05
 20 
1.989
 11 
0.05
 21 
2.014
 0 
LINE
 8 
0
 62 
 7 
 10 
0.05
 20 
2.014
 11 
0.044
 21 
2.014
 0 
LINE
 8 
0
 62 
 7 
 10 
0.044
 20 
2.014
 11 
0.038
 21 
2.008
 0 
LINE
 8 
0
 62 
 7 
 10 
0.038
 20 
2.008
 11 
0.038
 21 
1.995
 0 
LINE
 8 
0
 62 
 7 
 10 
0.038
 20 
1.995
 11 
0.044
 21 
1.989
 0 
LINE
 8 
0
 62 
 7 
 10 
0.044
 20 
1.989
 11 
0.057
 21 
1.989
 0 
LINE
 8 
0
 62 
 7 
 10 
0.057
 20 
1.989
 11 
0.063
 21 
1.995
 0 
LINE
 8 
0
 62 
 7 
 10 
0.063
 20 
1.995
 11 
0.063
 21 
2.008
 0 
LINE
 8 
0
 62 
 7 
 10 
0.025
 20 
2.033
 11 
0.057
 21 
2.033
 0 
LINE
 8 
0
 62 
 7 
 10 
0.057
 20 
2.033
 11 
0.063
 21 
2.04
 0 
LINE
 8 
0
 62 
 7 
 10 
0.063
 20 
2.04
 11 
0.063
 21 
2.046
 0 
LINE
 8 
0
 62 
 7 
 10 
0.063
 20 
2.046
 11 
0.057
 21 
2.052
 0 
LINE
 8 
0
 62 
 7 
 10 
0.038
 20 
2.027
 11 
0.038
 21 
2.046
 0 
CIRCLE
 8 
0
 62 
 7 
 10 
2.25
 20 
0.75
 40 
0.031
 0 
CIRCLE
 8 
0
 62 
 7 
 10 
2.25
 20 
0.75
 40 
0.014
 0 
CIRCLE
 8 
0
 62 
 7 
 10 
2.35
 20 
0.8
 40 
0.031
 0 
CIRCLE
 8 
0
 62 
 7 
 10 
2.35
 20 
0.8
 40 
0.014
 0 
CIRCLE
 8 
0
 62 
 7 
 10 
2.25
 20 
0.85
 40 
0.031
 0 
CIRCLE
 8 
0
 62 
 7 
 10 
2.25
 20 
0.85
 40 
0.014
 0 
CIRCLE
 8 
0
 62 
 7 
 10 
2.35
 20 
0.9
 40 
0.031
 0 
CIRCLE
 8 
0
 62 
 7 
 10 
2.35
 20 
0.9
 40 
0.014
 0 
CIRCLE
 8 
0
 62 
 7 
 10 
2.25
 20 
0.95
 40 
0.031
 0 
CIRCLE
 8 
0
 62 
 7 
 10 
2.25
 20 
0.95
 40 
0.014
 0 
CIRCLE
 8 
0
 62 
 7 
 10 
2.35
 20 
1.0
 40 
0.031
 0 
CIRCLE
 8 
0
 62 
 7 
 10 
2.35
 20 
1.0
 40 
0.014
 0 
CIRCLE
 8 
0
 62 
 7 
 10 
2.25
 20 
1.05
 40 
0.031
 0 
CIRCLE
 8 
0
 62 
 7 
 10 
2.25
 20 
1.05
 40 
0.014
 0 
CIRCLE
 8 
0
 62 
 7 
 10 
2.6
 20 
0.65
 40 
0.08
 0 
CIRCLE
 8 
0
 62 
 7 
 10 
2.6
 20 
0.65
 40 
0.062
 0 
CIRCLE
 8 
0
 62 
 7 
 10 
2.6
 20 
1.1
 40 
0.08
 0 
CIRCLE
 8 
0
 62 
 7 
 10 
2.6
 20 
1.1
 40 
0.062
 0 
LINE
 8 
0
 62 
 7 
 10 
2.2
 20 
0.55
 11 
2.2
 21 
1.2
 0 
LINE
 8 
0
 62 
 7 
 10 
3.0
 20 
1.2
 11 
2.2
 21 
1.2
 0 
LINE
 8 
0
 62 
 7 
 10 
3.0
 20 
1.2
 11 
3.0
 21 
0.55
 0 
LINE
 8 
0
 62 
 7 
 10 
2.2
 20 
0.55
 11 
3.0
 21 
0.55
 0 
LINE
 8 
0
 62 
 7 
 10 
2.331
 20 
0.525
 11 
2.35
 21 
0.525
 0 
LINE
 8 
0
 62 
 7 
 10 
2.35
 20 
0.525
 11 
2.35
 21 
0.493
 0 
LINE
 8 
0
 62 
 7 
 10 
2.35
 20 
0.493
 11 
2.344
 21 
0.487
 0 
LINE
 8 
0
 62 
 7 
 10 
2.344
 20 
0.487
 11 
2.331
 21 
0.487
 0 
LINE
 8 
0
 62 
 7 
 10 
2.331
 20 
0.487
 11 
2.325
 21 
0.493
 0 
LINE
 8 
0
 62 
 7 
 10 
2.388
 20 
0.525
 11 
2.363
 21 
0.525
 0 
LINE
 8 
0
 62 
 7 
 10 
2.363
 20 
0.525
 11 
2.363
 21 
0.512
 0 
LINE
 8 
0
 62 
 7 
 10 
2.363
 20 
0.512
 11 
2.382
 21 
0.512
 0 
LINE
 8 
0
 62 
 7 
 10 
2.382
 20 
0.512
 11 
2.388
 21 
0.506
 0 
LINE
 8 
0
 62 
 7 
 10 
2.388
 20 
0.506
 11 
2.388
 21 
0.493
 0 
LINE
 8 
0
 62 
 7 
 10 
2.388
 20 
0.493
 11 
2.382
 21 
0.487
 0 
LINE
 8 
0
 62 
 7 
 10 
2.382
 20 
0.487
 11 
2.369
 21 
0.487
 0 
LINE
 8 
0
 62 
 7 
 10 
2.369
 20 
0.487
 11 
2.363
 21 
0.493
 0 
CIRCLE
 8 
0
 62 
 7 
 10 
2.0
 20 
1.35
 40 
0.028
 0 
CIRCLE
 8 
0
 62 
 7 
 10 
2.0
 20 
1.35
 40 
0.014
 0 
CIRCLE
 8 
0
 62 
 7 
 10 
2.0
 20 
1.75
 40 
0.028
 0 
CIRCLE
 8 
0
 62 
 7 
 10 
2.0
 20 
1.75
 40 
0.014
 0 
LINE
 8 
0
 62 
 7 
 10 
2.05
 20 
1.435
 11 
1.95
 21 
1.435
 0 
LINE
 8 
0
 62 
 7 
 10 
1.95
 20 
1.665
 11 
1.95
 21 
1.435
 0 
LINE
 8 
0
 62 
 7 
 10 
1.95
 20 
1.665
 11 
2.05
 21 
1.665
 0 
LINE
 8 
0
 62 
 7 
 10 
2.05
 20 
1.435
 11 
2.05
 21 
1.665
 0 
LINE
 8 
0
 62 
 7 
 10 
2.0
 20 
1.435
 11 
2.0
 21 
1.4
 0 
LINE
 8 
0
 62 
 7 
 10 
2.0
 20 
1.665
 11 
2.0
 21 
1.7
 0 
LINE
 8 
0
 62 
 7 
 10 
1.938
 20 
1.425
 11 
1.9
 21 
1.425
 0 
LINE
 8 
0
 62 
 7 
 10 
1.9
 20 
1.425
 11 
1.9
 21 
1.444
 0 
LINE
 8 
0
 62 
 7 
 10 
1.9
 20 
1.444
 11 
1.906
 21 
1.45
 0 
LINE
 8 
0
 62 
 7 
 10 
1.906
 20 
1.45
 11 
1.913
 21 
1.45
 0 
LINE
 8 
0
 62 
 7 
 10 
1.913
 20 
1.45
 11 
1.919
 21 
1.444
 0 
LINE
 8 
0
 62 
 7 
 10 
1.919
 20 
1.444
 11 
1.919
 21 
1.425
 0 
LINE
 8 
0
 62 
 7 
 10 
1.919
 20 
1.431
 11 
1.938
 21 
1.45
 0 
LINE
 8 
0
 62 
 7 
 10 
1.906
 20 
1.463
 11 
1.9
 21 
1.469
 0 
LINE
 8 
0
 62 
 7 
 10 
1.9
 20 
1.469
 11 
1.9
 21 
1.482
 0 
LINE
 8 
0
 62 
 7 
 10 
1.9
 20 
1.482
 11 
1.906
 21 
1.488
 0 
LINE
 8 
0
 62 
 7 
 10 
1.906
 20 
1.488
 11 
1.913
 21 
1.488
 0 
LINE
 8 
0
 62 
 7 
 10 
1.913
 20 
1.488
 11 
1.919
 21 
1.482
 0 
LINE
 8 
0
 62 
 7 
 10 
1.919
 20 
1.482
 11 
1.919
 21 
1.469
 0 
LINE
 8 
0
 62 
 7 
 10 
1.919
 20 
1.469
 11 
1.925
 21 
1.463
 0 
LINE
 8 
0
 62 
 7 
 10 
1.925
 20 
1.463
 11 
1.938
 21 
1.463
 0 
LINE
 8 
0
 62 
 7 
 10 
1.938
 20 
1.463
 11 
1.938
 21 
1.488
 0 
LINE
 8 
0
 62 
 7 
 10 
1.66
 20 
1.715
 11 
1.74
 21 
1.715
 0 
LINE
 8 
0
 62 
 7 
 10 
1.74
 20 
1.715
 11 
1.74
 21 
1.635
 0 
LINE
 8 
0
 62 
 7 
 10 
1.74
 20 
1.635
 11 
1.66
 21 
1.635
 0 
LINE
 8 
0
 62 
 7 
 10 
1.66
 20 
1.635
 11 
1.66
 21 
1.715
 0 
CIRCLE
 8 
0
 62 
 7 
 10 
1.7
 20 
1.675
 40 
0.018
 0 
CIRCLE
 8 
0
 62 
 7 
 10 
1.7
 20 
1.475
 40 
0.04
 0 
CIRCLE
 8 
0
 62 
 7 
 10 
1.7
 20 
1.475
 40 
0.018
 0 
CIRCLE
 8 
0
 62 
 7 
 10 
1.7
 20 
1.575
 40 
0.2
 0 
LINE
 8 
0
 62 
 7 
 10 
1.491
 20 
1.755
 11 
1.549
 21 
1.755
 0 
LINE
 8 
0
 62 
 7 
 10 
1.52
 20 
1.784
 11 
1.52
 21 
1.726
 0 
LINE
 8 
0
 62 
 7 
 10 
1.506
 20 
1.375
 11 
1.5
 21 
1.369
 0 
LINE
 8 
0
 62 
 7 
 10 
1.5
 20 
1.369
 11 
1.5
 21 
1.356
 0 
LINE
 8 
0
 62 
 7 
 10 
1.5
 20 
1.356
 11 
1.506
 21 
1.35
 0 
LINE
 8 
0
 62 
 7 
 10 
1.506
 20 
1.35
 11 
1.532
 21 
1.35
 0 
LINE
 8 
0
 62 
 7 
 10 
1.532
 20 
1.35
 11 
1.538
 21 
1.356
 0 
LINE
 8 
0
 62 
 7 
 10 
1.538
 20 
1.356
 11 
1.538
 21 
1.369
 0 
LINE
 8 
0
 62 
 7 
 10 
1.538
 20 
1.369
 11 
1.532
 21 
1.375
 0 
LINE
 8 
0
 62 
 7 
 10 
1.506
 20 
1.394
 11 
1.5
 21 
1.401
 0 
LINE
 8 
0
 62 
 7 
 10 
1.5
 20 
1.401
 11 
1.538
 21 
1.401
 0 
LINE
 8 
0
 62 
 7 
 10 
1.538
 20 
1.394
 11 
1.538
 21 
1.407
 0 
CIRCLE
 8 
0
 62 
 7 
 10 
2.175
 20 
1.35
 40 
0.028
 0 
CIRCLE
 8 
0
 62 
 7 
 10 
2.175
 20 
1.35
 40 
0.014
 0 
CIRCLE
 8 
0
 62 
 7 
 10 
2.175
 20 
1.75
 40 
0.028
 0 
CIRCLE
 8 
0
 62 
 7 
 10 
2.175
 20 
1.75
 40 
0.014
 0 
LINE
 8 
0
 62 
 7 
 10 
2.225
 20 
1.435
 11 
2.125
 21 
1.435
 0 
LINE
 8 
0
 62 
 7 
 10 
2.125
 20 
1.665
 11 
2.125
 21 
1.435
 0 
LINE
 8 
0
 62 
 7 
 10 
2.125
 20 
1.665
 11 
2.225
 21 
1.665
 0 
LINE
 8 
0
 62 
 7 
 10 
2.225
 20 
1.435
 11 
2.225
 21 
1.665
 0 
LINE
 8 
0
 62 
 7 
 10 
2.175
 20 
1.435
 11 
2.175
 21 
1.4
 0 
LINE
 8 
0
 62 
 7 
 10 
2.175
 20 
1.665
 11 
2.175
 21 
1.7
 0 
LINE
 8 
0
 62 
 7 
 10 
2.113
 20 
1.425
 11 
2.075
 21 
1.425
 0 
LINE
 8 
0
 62 
 7 
 10 
2.075
 20 
1.425
 11 
2.075
 21 
1.444
 0 
LINE
 8 
0
 62 
 7 
 10 
2.075
 20 
1.444
 11 
2.081
 21 
1.45
 0 
LINE
 8 
0
 62 
 7 
 10 
2.081
 20 
1.45
 11 
2.088
 21 
1.45
 0 
LINE
 8 
0
 62 
 7 
 10 
2.088
 20 
1.45
 11 
2.094
 21 
1.444
 0 
LINE
 8 
0
 62 
 7 
 10 
2.094
 20 
1.444
 11 
2.094
 21 
1.425
 0 
LINE
 8 
0
 62 
 7 
 10 
2.094
 20 
1.431
 11 
2.113
 21 
1.45
 0 
LINE
 8 
0
 62 
 7 
 10 
2.081
 20 
1.469
 11 
2.075
 21 
1.476
 0 
LINE
 8 
0
 62 
 7 
 10 
2.075
 20 
1.476
 11 
2.113
 21 
1.476
 0 
LINE
 8 
0
 62 
 7 
 10 
2.113
 20 
1.469
 11 
2.113
 21 
1.482
 0 
CIRCLE
 8 
0
 62 
 7 
 10 
1.1
 20 
1.1
 40 
0.028
 0 
CIRCLE
 8 
0
 62 
 7 
 10 
1.1
 20 
1.1
 40 
0.014
 0 
CIRCLE
 8 
0
 62 
 7 
 10 
1.2
 20 
1.1
 40 
0.028
 0 
CIRCLE
 8 
0
 62 
 7 
 10 
1.2
 20 
1.1
 40 
0.014
 0 
CIRCLE
 8 
0
 62 
 7 
 10 
1.3
 20 
1.1
 40 
0.028
 0 
CIRCLE
 8 
0
 62 
 7 
 10 
1.3
 20 
1.1
 40 
0.014
 0 
LINE
 8 
0
 62 
 7 
 10 
1.054
 20 
1.15
 11 
1.054
 21 
1.055
 0 
LINE
 8 
0
 62 
 7 
 10 
1.054
 20 
1.055
 11 
1.099
 21 
1.01
 0 
LINE
 8 
0
 62 
 7 
 10 
1.099
 20 
1.01
 11 
1.301
 21 
1.01
 0 
LINE
 8 
0
 62 
 7 
 10 
1.301
 20 
1.01
 11 
1.346
 21 
1.055
 0 
LINE
 8 
0
 62 
 7 
 10 
1.346
 20 
1.055
 11 
1.346
 21 
1.15
 0 
LINE
 8 
0
 62 
 7 
 10 
1.346
 20 
1.15
 11 
1.054
 21 
1.15
 0 
LINE
 8 
0
 62 
 7 
 10 
1.4
 20 
1.119
 11 
1.394
 21 
1.125
 0 
LINE
 8 
0
 62 
 7 
 10 
1.394
 20 
1.125
 11 
1.381
 21 
1.125
 0 
LINE
 8 
0
 62 
 7 
 10 
1.381
 20 
1.125
 11 
1.375
 21 
1.119
 0 
LINE
 8 
0
 62 
 7 
 10 
1.375
 20 
1.119
 11 
1.375
 21 
1.093
 0 
LINE
 8 
0
 62 
 7 
 10 
1.375
 20 
1.093
 11 
1.381
 21 
1.087
 0 
LINE
 8 
0
 62 
 7 
 10 
1.381
 20 
1.087
 11 
1.388
 21 
1.087
 0 
LINE
 8 
0
 62 
 7 
 10 
1.388
 20 
1.087
 11 
1.4
 21 
1.1
 0 
LINE
 8 
0
 62 
 7 
 10 
1.4
 20 
1.1
 11 
1.4
 21 
1.119
 0 
LINE
 8 
0
 62 
 7 
 10 
1.388
 20 
1.1
 11 
1.4
 21 
1.087
 0 
LINE
 8 
0
 62 
 7 
 10 
1.419
 20 
1.119
 11 
1.426
 21 
1.125
 0 
LINE
 8 
0
 62 
 7 
 10 
1.426
 20 
1.125
 11 
1.426
 21 
1.087
 0 
LINE
 8 
0
 62 
 7 
 10 
1.419
 20 
1.087
 11 
1.432
 21 
1.087
 0 
CIRCLE
 8 
0
 62 
 7 
 10 
1.1
 20 
0.8
 40 
0.028
 0 
CIRCLE
 8 
0
 62 
 7 
 10 
1.1
 20 
0.8
 40 
0.014
 0 
CIRCLE
 8 
0
 62 
 7 
 10 
1.2
 20 
0.8
 40 
0.028
 0 
CIRCLE
 8 
0
 62 
 7 
 10 
1.2
 20 
0.8
 40 
0.014
 0 
CIRCLE
 8 
0
 62 
 7 
 10 
1.3
 20 
0.8
 40 
0.028
 0 
CIRCLE
 8 
0
 62 
 7 
 10 
1.3
 20 
0.8
 40 
0.014
 0 
LINE
 8 
0
 62 
 7 
 10 
1.054
 20 
0.85
 11 
1.054
 21 
0.755
 0 
LINE
 8 
0
 62 
 7 
 10 
1.054
 20 
0.755
 11 
1.099
 21 
0.71
 0 
LINE
 8 
0
 62 
 7 
 10 
1.099
 20 
0.71
 11 
1.301
 21 
0.71
 0 
LINE
 8 
0
 62 
 7 
 10 
1.301
 20 
0.71
 11 
1.346
 21 
0.755
 0 
LINE
 8 
0
 62 
 7 
 10 
1.346
 20 
0.755
 11 
1.346
 21 
0.85
 0 
LINE
 8 
0
 62 
 7 
 10 
1.346
 20 
0.85
 11 
1.054
 21 
0.85
 0 
LINE
 8 
0
 62 
 7 
 10 
1.4
 20 
0.819
 11 
1.394
 21 
0.825
 0 
LINE
 8 
0
 62 
 7 
 10 
1.394
 20 
0.825
 11 
1.381
 21 
0.825
 0 
LINE
 8 
0
 62 
 7 
 10 
1.381
 20 
0.825
 11 
1.375
 21 
0.819
 0 
LINE
 8 
0
 62 
 7 
 10 
1.375
 20 
0.819
 11 
1.375
 21 
0.793
 0 
LINE
 8 
0
 62 
 7 
 10 
1.375
 20 
0.793
 11 
1.381
 21 
0.787
 0 
LINE
 8 
0
 62 
 7 
 10 
1.381
 20 
0.787
 11 
1.388
 21 
0.787
 0 
LINE
 8 
0
 62 
 7 
 10 
1.388
 20 
0.787
 11 
1.4
 21 
0.8
 0 
LINE
 8 
0
 62 
 7 
 10 
1.4
 20 
0.8
 11 
1.4
 21 
0.819
 0 
LINE
 8 
0
 62 
 7 
 10 
1.388
 20 
0.8
 11 
1.4
 21 
0.787
 0 
LINE
 8 
0
 62 
 7 
 10 
1.413
 20 
0.819
 11 
1.419
 21 
0.825
 0 
LINE
 8 
0
 62 
 7 
 10 
1.419
 20 
0.825
 11 
1.432
 21 
0.825
 0 
LINE
 8 
0
 62 
 7 
 10 
1.432
 20 
0.825
 11 
1.438
 21 
0.819
 0 
LINE
 8 
0
 62 
 7 
 10 
1.438
 20 
0.819
 11 
1.438
 21 
0.812
 0 
LINE
 8 
0
 62 
 7 
 10 
1.438
 20 
0.812
 11 
1.432
 21 
0.806
 0 
LINE
 8 
0
 62 
 7 
 10 
1.432
 20 
0.806
 11 
1.419
 21 
0.806
 0 
LINE
 8 
0
 62 
 7 
 10 
1.419
 20 
0.806
 11 
1.413
 21 
0.8
 0 
LINE
 8 
0
 62 
 7 
 10 
1.413
 20 
0.8
 11 
1.413
 21 
0.787
 0 
LINE
 8 
0
 62 
 7 
 10 
1.413
 20 
0.787
 11 
1.438
 21 
0.787
 0 
CIRCLE
 8 
0
 62 
 7 
 10 
1.7
 20 
0.9
 40 
0.028
 0 
CIRCLE
 8 
0
 62 
 7 
 10 
1.7
 20 
0.9
 40 
0.014
 0 
CIRCLE
 8 
0
 62 
 7 
 10 
1.7
 20 
1.3
 40 
0.028
 0 
CIRCLE
 8 
0
 62 
 7 
 10 
1.7
 20 
1.3
 40 
0.014
 0 
LINE
 8 
0
 62 
 7 
 10 
1.75
 20 
0.985
 11 
1.65
 21 
0.985
 0 
LINE
 8 
0
 62 
 7 
 10 
1.65
 20 
1.215
 11 
1.65
 21 
0.985
 0 
LINE
 8 
0
 62 
 7 
 10 
1.65
 20 
1.215
 11 
1.75
 21 
1.215
 0 
LINE
 8 
0
 62 
 7 
 10 
1.75
 20 
0.985
 11 
1.75
 21 
1.215
 0 
LINE
 8 
0
 62 
 7 
 10 
1.7
 20 
0.985
 11 
1.7
 21 
0.95
 0 
LINE
 8 
0
 62 
 7 
 10 
1.7
 20 
1.215
 11 
1.7
 21 
1.25
 0 
LINE
 8 
0
 62 
 7 
 10 
1.638
 20 
0.975
 11 
1.6
 21 
0.975
 0 
LINE
 8 
0
 62 
 7 
 10 
1.6
 20 
0.975
 11 
1.6
 21 
0.994
 0 
LINE
 8 
0
 62 
 7 
 10 
1.6
 20 
0.994
 11 
1.606
 21 
1.0
 0 
LINE
 8 
0
 62 
 7 
 10 
1.606
 20 
1.0
 11 
1.613
 21 
1.0
 0 
LINE
 8 
0
 62 
 7 
 10 
1.613
 20 
1.0
 11 
1.619
 21 
0.994
 0 
LINE
 8 
0
 62 
 7 
 10 
1.619
 20 
0.994
 11 
1.619
 21 
0.975
 0 
LINE
 8 
0
 62 
 7 
 10 
1.619
 20 
0.981
 11 
1.638
 21 
1.0
 0 
LINE
 8 
0
 62 
 7 
 10 
1.606
 20 
1.013
 11 
1.6
 21 
1.019
 0 
LINE
 8 
0
 62 
 7 
 10 
1.6
 20 
1.019
 11 
1.6
 21 
1.032
 0 
LINE
 8 
0
 62 
 7 
 10 
1.6
 20 
1.032
 11 
1.606
 21 
1.038
 0 
LINE
 8 
0
 62 
 7 
 10 
1.606
 20 
1.038
 11 
1.613
 21 
1.038
 0 
LINE
 8 
0
 62 
 7 
 10 
1.613
 20 
1.038
 11 
1.619
 21 
1.032
 0 
LINE
 8 
0
 62 
 7 
 10 
1.619
 20 
1.032
 11 
1.619
 21 
1.026
 0 
LINE
 8 
0
 62 
 7 
 10 
1.619
 20 
1.032
 11 
1.625
 21 
1.038
 0 
LINE
 8 
0
 62 
 7 
 10 
1.625
 20 
1.038
 11 
1.632
 21 
1.038
 0 
LINE
 8 
0
 62 
 7 
 10 
1.632
 20 
1.038
 11 
1.638
 21 
1.032
 0 
LINE
 8 
0
 62 
 7 
 10 
1.638
 20 
1.032
 11 
1.638
 21 
1.019
 0 
LINE
 8 
0
 62 
 7 
 10 
1.638
 20 
1.019
 11 
1.632
 21 
1.013
 0 
CIRCLE
 8 
0
 62 
 7 
 10 
1.9
 20 
0.9
 40 
0.028
 0 
CIRCLE
 8 
0
 62 
 7 
 10 
1.9
 20 
0.9
 40 
0.014
 0 
CIRCLE
 8 
0
 62 
 7 
 10 
1.9
 20 
1.3
 40 
0.028
 0 
CIRCLE
 8 
0
 62 
 7 
 10 
1.9
 20 
1.3
 40 
0.014
 0 
LINE
 8 
0
 62 
 7 
 10 
1.95
 20 
0.985
 11 
1.85
 21 
0.985
 0 
LINE
 8 
0
 62 
 7 
 10 
1.85
 20 
1.215
 11 
1.85
 21 
0.985
 0 
LINE
 8 
0
 62 
 7 
 10 
1.85
 20 
1.215
 11 
1.95
 21 
1.215
 0 
LINE
 8 
0
 62 
 7 
 10 
1.95
 20 
0.985
 11 
1.95
 21 
1.215
 0 
LINE
 8 
0
 62 
 7 
 10 
1.9
 20 
0.985
 11 
1.9
 21 
0.95
 0 
LINE
 8 
0
 62 
 7 
 10 
1.9
 20 
1.215
 11 
1.9
 21 
1.25
 0 
LINE
 8 
0
 62 
 7 
 10 
1.838
 20 
0.975
 11 
1.8
 21 
0.975
 0 
LINE
 8 
0
 62 
 7 
 10 
1.8
 20 
0.975
 11 
1.8
 21 
0.994
 0 
LINE
 8 
0
 62 
 7 
 10 
1.8
 20 
0.994
 11 
1.806
 21 
1.0
 0 
LINE
 8 
0
 62 
 7 
 10 
1.806
 20 
1.0
 11 
1.813
 21 
1.0
 0 
LINE
 8 
0
 62 
 7 
 10 
1.813
 20 
1.0
 11 
1.819
 21 
0.994
 0 
LINE
 8 
0
 62 
 7 
 10 
1.819
 20 
0.994
 11 
1.819
 21 
0.975
 0 
LINE
 8 
0
 62 
 7 
 10 
1.819
 20 
0.981
 11 
1.838
 21 
1.0
 0 
LINE
 8 
0
 62 
 7 
 10 
1.825
 20 
1.038
 11 
1.825
 21 
1.013
 0 
LINE
 8 
0
 62 
 7 
 10 
1.825
 20 
1.013
 11 
1.819
 21 
1.013
 0 
LINE
 8 
0
 62 
 7 
 10 
1.819
 20 
1.013
 11 
1.8
 21 
1.032
 0 
LINE
 8 
0
 62 
 7 
 10 
1.8
 20 
1.032
 11 
1.838
 21 
1.032
 0 
CIRCLE
 8 
0
 62 
 7 
 10 
1.7
 20 
0.4
 40 
0.028
 0 
CIRCLE
 8 
0
 62 
 7 
 10 
1.7
 20 
0.4
 40 
0.014
 0 
CIRCLE
 8 
0
 62 
 7 
 10 
1.7
 20 
0.8
 40 
0.028
 0 
CIRCLE
 8 
0
 62 
 7 
 10 
1.7
 20 
0.8
 40 
0.014
 0 
LINE
 8 
0
 62 
 7 
 10 
1.75
 20 
0.485
 11 
1.65
 21 
0.485
 0 
LINE
 8 
0
 62 
 7 
 10 
1.65
 20 
0.715
 11 
1.65
 21 
0.485
 0 
LINE
 8 
0
 62 
 7 
 10 
1.65
 20 
0.715
 11 
1.75
 21 
0.715
 0 
LINE
 8 
0
 62 
 7 
 10 
1.75
 20 
0.485
 11 
1.75
 21 
0.715
 0 
LINE
 8 
0
 62 
 7 
 10 
1.7
 20 
0.485
 11 
1.7
 21 
0.45
 0 
LINE
 8 
0
 62 
 7 
 10 
1.7
 20 
0.715
 11 
1.7
 21 
0.75
 0 
LINE
 8 
0
 62 
 7 
 10 
1.638
 20 
0.475
 11 
1.6
 21 
0.475
 0 
LINE
 8 
0
 62 
 7 
 10 
1.6
 20 
0.475
 11 
1.6
 21 
0.494
 0 
LINE
 8 
0
 62 
 7 
 10 
1.6
 20 
0.494
 11 
1.606
 21 
0.5
 0 
LINE
 8 
0
 62 
 7 
 10 
1.606
 20 
0.5
 11 
1.613
 21 
0.5
 0 
LINE
 8 
0
 62 
 7 
 10 
1.613
 20 
0.5
 11 
1.619
 21 
0.494
 0 
LINE
 8 
0
 62 
 7 
 10 
1.619
 20 
0.494
 11 
1.619
 21 
0.475
 0 
LINE
 8 
0
 62 
 7 
 10 
1.619
 20 
0.481
 11 
1.638
 21 
0.5
 0 
LINE
 8 
0
 62 
 7 
 10 
1.6
 20 
0.538
 11 
1.6
 21 
0.513
 0 
LINE
 8 
0
 62 
 7 
 10 
1.6
 20 
0.513
 11 
1.613
 21 
0.513
 0 
LINE
 8 
0
 62 
 7 
 10 
1.613
 20 
0.513
 11 
1.613
 21 
0.532
 0 
LINE
 8 
0
 62 
 7 
 10 
1.613
 20 
0.532
 11 
1.619
 21 
0.538
 0 
LINE
 8 
0
 62 
 7 
 10 
1.619
 20 
0.538
 11 
1.632
 21 
0.538
 0 
LINE
 8 
0
 62 
 7 
 10 
1.632
 20 
0.538
 11 
1.638
 21 
0.532
 0 
LINE
 8 
0
 62 
 7 
 10 
1.638
 20 
0.532
 11 
1.638
 21 
0.519
 0 
LINE
 8 
0
 62 
 7 
 10 
1.638
 20 
0.519
 11 
1.632
 21 
0.513
 0 
CIRCLE
 8 
0
 62 
 7 
 10 
1.9
 20 
0.4
 40 
0.028
 0 
CIRCLE
 8 
0
 62 
 7 
 10 
1.9
 20 
0.4
 40 
0.014
 0 
CIRCLE
 8 
0
 62 
 7 
 10 
1.9
 20 
0.8
 40 
0.028
 0 
CIRCLE
 8 
0
 62 
 7 
 10 
1.9
 20 
0.8
 40 
0.014
 0 
LINE
 8 
0
 62 
 7 
 10 
1.95
 20 
0.485
 11 
1.85
 21 
0.485
 0 
LINE
 8 
0
 62 
 7 
 10 
1.85
 20 
0.715
 11 
1.85
 21 
0.485
 0 
LINE
 8 
0
 62 
 7 
 10 
1.85
 20 
0.715
 11 
1.95
 21 
0.715
 0 
LINE
 8 
0
 62 
 7 
 10 
1.95
 20 
0.485
 11 
1.95
 21 
0.715
 0 
LINE
 8 
0
 62 
 7 
 10 
1.9
 20 
0.485
 11 
1.9
 21 
0.45
 0 
LINE
 8 
0
 62 
 7 
 10 
1.9
 20 
0.715
 11 
1.9
 21 
0.75
 0 
LINE
 8 
0
 62 
 7 
 10 
1.838
 20 
0.475
 11 
1.8
 21 
0.475
 0 
LINE
 8 
0
 62 
 7 
 10 
1.8
 20 
0.475
 11 
1.8
 21 
0.494
 0 
LINE
 8 
0
 62 
 7 
 10 
1.8
 20 
0.494
 11 
1.806
 21 
0.5
 0 
LINE
 8 
0
 62 
 7 
 10 
1.806
 20 
0.5
 11 
1.813
 21 
0.5
 0 
LINE
 8 
0
 62 
 7 
 10 
1.813
 20 
0.5
 11 
1.819
 21 
0.494
 0 
LINE
 8 
0
 62 
 7 
 10 
1.819
 20 
0.494
 11 
1.819
 21 
0.475
 0 
LINE
 8 
0
 62 
 7 
 10 
1.819
 20 
0.481
 11 
1.838
 21 
0.5
 0 
LINE
 8 
0
 62 
 7 
 10 
1.8
 20 
0.532
 11 
1.8
 21 
0.526
 0 
LINE
 8 
0
 62 
 7 
 10 
1.8
 20 
0.526
 11 
1.813
 21 
0.513
 0 
LINE
 8 
0
 62 
 7 
 10 
1.813
 20 
0.513
 11 
1.832
 21 
0.513
 0 
LINE
 8 
0
 62 
 7 
 10 
1.832
 20 
0.513
 11 
1.838
 21 
0.519
 0 
LINE
 8 
0
 62 
 7 
 10 
1.838
 20 
0.519
 11 
1.838
 21 
0.532
 0 
LINE
 8 
0
 62 
 7 
 10 
1.838
 20 
0.532
 11 
1.832
 21 
0.538
 0 
LINE
 8 
0
 62 
 7 
 10 
1.832
 20 
0.538
 11 
1.825
 21 
0.538
 0 
LINE
 8 
0
 62 
 7 
 10 
1.825
 20 
0.538
 11 
1.819
 21 
0.532
 0 
LINE
 8 
0
 62 
 7 
 10 
1.819
 20 
0.532
 11 
1.819
 21 
0.519
 0 
LINE
 8 
0
 62 
 7 
 10 
1.819
 20 
0.519
 11 
1.825
 21 
0.513
 0 
CIRCLE
 8 
0
 62 
 7 
 10 
1.5
 20 
0.5
 40 
0.028
 0 
CIRCLE
 8 
0
 62 
 7 
 10 
1.5
 20 
0.5
 40 
0.014
 0 
CIRCLE
 8 
0
 62 
 7 
 10 
1.5
 20 
0.9
 40 
0.028
 0 
CIRCLE
 8 
0
 62 
 7 
 10 
1.5
 20 
0.9
 40 
0.014
 0 
CIRCLE
 8 
0
 62 
 7 
 10 
1.375
 20 
1.25
 40 
0.028
 0 
CIRCLE
 8 
0
 62 
 7 
 10 
1.375
 20 
1.25
 40 
0.014
 0 
CIRCLE
 8 
0
 62 
 7 
 10 
0.975
 20 
1.25
 40 
0.028
 0 
CIRCLE
 8 
0
 62 
 7 
 10 
0.975
 20 
1.25
 40 
0.014
 0 
CIRCLE
 8 
0
 62 
 7 
 10 
1.375
 20 
0.55
 40 
0.028
 0 
CIRCLE
 8 
0
 62 
 7 
 10 
1.375
 20 
0.55
 40 
0.014
 0 
CIRCLE
 8 
0
 62 
 7 
 10 
0.975
 20 
0.55
 40 
0.028
 0 
CIRCLE
 8 
0
 62 
 7 
 10 
0.975
 20 
0.55
 40 
0.014
 0 
LINE
 8 
0
 62 
 7 
 10 
1.55
 20 
0.585
 11 
1.45
 21 
0.585
 0 
LINE
 8 
0
 62 
 7 
 10 
1.45
 20 
0.815
 11 
1.45
 21 
0.585
 0 
LINE
 8 
0
 62 
 7 
 10 
1.45
 20 
0.815
 11 
1.55
 21 
0.815
 0 
LINE
 8 
0
 62 
 7 
 10 
1.55
 20 
0.585
 11 
1.55
 21 
0.815
 0 
LINE
 8 
0
 62 
 7 
 10 
1.5
 20 
0.585
 11 
1.5
 21 
0.55
 0 
LINE
 8 
0
 62 
 7 
 10 
1.5
 20 
0.815
 11 
1.5
 21 
0.85
 0 
LINE
 8 
0
 62 
 7 
 10 
1.438
 20 
0.575
 11 
1.4
 21 
0.575
 0 
LINE
 8 
0
 62 
 7 
 10 
1.4
 20 
0.575
 11 
1.4
 21 
0.594
 0 
LINE
 8 
0
 62 
 7 
 10 
1.4
 20 
0.594
 11 
1.406
 21 
0.6
 0 
LINE
 8 
0
 62 
 7 
 10 
1.406
 20 
0.6
 11 
1.413
 21 
0.6
 0 
LINE
 8 
0
 62 
 7 
 10 
1.413
 20 
0.6
 11 
1.419
 21 
0.594
 0 
LINE
 8 
0
 62 
 7 
 10 
1.419
 20 
0.594
 11 
1.419
 21 
0.575
 0 
LINE
 8 
0
 62 
 7 
 10 
1.419
 20 
0.581
 11 
1.438
 21 
0.6
 0 
LINE
 8 
0
 62 
 7 
 10 
1.406
 20 
0.613
 11 
1.4
 21 
0.613
 0 
LINE
 8 
0
 62 
 7 
 10 
1.4
 20 
0.613
 11 
1.4
 21 
0.638
 0 
LINE
 8 
0
 62 
 7 
 10 
1.4
 20 
0.638
 11 
1.406
 21 
0.638
 0 
LINE
 8 
0
 62 
 7 
 10 
1.406
 20 
0.638
 11 
1.425
 21 
0.619
 0 
LINE
 8 
0
 62 
 7 
 10 
1.425
 20 
0.619
 11 
1.438
 21 
0.619
 0 
LINE
 8 
0
 62 
 7 
 10 
1.29
 20 
1.3
 11 
1.29
 21 
1.2
 0 
LINE
 8 
0
 62 
 7 
 10 
1.06
 20 
1.2
 11 
1.29
 21 
1.2
 0 
LINE
 8 
0
 62 
 7 
 10 
1.06
 20 
1.2
 11 
1.06
 21 
1.3
 0 
LINE
 8 
0
 62 
 7 
 10 
1.29
 20 
1.3
 11 
1.06
 21 
1.3
 0 
LINE
 8 
0
 62 
 7 
 10 
1.29
 20 
1.25
 11 
1.325
 21 
1.25
 0 
LINE
 8 
0
 62 
 7 
 10 
1.06
 20 
1.25
 11 
1.025
 21 
1.25
 0 
LINE
 8 
0
 62 
 7 
 10 
1.075
 20 
1.337
 11 
1.075
 21 
1.375
 0 
LINE
 8 
0
 62 
 7 
 10 
1.075
 20 
1.375
 11 
1.094
 21 
1.375
 0 
LINE
 8 
0
 62 
 7 
 10 
1.094
 20 
1.375
 11 
1.1
 21 
1.369
 0 
LINE
 8 
0
 62 
 7 
 10 
1.1
 20 
1.369
 11 
1.1
 21 
1.362
 0 
LINE
 8 
0
 62 
 7 
 10 
1.1
 20 
1.362
 11 
1.094
 21 
1.356
 0 
LINE
 8 
0
 62 
 7 
 10 
1.094
 20 
1.356
 11 
1.075
 21 
1.356
 0 
LINE
 8 
0
 62 
 7 
 10 
1.081
 20 
1.356
 11 
1.1
 21 
1.337
 0 
LINE
 8 
0
 62 
 7 
 10 
1.119
 20 
1.356
 11 
1.113
 21 
1.362
 0 
LINE
 8 
0
 62 
 7 
 10 
1.113
 20 
1.362
 11 
1.113
 21 
1.369
 0 
LINE
 8 
0
 62 
 7 
 10 
1.113
 20 
1.369
 11 
1.119
 21 
1.375
 0 
LINE
 8 
0
 62 
 7 
 10 
1.119
 20 
1.375
 11 
1.132
 21 
1.375
 0 
LINE
 8 
0
 62 
 7 
 10 
1.132
 20 
1.375
 11 
1.138
 21 
1.369
 0 
LINE
 8 
0
 62 
 7 
 10 
1.138
 20 
1.369
 11 
1.138
 21 
1.362
 0 
LINE
 8 
0
 62 
 7 
 10 
1.138
 20 
1.362
 11 
1.132
 21 
1.356
 0 
LINE
 8 
0
 62 
 7 
 10 
1.132
 20 
1.356
 11 
1.119
 21 
1.356
 0 
LINE
 8 
0
 62 
 7 
 10 
1.119
 20 
1.356
 11 
1.113
 21 
1.35
 0 
LINE
 8 
0
 62 
 7 
 10 
1.113
 20 
1.35
 11 
1.113
 21 
1.343
 0 
LINE
 8 
0
 62 
 7 
 10 
1.113
 20 
1.343
 11 
1.119
 21 
1.337
 0 
LINE
 8 
0
 62 
 7 
 10 
1.119
 20 
1.337
 11 
1.132
 21 
1.337
 0 
LINE
 8 
0
 62 
 7 
 10 
1.132
 20 
1.337
 11 
1.138
 21 
1.343
 0 
LINE
 8 
0
 62 
 7 
 10 
1.138
 20 
1.343
 11 
1.138
 21 
1.35
 0 
LINE
 8 
0
 62 
 7 
 10 
1.138
 20 
1.35
 11 
1.132
 21 
1.356
 0 
LINE
 8 
0
 62 
 7 
 10 
1.29
 20 
0.6
 11 
1.29
 21 
0.5
 0 
LINE
 8 
0
 62 
 7 
 10 
1.06
 20 
0.5
 11 
1.29
 21 
0.5
 0 
LINE
 8 
0
 62 
 7 
 10 
1.06
 20 
0.5
 11 
1.06
 21 
0.6
 0 
LINE
 8 
0
 62 
 7 
 10 
1.29
 20 
0.6
 11 
1.06
 21 
0.6
 0 
LINE
 8 
0
 62 
 7 
 10 
1.29
 20 
0.55
 11 
1.325
 21 
0.55
 0 
LINE
 8 
0
 62 
 7 
 10 
1.06
 20 
0.55
 11 
1.025
 21 
0.55
 0 
LINE
 8 
0
 62 
 7 
 10 
1.075
 20 
0.437
 11 
1.075
 21 
0.475
 0 
LINE
 8 
0
 62 
 7 
 10 
1.075
 20 
0.475
 11 
1.094
 21 
0.475
 0 
LINE
 8 
0
 62 
 7 
 10 
1.094
 20 
0.475
 11 
1.1
 21 
0.469
 0 
LINE
 8 
0
 62 
 7 
 10 
1.1
 20 
0.469
 11 
1.1
 21 
0.462
 0 
LINE
 8 
0
 62 
 7 
 10 
1.1
 20 
0.462
 11 
1.094
 21 
0.456
 0 
LINE
 8 
0
 62 
 7 
 10 
1.094
 20 
0.456
 11 
1.075
 21 
0.456
 0 
LINE
 8 
0
 62 
 7 
 10 
1.081
 20 
0.456
 11 
1.1
 21 
0.437
 0 
LINE
 8 
0
 62 
 7 
 10 
1.138
 20 
0.462
 11 
1.132
 21 
0.456
 0 
LINE
 8 
0
 62 
 7 
 10 
1.132
 20 
0.456
 11 
1.119
 21 
0.456
 0 
LINE
 8 
0
 62 
 7 
 10 
1.119
 20 
0.456
 11 
1.113
 21 
0.462
 0 
LINE
 8 
0
 62 
 7 
 10 
1.113
 20 
0.462
 11 
1.113
 21 
0.469
 0 
LINE
 8 
0
 62 
 7 
 10 
1.113
 20 
0.469
 11 
1.119
 21 
0.475
 0 
LINE
 8 
0
 62 
 7 
 10 
1.119
 20 
0.475
 11 
1.132
 21 
0.475
 0 
LINE
 8 
0
 62 
 7 
 10 
1.132
 20 
0.475
 11 
1.138
 21 
0.469
 0 
LINE
 8 
0
 62 
 7 
 10 
1.138
 20 
0.469
 11 
1.138
 21 
0.45
 0 
LINE
 8 
0
 62 
 7 
 10 
1.138
 20 
0.45
 11 
1.126
 21 
0.437
 0 
LINE
 8 
0
 62 
 7 
 10 
1.126
 20 
0.437
 11 
1.119
 21 
0.437
 0 
CIRCLE
 8 
0
 62 
 7 
 10 
2.1
 20 
0.95
 40 
0.028
 0 
CIRCLE
 8 
0
 62 
 7 
 10 
2.1
 20 
0.95
 40 
0.014
 0 
CIRCLE
 8 
0
 62 
 7 
 10 
2.1
 20 
1.15
 40 
0.028
 0 
CIRCLE
 8 
0
 62 
 7 
 10 
2.1
 20 
1.15
 40 
0.014
 0 
LINE
 8 
0
 62 
 7 
 10 
2.145
 20 
0.9
 11 
2.055
 21 
0.9
 0 
LINE
 8 
0
 62 
 7 
 10 
2.055
 20 
0.9
 11 
2.025
 21 
0.93
 0 
LINE
 8 
0
 62 
 7 
 10 
2.025
 20 
0.93
 11 
2.025
 21 
1.17
 0 
LINE
 8 
0
 62 
 7 
 10 
2.025
 20 
1.17
 11 
2.055
 21 
1.2
 0 
LINE
 8 
0
 62 
 7 
 10 
2.055
 20 
1.2
 11 
2.145
 21 
1.2
 0 
LINE
 8 
0
 62 
 7 
 10 
2.145
 20 
1.2
 11 
2.175
 21 
1.17
 0 
LINE
 8 
0
 62 
 7 
 10 
2.175
 20 
1.17
 11 
2.175
 21 
0.93
 0 
LINE
 8 
0
 62 
 7 
 10 
2.175
 20 
0.93
 11 
2.145
 21 
0.9
 0 
LINE
 8 
0
 62 
 7 
 10 
1.981
 20 
0.95
 11 
1.975
 21 
0.944
 0 
LINE
 8 
0
 62 
 7 
 10 
1.975
 20 
0.944
 11 
1.975
 21 
0.931
 0 
LINE
 8 
0
 62 
 7 
 10 
1.975
 20 
0.931
 11 
1.981
 21 
0.925
 0 
LINE
 8 
0
 62 
 7 
 10 
1.981
 20 
0.925
 11 
2.007
 21 
0.925
 0 
LINE
 8 
0
 62 
 7 
 10 
2.007
 20 
0.925
 11 
2.013
 21 
0.931
 0 
LINE
 8 
0
 62 
 7 
 10 
2.013
 20 
0.931
 11 
2.013
 21 
0.944
 0 
LINE
 8 
0
 62 
 7 
 10 
2.013
 20 
0.944
 11 
2.007
 21 
0.95
 0 
LINE
 8 
0
 62 
 7 
 10 
1.981
 20 
0.963
 11 
1.975
 21 
0.969
 0 
LINE
 8 
0
 62 
 7 
 10 
1.975
 20 
0.969
 11 
1.975
 21 
0.982
 0 
LINE
 8 
0
 62 
 7 
 10 
1.975
 20 
0.982
 11 
1.981
 21 
0.988
 0 
LINE
 8 
0
 62 
 7 
 10 
1.981
 20 
0.988
 11 
1.988
 21 
0.988
 0 
LINE
 8 
0
 62 
 7 
 10 
1.988
 20 
0.988
 11 
1.994
 21 
0.982
 0 
LINE
 8 
0
 62 
 7 
 10 
1.994
 20 
0.982
 11 
1.994
 21 
0.969
 0 
LINE
 8 
0
 62 
 7 
 10 
1.994
 20 
0.969
 11 
2.0
 21 
0.963
 0 
LINE
 8 
0
 62 
 7 
 10 
2.0
 20 
0.963
 11 
2.013
 21 
0.963
 0 
LINE
 8 
0
 62 
 7 
 10 
2.013
 20 
0.963
 11 
2.013
 21 
0.988
 0 
CIRCLE
 8 
0
 62 
 7 
 10 
2.1
 20 
0.825
 40 
0.028
 0 
CIRCLE
 8 
0
 62 
 7 
 10 
2.1
 20 
0.825
 40 
0.014
 0 
CIRCLE
 8 
0
 62 
 7 
 10 
2.1
 20 
0.625
 40 
0.028
 0 
CIRCLE
 8 
0
 62 
 7 
 10 
2.1
 20 
0.625
 40 
0.014
 0 
LINE
 8 
0
 62 
 7 
 10 
2.055
 20 
0.875
 11 
2.145
 21 
0.875
 0 
LINE
 8 
0
 62 
 7 
 10 
2.145
 20 
0.875
 11 
2.175
 21 
0.845
 0 
LINE
 8 
0
 62 
 7 
 10 
2.175
 20 
0.845
 11 
2.175
 21 
0.605
 0 
LINE
 8 
0
 62 
 7 
 10 
2.175
 20 
0.605
 11 
2.145
 21 
0.575
 0 
LINE
 8 
0
 62 
 7 
 10 
2.145
 20 
0.575
 11 
2.055
 21 
0.575
 0 
LINE
 8 
0
 62 
 7 
 10 
2.055
 20 
0.575
 11 
2.025
 21 
0.605
 0 
LINE
 8 
0
 62 
 7 
 10 
2.025
 20 
0.605
 11 
2.025
 21 
0.845
 0 
LINE
 8 
0
 62 
 7 
 10 
2.025
 20 
0.845
 11 
2.055
 21 
0.875
 0 
LINE
 8 
0
 62 
 7 
 10 
2.006
 20 
0.55
 11 
2.0
 21 
0.544
 0 
LINE
 8 
0
 62 
 7 
 10 
2.0
 20 
0.544
 11 
2.0
 21 
0.531
 0 
LINE
 8 
0
 62 
 7 
 10 
2.0
 20 
0.531
 11 
2.006
 21 
0.525
 0 
LINE
 8 
0
 62 
 7 
 10 
2.006
 20 
0.525
 11 
2.032
 21 
0.525
 0 
LINE
 8 
0
 62 
 7 
 10 
2.032
 20 
0.525
 11 
2.038
 21 
0.531
 0 
LINE
 8 
0
 62 
 7 
 10 
2.038
 20 
0.531
 11 
2.038
 21 
0.544
 0 
LINE
 8 
0
 62 
 7 
 10 
2.038
 20 
0.544
 11 
2.032
 21 
0.55
 0 
LINE
 8 
0
 62 
 7 
 10 
2.006
 20 
0.563
 11 
2.0
 21 
0.569
 0 
LINE
 8 
0
 62 
 7 
 10 
2.0
 20 
0.569
 11 
2.0
 21 
0.582
 0 
LINE
 8 
0
 62 
 7 
 10 
2.0
 20 
0.582
 11 
2.006
 21 
0.588
 0 
LINE
 8 
0
 62 
 7 
 10 
2.006
 20 
0.588
 11 
2.013
 21 
0.588
 0 
LINE
 8 
0
 62 
 7 
 10 
2.013
 20 
0.588
 11 
2.019
 21 
0.582
 0 
LINE
 8 
0
 62 
 7 
 10 
2.019
 20 
0.582
 11 
2.019
 21 
0.576
 0 
LINE
 8 
0
 62 
 7 
 10 
2.019
 20 
0.582
 11 
2.025
 21 
0.588
 0 
LINE
 8 
0
 62 
 7 
 10 
2.025
 20 
0.588
 11 
2.032
 21 
0.588
 0 
LINE
 8 
0
 62 
 7 
 10 
2.032
 20 
0.588
 11 
2.038
 21 
0.582
 0 
LINE
 8 
0
 62 
 7 
 10 
2.038
 20 
0.582
 11 
2.038
 21 
0.569
 0 
LINE
 8 
0
 62 
 7 
 10 
2.038
 20 
0.569
 11 
2.032
 21 
0.563
 0 
CIRCLE
 8 
0
 62 
 7 
 10 
2.531
 20 
1.547
 40 
0.044
 0 
CIRCLE
 8 
0
 62 
 7 
 10 
2.531
 20 
1.547
 40 
0.02
 0 
CIRCLE
 8 
0
 62 
 7 
 10 
2.275
 20 
1.547
 40 
0.044
 0 
CIRCLE
 8 
0
 62 
 7 
 10 
2.275
 20 
1.547
 40 
0.02
 0 
CIRCLE
 8 
0
 62 
 7 
 10 
2.531
 20 
1.724
 40 
0.044
 0 
CIRCLE
 8 
0
 62 
 7 
 10 
2.531
 20 
1.724
 40 
0.02
 0 
CIRCLE
 8 
0
 62 
 7 
 10 
2.275
 20 
1.724
 40 
0.044
 0 
CIRCLE
 8 
0
 62 
 7 
 10 
2.275
 20 
1.724
 40 
0.02
 0 
LINE
 8 
0
 62 
 7 
 10 
2.49
 20 
1.506
 11 
2.316
 21 
1.506
 0 
LINE
 8 
0
 62 
 7 
 10 
2.49
 20 
1.766
 11 
2.316
 21 
1.766
 0 
LINE
 8 
0
 62 
 7 
 10 
2.553
 20 
1.601
 11 
2.553
 21 
1.671
 0 
LINE
 8 
0
 62 
 7 
 10 
2.253
 20 
1.601
 11 
2.253
 21 
1.671
 0 
LINE
 8 
0
 62 
 7 
 10 
2.381
 20 
1.828
 11 
2.375
 21 
1.834
 0 
LINE
 8 
0
 62 
 7 
 10 
2.375
 20 
1.834
 11 
2.362
 21 
1.834
 0 
LINE
 8 
0
 62 
 7 
 10 
2.362
 20 
1.834
 11 
2.356
 21 
1.828
 0 
LINE
 8 
0
 62 
 7 
 10 
2.356
 20 
1.828
 11 
2.356
 21 
1.821
 0 
LINE
 8 
0
 62 
 7 
 10 
2.356
 20 
1.821
 11 
2.362
 21 
1.815
 0 
LINE
 8 
0
 62 
 7 
 10 
2.362
 20 
1.815
 11 
2.375
 21 
1.815
 0 
LINE
 8 
0
 62 
 7 
 10 
2.375
 20 
1.815
 11 
2.381
 21 
1.809
 0 
LINE
 8 
0
 62 
 7 
 10 
2.381
 20 
1.809
 11 
2.381
 21 
1.802
 0 
LINE
 8 
0
 62 
 7 
 10 
2.381
 20 
1.802
 11 
2.375
 21 
1.796
 0 
LINE
 8 
0
 62 
 7 
 10 
2.375
 20 
1.796
 11 
2.362
 21 
1.796
 0 
LINE
 8 
0
 62 
 7 
 10 
2.362
 20 
1.796
 11 
2.356
 21 
1.802
 0 
LINE
 8 
0
 62 
 7 
 10 
2.394
 20 
1.834
 11 
2.394
 21 
1.796
 0 
LINE
 8 
0
 62 
 7 
 10 
2.394
 20 
1.796
 11 
2.407
 21 
1.809
 0 
LINE
 8 
0
 62 
 7 
 10 
2.407
 20 
1.809
 11 
2.419
 21 
1.796
 0 
LINE
 8 
0
 62 
 7 
 10 
2.419
 20 
1.796
 11 
2.419
 21 
1.834
 0 
LINE
 8 
0
 62 
 7 
 10 
2.407
 20 
1.809
 11 
2.407
 21 
1.815
 0 
LINE
 8 
0
 62 
 7 
 10 
2.438
 20 
1.828
 11 
2.445
 21 
1.834
 0 
LINE
 8 
0
 62 
 7 
 10 
2.445
 20 
1.834
 11 
2.445
 21 
1.796
 0 
LINE
 8 
0
 62 
 7 
 10 
2.438
 20 
1.796
 11 
2.451
 21 
1.796
 0 
ENDSEC
 0 
EOF
